<?xml version="1.0" encoding="utf-8"?>
<!-- Generator: Adobe Illustrator 16.0.0, SVG Export Plug-In . SVG Version: 6.00 Build 0)  -->
<!DOCTYPE svg PUBLIC "-//W3C//DTD SVG 1.1//EN" "http://www.w3.org/Graphics/SVG/1.1/DTD/svg11.dtd">
<svg version="1.1" id="Isolation_Mode" xmlns="http://www.w3.org/2000/svg" xmlns:xlink="http://www.w3.org/1999/xlink" x="0px"
	 y="0px" width="100px" height="71px" viewBox="0 0 100 71" enable-background="new 0 0 100 71" xml:space="preserve">
<g>
	<g>
		<g>
			<path fill="none" stroke="#FFFFFF" stroke-miterlimit="10" d="M43.203,24.837c-1.925-2.7-3.062-5.979-3.207-9.132
				c-0.011-0.224-0.018-0.45-0.018-0.678c0-0.005,0-0.01,0-0.015v-0.007c0-2.618,0.77-5.003,2.037-6.813
				c0.707-1.205,2.277-2.426,4.305-3.227c-0.909,0.344-1.792,0.788-2.631,1.322v0.001c-14.643,8.928-6.711,31.887-0.732,38.978
				c0.086,0.104,0.732,0.814,0.936,1.014c3.754,3.688,9.127,4.301,12.004,1.372c2.804-2.856,2.18-8.034-1.35-11.71
				C50.84,31.946,46.635,29.904,43.203,24.837z"/>
			<path fill="none" stroke="#FFFFFF" stroke-miterlimit="10" d="M50.555,4.117c-0.225,0.006-0.452,0.019-0.678,0.038
				c1.212-0.065,2.261,0.124,2.974,0.546c0.127,0.072,0.251,0.149,0.372,0.232c0.585,0.402,1.053,0.929,1.405,1.544
				c0.564,0.928,0.845,2.079,0.846,3.339c0,0.031-0.001,0.061-0.001,0.09V9.91c-0.017,2.557-1.174,5.558-3.398,8.064
				c-0.056,0.063-0.118,0.128-0.175,0.194c0,0,0,0.001-0.002,0.002l0,0c-0.189,0.216-0.367,0.445-0.533,0.687
				c-2.204,3.167-1.726,7.307,1.064,9.247c2.791,1.941,6.84,0.945,9.043-2.224c0.109-0.158,0.214-0.319,0.31-0.482
				C68.098,15.493,60.752,3.683,50.555,4.117z"/>
			<path fill="none" stroke="#FFFFFF" stroke-miterlimit="10" d="M45.185,21.85c0.312-5.261,3.71-9.339,7.591-9.109
				c0.717,0.043,1.435,0.264,2.071,0.575c0.408-1.166,0.619-2.326,0.626-3.405V9.907c0-0.03,0-0.059,0-0.09
				c0-1.261-0.28-2.411-0.845-3.339v0l0,0c-0.354-0.616-0.822-1.142-1.405-1.543c-0.121-0.083-0.245-0.16-0.372-0.232
				c-1.307-0.775-3.742-0.764-6.247,0.156c-2.164,0.796-3.85,2.075-4.588,3.334c-1.268,1.81-2.037,4.196-2.037,6.813
				c0,0.228,0.007,0.455,0.018,0.678c0.146,3.158,1.282,6.441,3.207,9.148c1.559,2.304,3.277,3.983,5.037,5.506
				C46.219,28.571,44.975,25.396,45.185,21.85z"/>
		</g>
	</g>
	<path fill="#FFFFFF" d="M23.391,60.036c2.006,0,3.479,1.227,3.479,3.48c0,2.253-1.473,3.478-3.479,3.478s-3.479-1.225-3.479-3.478
		C19.912,61.263,21.385,60.036,23.391,60.036z M23.391,65.717c0.781,0,1.628-0.638,1.628-2.2c0-1.563-0.847-2.202-1.628-2.202
		s-1.628,0.639-1.628,2.202C21.763,65.079,22.609,65.717,23.391,65.717z"/>
	<path fill="#FFFFFF" d="M39.996,60.142h-5.708c-0.079,0-0.142,0.065-0.142,0.143v1.02c0,0.077,0.062,0.142,0.142,0.142h1.966
		l0.002,5.302c0,0.079,0.064,0.143,0.145,0.143h1.484c0.08,0,0.144-0.063,0.144-0.143v-5.302h1.968c0.078,0,0.142-0.064,0.142-0.142
		v-1.02C40.138,60.207,40.074,60.142,39.996,60.142z"/>
	<path fill="#FFFFFF" d="M33.188,66.889c0.078,0,0.143-0.063,0.143-0.142l-0.007-1.023c0-0.077-0.064-0.142-0.143-0.142
		c-0.041,0-1.122-0.001-1.352-0.001c-1.236,0-2.072-0.814-2.072-2.039c0-1.354,0.911-2.097,2.098-2.097l1.219-0.001
		c0.074,0,0.137-0.059,0.141-0.133v-1.027c0-0.077-0.063-0.143-0.142-0.143h-1.519c-2.396,0-3.646,1.512-3.646,3.31
		c0,1.784,1.206,3.438,3.617,3.438H33.188z"/>
	<path fill="#FFFFFF" d="M69.699,66.745l-2.738-3.412l2.135-2.721h-0.005c0,0,0.054-0.067,0.115-0.143l0.152-0.194
		c0.043-0.069,0.012-0.134-0.083-0.134h-1.651c-0.081,0-0.148,0.025-0.2,0.084l-2.103,2.978h-0.065v-2.591l0,0v-0.329
		c0-0.075-0.059-0.136-0.135-0.142h-1.494c-0.079,0-0.142,0.065-0.142,0.143l-0.002,6.463c0.001,0.079,0.064,0.143,0.144,0.143
		h1.487c0.077,0,0.141-0.063,0.141-0.143l0.001-3.087h0.065l2.189,3.12c0.055,0.079,0.127,0.109,0.22,0.109h1.892
		C69.724,66.89,69.754,66.819,69.699,66.745z"/>
	<path fill="#FFFFFF" d="M15.929,57.771h-2.052c-0.337,0.051-0.605,0.325-0.646,0.664v8.312c0,0.079,0.064,0.143,0.143,0.143h1.565
		c0.079,0,0.143-0.063,0.143-0.143v-3.283h1.185c2.333,0,3.166-1.642,3.166-2.84C19.432,60.051,19.235,57.771,15.929,57.771z
		 M15.929,62.03h-0.848v-2.826h0.848c1.065,0,1.548,0.613,1.548,1.368C17.477,61.263,17.047,62.03,15.929,62.03z"/>
	<path fill="#FFFFFF" d="M54.231,60.142h-4.104h-0.427c-0.42,0-0.768,0.347-0.768,0.768v2.587c0,1.321-0.508,2.072-1.387,2.072
		c-0.018,0-0.033,0.001-0.047,0.001c-0.075,0.001-0.136,0.06-0.139,0.132v0.979v0.067c0,0.075,0.059,0.135,0.13,0.142
		c0.089,0,0.222-0.002,0.387-0.002c0.927,0,2.635-0.463,2.635-3.391v-2.051h2.083v5.302c0,0.079,0.064,0.143,0.142,0.143h1.488
		c0.077,0,0.142-0.063,0.142-0.143v-6.464C54.367,60.208,54.307,60.146,54.231,60.142z"/>
	<path fill="#FFFFFF" d="M86.381,61.387v-0.474c0-0.419-0.347-0.766-0.766-0.766h-1.398c-0.065,0.008-0.128,0.037-0.185,0.123l0,0
		l-1.964,3.059l-1.943-3.057v-0.002c-0.084-0.129-0.182-0.129-0.281-0.129h-1.092h-0.213c-0.421,0-0.767,0.347-0.767,0.768v2.917
		v2.929c0.003,0.075,0.063,0.135,0.141,0.135H79.4c0.077,0,0.142-0.063,0.142-0.143l0.002-3.7l-0.04-1.375h0.066l2.287,3.66
		c0.12,0.185,0.333,0.18,0.443-0.002c0.001-0.001,2.284-3.658,2.284-3.658h0.065l-0.04,1.375v3.7c0,0.079,0.064,0.143,0.143,0.143
		h1.488c0.077,0,0.14-0.063,0.14-0.143V61.387z"/>
	<path fill="#FFFFFF" d="M73.171,60.036c2.006,0,3.479,1.227,3.479,3.48c0,2.253-1.473,3.478-3.479,3.478
		c-2.007,0-3.477-1.225-3.477-3.478C69.694,61.263,71.164,60.036,73.171,60.036z M73.171,65.717c0.782,0,1.629-0.638,1.629-2.2
		c0-1.563-0.847-2.202-1.629-2.202c-0.783,0-1.628,0.639-1.628,2.202C71.543,65.079,72.388,65.717,73.171,65.717z"/>
	<path fill="#FFFFFF" d="M46.226,65.57c0,0-1.065,0-1.459,0c-1.204,0-2.196-0.66-2.248-1.52h3.749c0.419,0,0.766-0.348,0.766-0.767
		V63.13c-0.076-1.056-0.512-3.094-3.03-3.094c-1.811,0-3.336,1.305-3.336,3.48c0,2.383,2.012,3.373,4.03,3.373h1.528
		c0.073,0,0.138-0.061,0.142-0.136v-1.055C46.359,65.628,46.298,65.57,46.226,65.57z M43.898,61.263
		c0.652,0,1.423,0.441,1.395,1.576h-2.774C42.531,61.953,43.117,61.263,43.898,61.263z"/>
	<path fill="#FFFFFF" d="M61.335,65.418c0,0-0.911,0.086-1.594,0.086c-1.205,0-2.196-0.594-2.248-1.453h3.759
		c0.419,0,0.765-0.346,0.767-0.767c-0.048-0.995-0.393-3.248-3.04-3.248c-1.812,0-3.335,1.305-3.335,3.48
		c0,2.383,2.002,3.373,4.03,3.373c0.786,0,1.661-0.086,1.661-0.086c0.075,0,0.138-0.061,0.141-0.135v-1.122
		C61.469,65.475,61.408,65.418,61.335,65.418z M58.874,61.263c0.651,0,1.419,0.441,1.394,1.576h-2.774
		C57.506,61.953,58.092,61.263,58.874,61.263z"/>
</g>
</svg>
