<?xml version="1.0" encoding="UTF-8" standalone="no"?>
<svg width="38px" height="54px" viewBox="0 0 38 54" version="1.1" xmlns="http://www.w3.org/2000/svg" xmlns:xlink="http://www.w3.org/1999/xlink" xmlns:sketch="http://www.bohemiancoding.com/sketch/ns">
    <!-- Generator: Sketch 3.0.4 (8054) - http://www.bohemiancoding.com/sketch -->
    <title>Oval 6</title>
    <desc>Created with Sketch.</desc>
    <defs></defs>
    <g id="Page-1" stroke="none" stroke-width="1" fill="none" fill-rule="evenodd" sketch:type="MSPage">
        <g id="Geo-3-старая-версия" sketch:type="MSArtboardGroup" transform="translate(-1553.000000, -1526.000000)">
            <g id="Group-+-10-+-Для-подачи-заявления-3" sketch:type="MSLayerGroup" transform="translate(1033.000000, 1125.000000)">
                <g id="Oval-6" transform="translate(520.000000, 401.000000)" sketch:type="MSShapeGroup">
                    <path d="M19,54.0527344 C19,54.0527344 38,29.5847211 38,19.0588235 C38,8.53292594 29.4934102,0 19,0 C8.50658975,0 0,8.53292594 0,19.0588235 C0,29.5847211 19,54.0527344 19,54.0527344 Z" id="Oval-3" fill="#0063B0"></path>
                    <path d="M18.5,31 C24.8512746,31 30,25.8512746 30,19.5 C30,13.1487254 24.8512746,8 18.5,8 C12.1487254,8 7,13.1487254 7,19.5 C7,25.8512746 12.1487254,31 18.5,31 Z" id="Oval" fill="#FFFFFF"></path>
                </g>
            </g>
        </g>
    </g>
</svg>