<?xml version="1.0" standalone="no"?>
<!DOCTYPE svg PUBLIC "-//W3C//DTD SVG 1.1//EN" "http://www.w3.org/Graphics/SVG/1.1/DTD/svg11.dtd" >
<svg xmlns="http://www.w3.org/2000/svg">
<metadata>Generated by IcoMoon</metadata>
<defs>
<font id="icomoon-epga" horiz-adv-x="512">
<font-face units-per-em="512" ascent="480" descent="-32" />
<missing-glyph horiz-adv-x="512" />
<glyph unicode="&#x20;" d="" horiz-adv-x="256" />
<glyph unicode="&#x21;" d="M192.205 226.56l-55.234 55.234c-16 16.005-16 41.933-0.005 57.928l3.318 3.318c15.975 15.974 41.928 15.99 57.928-0.005l55.23-55.239 55.23 55.234c16.010 16 41.933 16 57.928 0.005l3.318-3.318c15.969-15.974 15.99-41.928-0.010-57.928l-55.23-55.229 55.235-55.229c16-16.010 16-41.933 0.010-57.928l-3.318-3.318c-15.969-15.969-41.928-15.99-57.928 0.010l-55.234 55.23-55.234-55.235c-16.005-16-41.933-16-57.928-0.010l-3.318 3.318c-15.975 15.969-15.99 41.928 0.005 57.928l55.239 55.234z" />
<glyph unicode="&#x22;" d="M256 46.769c-108.584 0-196.923 88.339-196.923 196.923s88.339 196.923 196.923 196.923c108.584 0 196.923-88.339 196.923-196.923s-88.339-196.923-196.923-196.923zM256 401.231c-86.863 0-157.538-70.675-157.538-157.538s70.675-157.538 157.538-157.538 157.538 70.675 157.538 157.538-70.675 157.538-157.538 157.538zM238.189 308.707v33.447h34.097v-33.447h-34.097zM247.749 295.67h15.429l8.251-66.895v-41.699h-32.148v41.698l8.468 66.895z" />
<glyph unicode="&#x23;" d="M386.284 240.276c4.803 6.242 8.612 11.249 11.423 15.032 20.265 27.11 29.051 44.426 26.353 51.978l-1.055 1.766c-0.702 1.065-2.519 2.038-5.447 2.918s-6.676 1.024-11.238 0.441l-50.611-0.359c-1.173 0.118-2.34 0.092-3.517-0.082-1.173-0.179-1.935-0.358-2.284-0.532-0.348-0.179-0.645-0.322-0.88-0.44l-0.702-0.533c-0.584-0.348-1.229-0.973-1.93-1.858-0.707-0.886-1.29-1.915-1.762-3.098-5.504-14.259-11.771-27.52-18.8-39.782-4.337-7.306-8.32-13.65-11.95-19.006-3.63-5.366-6.682-9.314-9.139-11.843-2.452-2.535-4.68-4.572-6.671-6.098-2.002-1.536-3.522-2.181-4.572-1.946-1.055 0.231-2.048 0.466-2.99 0.712-1.639 1.060-2.959 2.499-3.947 4.332-0.998 1.822-1.669 4.121-2.022 6.897-0.348 2.77-0.558 5.156-0.62 7.163-0.062 2.002-0.031 4.828 0.092 8.489 0.118 3.655 0.179 6.124 0.179 7.424 0 4.475 0.092 9.339 0.261 14.587 0.174 5.243 0.317 9.401 0.44 12.467 0.113 3.062 0.174 6.303 0.174 9.723 0 3.415-0.205 6.098-0.615 8.048-0.414 1.941-1.029 3.825-1.843 5.653-0.825 1.822-2.027 3.241-3.604 4.24-1.582 1.003-3.538 1.797-5.888 2.391-6.211 1.418-14.116 2.176-23.721 2.299-21.791 0.226-35.789-1.188-42-4.25-2.458-1.3-4.69-3.067-6.677-5.304-2.109-2.596-2.401-4.014-0.875-4.24 7.035-1.065 12.006-3.599 14.935-7.603l1.054-2.12c0.819-1.541 1.638-4.25 2.458-8.135s1.346-8.192 1.582-12.908c0.589-8.606 0.589-15.97 0-22.098-0.583-6.134-1.142-10.905-1.669-14.315-0.528-3.42-1.316-6.185-2.37-8.31-1.054-2.13-1.756-3.42-2.109-3.897-0.353-0.466-0.645-0.763-0.875-0.881-1.526-0.583-3.102-0.881-4.746-0.881s-3.63 0.829-5.975 2.478c-2.345 1.643-4.777 3.917-7.291 6.804-2.519 2.882-5.356 6.928-8.525 12.114-3.164 5.181-6.446 11.315-9.84 18.386l-2.811 5.13c-1.756 3.298-4.157 8.1-7.204 14.403s-5.744 12.4-8.084 18.299c-0.942 2.473-2.345 4.357-4.219 5.658l-0.875 0.533c-0.583 0.466-1.526 0.967-2.811 1.495-1.29 0.532-2.637 0.911-4.045 1.152l-48.148-0.353c-4.921 0-8.258-1.122-10.014-3.364l-0.701-1.060c-0.343-0.594-0.517-1.536-0.517-2.826 0-1.301 0.353-2.888 1.055-4.772 7.030-16.625 14.674-32.655 22.933-48.092 8.264-15.447 15.437-27.883 21.529-37.31 6.093-9.436 12.298-18.329 18.626-26.701s10.517-13.732 12.565-16.087c2.048-2.361 3.655-4.132 4.828-5.305l4.393-4.245c2.811-2.832 6.942-6.221 12.391-10.168s11.474-7.839 18.099-11.658c6.615-3.835 14.321-6.953 23.107-9.375s17.337-3.394 25.656-2.913h20.209c4.106 0.348 7.204 1.639 9.313 3.886l0.702 0.886c0.466 0.702 0.911 1.797 1.321 3.267 0.404 1.474 0.615 3.092 0.615 4.864-0.118 5.063 0.266 9.641 1.147 13.701 0.87 4.070 1.869 7.132 2.98 9.2 1.122 2.053 2.375 3.794 3.779 5.212 1.408 1.418 2.401 2.268 2.99 2.565 0.589 0.286 1.055 0.497 1.403 0.62 2.811 0.942 6.118 0.026 9.928-2.739 3.804-2.775 7.378-6.185 10.721-10.255 3.333-4.070 7.353-8.632 12.037-13.706 4.685-5.063 8.786-8.837 12.298-11.315l3.517-2.125c2.345-1.408 5.386-2.704 9.139-3.891 3.743-1.173 7.030-1.469 9.836-0.88l44.99 0.712c4.45 0 7.911 0.738 10.368 2.207s3.922 3.098 4.388 4.864c0.466 1.767 0.497 3.763 0.092 6.006-0.409 2.243-0.825 3.799-1.229 4.68-0.409 0.886-0.788 1.628-1.152 2.212-5.858 10.608-17.039 23.639-33.562 39.081l-0.697 0.697h-0.179c-7.506 7.188-12.247 12.027-14.233 14.5-3.63 4.711-4.45 9.488-2.457 14.32 1.398 3.656 6.666 11.376 15.8 23.168z" />
<glyph unicode="&#x24;" d="M277.929 267.874v27.422c0 0-3.159 26.076 15.068 26.076h37.053v56.228h-63.079c0 0-52.798 0.225-52.798-52.798 0-11.392-0.056-32.128-0.133-56.929h-36.229v-45.271h36.137c-0.21-71.982-0.461-152.202-0.461-152.202h64.445v152.202h42.522l13.737 45.271h-56.264z" />
<glyph unicode="&#x25;" d="M379.479 313.534c13.68 8.105 24.151 20.962 29.113 36.234-12.805-7.501-26.988-12.954-42.082-15.913-12.058 12.759-29.261 20.705-48.313 20.705-36.567 0-66.217-29.348-66.217-65.526 0-5.13 0.583-10.137 1.71-14.935-55.030 2.734-103.823 28.825-136.478 68.48-5.709-9.666-8.955-20.925-8.955-32.947 0-22.743 11.699-42.803 29.445-54.543-10.855 0.358-21.058 3.318-29.993 8.223v-0.819c0-31.749 22.835-58.24 53.115-64.272-5.545-1.479-11.397-2.294-17.449-2.294-4.275 0-8.412 0.42-12.467 1.198 8.428-26.035 32.88-44.985 61.85-45.527-22.656-17.572-51.215-28.032-82.237-28.032-5.35 0-10.614 0.317-15.795 0.901 29.312-18.611 64.108-29.471 101.504-29.471 121.799 0 188.406 99.87 188.406 186.481l-0.22 8.484c12.99 9.201 24.238 20.741 33.101 33.879-11.884-5.197-24.637-8.735-38.036-10.307z" />
<glyph unicode="&#x26;" d="M254.244 372.48c-43.167 0-78.28-34.381-78.28-76.642s35.113-76.626 78.279-76.626c43.166 0 78.259 34.365 78.259 76.626s-35.093 76.642-78.259 76.642v0zM254.244 327.572c17.869 0 32.394-14.244 32.394-31.739 0-17.49-14.526-31.718-32.394-31.718s-32.415 14.228-32.415 31.718c0 17.495 14.546 31.739 32.415 31.739v0zM189.706 216.601c-7.746 0.118-15.36-3.615-19.779-10.512-6.748-10.506-3.518-24.361 7.184-30.971 14.151-8.694 29.512-14.858 45.44-18.422l-43.745-42.854c-8.955-8.776-8.95-22.983 0.010-31.754 4.49-4.377 10.343-6.569 16.215-6.569 5.863 0 11.74 2.197 16.215 6.579l42.977 42.102 43.013-42.102c8.95-8.771 23.46-8.771 32.42 0s8.96 22.989 0 31.744l-43.76 42.844c15.928 3.558 31.288 9.728 45.44 18.432 10.721 6.61 13.962 20.485 7.209 30.971-6.753 10.506-20.9 13.671-31.632 7.050-32.051-19.733-73.339-19.722-105.38 0-3.676 2.274-7.767 3.399-11.827 3.461v0z" />
<glyph unicode="&#x27;" d="M281.733 179.221c-2.13 0-4.24 0.778-5.868 2.325-3.216 3.103-3.216 8.1 0 11.192l41.052 39.168c15.749 15.042 15.749 39.516 0 54.559-15.749 15.022-41.401 15.022-57.149 0l-72.54-69.253c-3.236-3.092-8.489-3.092-11.725 0s-3.236 8.11 0 11.192l72.53 69.233c22.221 21.218 58.358 21.207 80.589 0.010 22.211-21.218 22.211-55.726 0-76.933l-41.042-39.178c-1.608-1.536-3.728-2.314-5.847-2.314zM222.884 136.438c-10.782 0-21.566 3.922-29.788 11.755-7.966 7.588-12.339 17.705-12.339 28.437 0 10.752 4.362 20.839 12.339 28.437l33.208 31.703c3.236 3.093 8.478 3.093 11.725 0 3.236-3.082 3.236-8.1 0-11.182l-33.219-31.693c-4.823-4.608-7.475-10.731-7.475-17.255s2.652-12.636 7.475-17.255c9.953-9.513 26.184-9.513 36.137 0l33.229 31.714c3.236 3.092 8.489 3.092 11.725 0 3.236-3.082 3.236-8.1 0-11.192l-33.219-31.714c-8.222-7.834-19.006-11.755-29.798-11.755zM244.409 179.958c-2.119 0-4.239 0.778-5.857 2.325-3.236 3.092-3.236 8.1 0 11.192l55.439 52.91c4.711 4.506 4.711 11.817 0 16.322-4.567 4.352-12.534 4.342-17.111 0l-41.749-39.864c-3.226-3.092-8.478-3.092-11.725 0-3.236 3.082-3.236 8.1 0 11.192l41.748 39.864c5.417 5.161 12.615 8.008 20.275 8.008 7.67 0 14.858-2.837 20.265-8.018 11.172-10.66 11.172-28.017 0.010-38.697l-55.44-52.91c-1.607-1.546-3.738-2.325-5.857-2.325z" />
<glyph unicode="&#x28;" d="M497.011 392.589c20.019 20.019 20.019 52.377 0 72.397s-52.377 20.019-72.397 0l-168.601-168.601-168.601 168.601c-20.019 20.019-52.377 20.019-72.397 0s-20.019-52.377 0-72.397l168.601-168.601-168.601-168.601c-20.019-20.019-20.019-52.377 0-72.397 9.984-9.984 23.091-15.001 36.199-15.001s26.215 5.017 36.199 15.002l168.601 168.601 168.601-168.601c9.984-9.984 23.091-15.002 36.199-15.002s26.214 5.017 36.199 15.002c20.019 20.019 20.019 52.377 0 72.397l-168.601 168.601 168.601 168.601z" />
<glyph unicode="&#x29;" d="M319.027-1.485l-305.459 283.648 104.499 112.538 200.96-186.624 282.777 262.656 104.551-112.537z" horiz-adv-x="717" />
<glyph unicode="&#x2a;" d="M256 480c-141.363 0-256-114.637-256-256 0-141.414 114.637-256 256-256 141.414 0 256 114.586 256 256 0 141.363-114.586 256-256 256zM409.6 172.8h-307.2v102.4h307.2v-102.4z" />
<glyph unicode="&#x2b;" d="M36.572 480v-146.286h73.143v73.143h292.572v-365.714h-292.572v73.143h-73.143v-146.286h438.857v512h-438.857zM213.321 77.714l146.285 146.286-146.286 146.286v-112.75h-213.321v-70.108h213.321v-109.714z" horiz-adv-x="476" />
<glyph unicode="&#x2c;" d="M361.392-28.943c-29.339 0-59.687 5.135-90.236 15.283-56.041 18.664-110.173 53.015-156.579 99.359-46.422 46.483-80.772 100.647-99.359 156.625-18.991 57.173-20.232 113.944-3.584 164.135 2.824 8.394 6.144 16.322 9.914 23.723h-0.481l5.632 9.402c5.089 8.44 11.047 16.368 17.703 23.552 5.415 5.818 11.698 10.209 18.712 13.064l1.862 0.651c5.74 2.079 11.885 3.149 18.215 3.149l2.188-0.046c7.944-0.404 15.314-2.358 22.001-5.803l0.636-0.326 1.536-1.055 14.429-12.273 74.038-95.154 1.195-1.691c3.786-5.198 6.578-10.985 8.208-17.098 1.8-6.796 2.219-13.855 1.241-21.007-1.086-7.323-3.445-13.995-7.044-19.922-4.298-6.795-8.844-11.574-14.321-15.484l-35.204-25.647c-1.552-4.624-2.312-12.738 4.825-22.947 14.522-20.822 30.72-40.37 48.19-58.151l3.553-3.538c18.959-18.99 39.719-36.414 61.72-51.774 5.57-3.894 11.125-5.865 16.524-5.865 2.622 0 4.841 0.481 6.486 1.024l18.51 25.414h-0.077l7.214 9.883c3.584 4.872 7.757 8.999 12.459 12.288v0.171l3.026 1.862c5.942 3.522 12.599 5.849 19.813 6.904 3.118 0.419 5.43 0.558 7.726 0.558 4.562 0 9.061-0.589 13.374-1.753 3.165-0.916 6.067-2.002 8.781-3.289v1.629l104.246-80.88 1.722-1.443c5.384-4.67 9.666-10.054 12.784-16.043h0.015c3.522-6.811 5.477-14.197 5.803-21.985 0.186-4.701-0.202-9.293-1.148-13.747h0.807l-3.398-8.518c-2.808-6.951-7.168-13.265-12.986-18.743-7.354-6.749-15.267-12.692-23.599-17.703-11.233-6.532-22-11.373-33.249-15.065-23.351-7.773-48.19-11.729-73.821-11.729v0zM68.9 411.718c-3.724-6.563-6.889-13.685-9.402-21.178-13.234-39.828-11.993-85.613 3.584-132.36 15.888-47.771 46.887-96.303 87.288-136.627 41.037-41.038 88.296-71.23 136.673-87.304 25.352-8.44 50.362-12.723 74.349-12.723 20.248 0 39.781 3.072 58.058 9.139 8.006 2.668 15.438 6.020 22.14 9.961 6.532 4.003 11.652 7.82 15.965 11.9l0.357-0.046 0.295 0.807-0.015 1.971-0.202 0.373-96.303 74.783-0.093-0.667-1.582-0.931-6.392-8.704-0.031 0.062-22.528-30.844c-1.846-2.901-4.701-5.616-8.006-7.618-2.265-1.551-16.012-10.24-36.274-10.24-15.546 0-30.782 5.135-45.257 15.236-24.995 17.439-48.097 36.724-68.654 57.329l-4.065 4.080 0.062 0.062c-19.425 19.89-37.345 41.565-53.31 64.466-28.036 40.168-9.837 73.712-4.825 81.392l-0.139 0.093c1.722 2.933 4.019 5.462 6.826 7.51l38.958 28.377 1.132 0.9 7.23 0.807-6.175 0.729 4.996 4.981-5.384-3.196-73.263 94.332h-0.155l-1.753 0.885-6.159 3.538 4.561-4.204c-4.189-4.562-8.037-9.712-11.434-15.314l-1.070-1.753z" />
<glyph unicode="&#x2d;" d="M85.894 480c-47.356 0-85.894-38.478-85.894-85.762v-228.699c0-47.284 38.538-85.762 85.894-85.762h28.632v-57.175c0-15.151 6.013-29.216 16.95-39.536 10.25-9.719 23.707-15.065 37.793-15.065 11.796 0 23.106 3.802 32.697 10.949 2.519 1.887 4.696 4.174 6.47 6.747l64.364 94.081h185.304c47.356 0 85.894 38.478 85.894 85.762v228.699c0 47.284-38.538 85.762-85.894 85.762h-372.211zM496 157.202c0-15.565-12.902-28.198-28.8-28.198h-217.6c-9.504 0-18.432-4.596-23.789-12.266l-62.611-89.754v73.822c0 15.594-12.874 28.198-28.8 28.198h-57.6c-15.898 0-28.8 12.632-28.8 28.198v246.6c0 15.566 12.903 28.198 28.8 28.198h390.4c15.897 0 28.8-12.632 28.8-28.198v-246.6zM400 368h-256c-18.909 0-32-14.4-32-32s13.091-32 32-32h256c18.909 0 32 14.4 32 32s-13.091 32-32 32zM400 256h-256c-18.909 0-32-14.4-32-32s13.091-32 32-32h256c18.909 0 32 14.4 32 32s-13.091 32-32 32z" horiz-adv-x="544" />
<glyph unicode="&#x2e;" d="M0-1.11v452.324c0 20.651 6.675 28.786 24.88 28.786h593.939c18.223 0 25.923-8.135 25.923-28.786v-452.324c0-20.632-7.699-30.89-25.923-30.89h-593.939c-18.204 0-24.88 10.259-24.88 30.89zM587.852 24.889v352.048l-249.116-189.44c-4.248-4.817-10.411-7.471-16.403-7.471-6.012 0-12.364 2.655-16.592 7.49l-248.851 189.421v-352.048h530.963zM321.82 250.928l232.79 172.183h-465.616l232.827-172.183z" horiz-adv-x="645" />
<glyph unicode="&#x2f;" d="M288 192v-224h-64v224h-224v64h224v224h64v-224h224v-64h-224z" />
<glyph unicode="&#x30;" d="M0 266.667v-85.334h512v85.334h-512zM0 53.334v-85.334h512v85.334h-512zM0 480v-85.334h512v85.334h-512z" />
<glyph unicode="&#x31;" d="M256.016-32.016c-16.384 0-32.768 6.272-45.248 18.752l-192 192c-25.024 25.024-25.024 65.472 0 90.496l192 192c25.024 25.024 65.472 25.024 90.496 0s25.024-65.472 0-90.496l-146.752-146.752 146.752-146.752c25.024-25.024 25.024-65.472 0-90.496-12.48-12.48-28.864-18.752-45.248-18.752z" horiz-adv-x="320" />
<glyph unicode="&#x32;" d="M499.157 201.878c11.812 13.626 17.719 29.736 17.719 48.339 0 16.867-6.129 31.464-18.344 43.8-12.243 12.332-26.739 18.495-43.49 18.495h-89.24c0.858 3.026 1.72 5.623 2.575 7.785s2.045 4.543 3.543 7.139c1.498 2.596 2.575 4.543 3.219 5.837 3.863 7.351 6.821 13.411 8.861 18.165 2.041 4.763 4.073 11.249 6.118 19.467 2.045 8.214 3.060 16.437 3.060 24.656 0 5.188-0.060 9.409-0.162 12.65-0.103 3.245-0.649 8.111-1.61 14.601-0.969 6.487-2.258 11.894-3.868 16.218-1.613 4.325-4.192 9.194-7.731 14.598-3.547 5.411-7.841 9.787-12.891 13.14s-11.491 6.164-19.332 8.433c-7.841 2.269-16.699 3.404-26.585 3.404-5.584 0-10.411-2.054-14.497-6.164-4.295-4.325-7.948-9.731-10.957-16.218-3.005-6.491-5.101-12.113-6.284-16.871s-2.527-11.356-4.026-19.789c-1.938-9.087-3.385-15.625-4.353-19.627s-2.851-9.246-5.639-15.732c-2.796-6.49-6.122-11.679-9.988-15.573-7.086-7.136-17.933-20.112-32.54-38.926-10.526-13.841-21.373-26.925-32.54-39.252-11.171-12.332-19.333-18.71-24.485-19.144-5.366-0.43-9.984-2.648-13.852-6.649s-5.801-8.708-5.801-14.112v-207.951c0-5.623 2.041-10.433 6.121-14.434s8.913-6.112 14.496-6.327c7.517-0.219 24.485-4.974 50.904-14.279 16.537-5.618 29.475-9.895 38.819-12.81 9.34-2.918 22.393-6.056 39.135-9.409 16.759-3.353 32.219-5.033 46.392-5.033h41.56c28.574 0.43 49.721 8.868 63.471 25.3 12.456 14.924 17.716 34.498 15.786 58.72 8.375 8.003 14.18 18.165 17.395 30.493 3.65 13.188 3.65 25.842 0 37.95 9.882 13.192 14.5 28.008 13.852 44.445 0.020 6.928-1.586 15.143-4.813 24.663v0zM117.709 272.413h-95.165c-5.731 0-10.687-2.125-14.873-6.376s-6.279-9.285-6.279-15.101v-214.792c0-5.812 2.093-10.846 6.279-15.101 4.19-4.247 9.146-6.373 14.873-6.373h95.165c5.727 0 10.683 2.125 14.868 6.373 4.185 4.255 6.279 9.288 6.279 15.101v214.792c0 5.816-2.093 10.85-6.279 15.101s-9.142 6.376-14.868 6.376v0zM65.023 71.187c-3.401-3.312-7.428-4.966-12.081-4.966-4.834 0-8.908 1.654-12.217 4.966-3.312 3.312-4.966 7.381-4.966 12.216 0 4.653 1.654 8.683 4.966 12.080 3.309 3.401 7.382 5.104 12.216 5.104 4.654 0 8.681-1.704 12.082-5.104 3.401-3.397 5.102-7.428 5.102-12.080 0-4.834-1.697-8.904-5.102-12.216v0z" horiz-adv-x="529" />
<glyph unicode="&#x33;" d="M135.63 228.83l-104.213 104.213c-30.198 30.197-30.192 79.118-0.015 109.296l6.26 6.26c30.137 30.137 79.11 30.171 109.295-0.015l104.213-104.213 104.213 104.212c30.197 30.198 79.118 30.192 109.296 0.015l6.26-6.26c30.137-30.137 30.171-79.11-0.015-109.296l-104.212-104.213 104.212-104.213c30.197-30.197 30.192-79.118 0.015-109.296l-6.26-6.26c-30.137-30.137-79.11-30.171-109.296 0.015l-104.213 104.212-104.213-104.212c-30.198-30.197-79.118-30.192-109.296-0.015l-6.259 6.26c-30.137 30.137-30.171 79.11 0.015 109.296l104.213 104.213z" />
<glyph unicode="&#x34;" d="M280.973-15.028c-20.108 0-40.256 7.641-55.588 22.904l-193.181 192.061c-30.723 30.525-30.723 80.025 0 110.531 30.663 30.545 80.511 30.545 111.175 0l123.677-122.94c7.685-7.641 20.147-7.641 27.833 0l264.651 263.097c30.663 30.544 80.511 30.544 111.176 0 30.722-30.505 30.722-80.025 0-110.531l-334.155-332.218c-15.332-15.262-35.48-22.904-55.587-22.904z" horiz-adv-x="707" />
<glyph unicode="&#x35;" d="M212.567 227.155l-197.043 197.043c-9.986 9.986-9.991 26.172 0.065 36.228l8.963 8.963c10.022 10.022 26.227 10.066 36.227 0.065l215.254-215.254c4.885-4.885 7.381-11.252 7.48-17.661 7.997-10.512 6.761-25.538-3.21-34.517l-226.224-203.693c-10.495-9.45-26.659-8.607-36.175 1.961l-8.482 9.419c-9.483 10.533-8.68 26.717 1.831 36.181l201.313 181.263z" horiz-adv-x="307" />
<glyph unicode="&#x36;" d="M81.832 227.155l197.043 197.043c9.986 9.986 9.99 26.172-0.065 36.228l-8.962 8.963c-10.022 10.022-26.226 10.066-36.227 0.065l-215.254-215.254c-4.884-4.885-7.381-11.252-7.48-17.661-7.997-10.512-6.761-25.538 3.21-34.517l226.224-203.693c10.495-9.45 26.659-8.607 36.174 1.961l8.481 9.419c9.483 10.533 8.68 26.717-1.831 36.181l-201.314 181.263z" horiz-adv-x="307" />
<glyph unicode="&#x37;" d="M256 384.791l-173.161-173.161h49.475v-148.421h98.949v98.944h49.474v-98.944h98.947v148.421h49.474l-173.159 173.161z" />
<glyph unicode="&#x38;" d="M256-21.76c-135.516 0-245.76 110.244-245.76 245.76s110.244 245.76 245.76 245.76c135.516 0 245.76-110.244 245.76-245.76s-110.244-245.76-245.76-245.76zM256 449.28c-124.211 0-225.28-101.069-225.28-225.28s101.069-225.28 225.28-225.28 225.28 101.069 225.28 225.28-101.069 225.28-225.28 225.28zM245.76 357.12h35.082v-266.24h-35.082v266.24zM133.12 238.602h266.24v-35.082h-266.24v35.082z" />
<glyph unicode="&#x39;" d="M112.394 80.64h287.191v286.72h-287.191v-286.72zM153.354 326.4h205.271v-204.8h-20.951c-2.806 29.86-17.367 81.92-81.92 81.92-64.573 0-78.643-52.060-81.428-81.92h-20.971v204.8zM255.754 224c22.61 0 40.96 18.329 40.96 40.96s-18.35 40.96-40.96 40.96c-22.631 0-40.96-18.329-40.96-40.96s18.329-40.96 40.96-40.96z" />
<glyph unicode="&#x3a;" d="M215.266 70.4c-10.588 0-20.685 3.993-28.406 11.325-8.233 7.803-12.78 18.35-12.78 29.798v18.555h0.082c-45.22 0-82.002 36.782-82.002 82.002v83.517c0 45.22 36.782 82.002 82.002 82.002l163.676-0.082c45.22 0 82.002-36.782 82.002-82.002v-83.517c0-45.22-36.782-82.002-82.002-82.002l-52.183 0.082-44.81-50.647c-7.393-5.918-16.24-9.031-25.579-9.031v0zM174.162 336.64c-22.631 0-41.042-18.411-41.042-41.042v-83.517c0-22.61 18.411-41.042 41.042-41.042h40.878v-59.351l52.101 59.331 70.697-0.062c22.63 0 41.042 18.432 41.042 41.042v83.517c0 22.631-18.391 41.042-41.042 41.042l-163.676 0.082zM215.040 254.72c0-11.305-9.175-20.48-20.48-20.48s-20.48 9.175-20.48 20.48 9.175 20.48 20.48 20.48 20.48-9.175 20.48-20.48zM276.48 254.72c0-11.305-9.175-20.48-20.48-20.48s-20.48 9.175-20.48 20.48 9.175 20.48 20.48 20.48 20.48-9.175 20.48-20.48zM337.92 254.72c0-11.305-9.175-20.48-20.48-20.48s-20.48 9.175-20.48 20.48 9.175 20.48 20.48 20.48 20.48-9.175 20.48-20.48z" />
<glyph unicode="&#x3b;" d="M194.56 367.36v-81.92h40.96v40.96h163.84v-204.8h-163.84v40.96h-40.96v-81.92h245.76v286.72h-245.76zM153.6 142.080l-81.92 81.92 81.92 81.92v-63.14h119.46v-39.26h-119.46v-61.44z" />
<glyph unicode="&#x3c;" d="M250.982 187.795l124.518 124.533c11.483 11.483 29.974 11.601 41.486 0.103 11.425-11.425 11.512-29.872-0.117-41.472l-133.661-133.661c-6.875-6.89-16.281-9.684-25.19-8.339-11.82-7.548-27.648-5.72-37.507 5.237l-126.478 140.478c-10.869 12.069-10.035 30.545 2.063 41.428 12.010 10.81 30.427 9.933 41.413-2.267l113.474-126.040z" />
<glyph unicode="&#x3d;" d="M250.982 260.191l124.518-124.504c11.483-11.483 29.974-11.615 41.486-0.117 11.425 11.425 11.512 29.872-0.117 41.486l-133.676 133.647c-6.875 6.875-16.267 9.684-25.176 8.339-11.82 7.548-27.648 5.705-37.507-5.237l-126.478-140.463c-10.869-12.054-10.020-30.544 2.078-41.428 12.010-10.796 30.427-9.933 41.413 2.282l113.459 125.996z" />
<glyph unicode="&#x3e;" d="M223.481 72.111v-66.253h66.253v66.253h-66.253zM126.186 298.913h50.732c0 13.927 1.595 26.858 4.784 38.795 3.174 11.937 8.25 22.279 15.214 31.042s15.624 15.726 25.965 20.889c10.357 5.179 22.674 7.753 37.011 7.753 21.474 0 38.488-6.159 51.010-18.505 12.522-12.332 19.603-29.447 21.197-51.332 0.805-14.716-0.995-27.253-5.368-37.596-4.374-10.357-10.255-19.807-17.613-28.35-7.358-8.557-15.316-16.72-23.874-24.473s-16.735-16.208-24.459-25.352c-7.753-9.172-14.322-19.603-19.69-31.349s-8.456-25.966-9.245-42.686v-28.058h50.718v23.288c0 10.342 1.507 19.603 4.505 27.736 2.969 8.178 6.963 15.74 11.908 22.689 4.959 6.978 10.562 13.546 16.735 19.719 6.159 6.173 12.435 12.229 18.798 18.198 6.363 6.363 12.61 12.931 18.783 19.69s11.659 14.117 16.413 22.075c4.769 7.958 8.675 16.808 11.63 26.565 2.999 9.757 4.505 20.787 4.505 33.119 0 19.105-3.087 36.015-9.26 50.732-6.188 14.716-14.848 27.15-25.951 37.303-11.147 10.152-24.371 17.906-39.702 23.274-15.316 5.368-32.315 8.060-51.010 8.060-20.7 0-39.394-3.584-56.101-10.738-16.706-7.168-30.837-17.203-42.364-30.149-11.542-12.932-20.392-28.145-26.566-45.656-6.217-17.511-9.085-36.411-8.704-56.685v0z" />
<glyph unicode="&#x3f;" d="M256-32c-141.156 0-256 114.844-256 256s114.844 256 256 256c141.156 0 256-114.844 256-256s-114.844-256-256-256zM256 413.217c-104.337 0-189.218-84.88-189.218-189.217s84.881-189.217 189.218-189.217c104.337 0 189.217 84.88 189.217 189.218s-84.88 189.218-189.218 189.218zM256 134.957c49.175 0 89.043 39.869 89.043 89.043s-39.869 89.043-89.043 89.043-89.043-39.869-89.043-89.043 39.869-89.043 89.043-89.043z" />
<glyph unicode="&#x40;" d="M256-20.87c-135.012 0-244.869 109.858-244.869 244.87s109.858 244.87 244.869 244.87 244.87-109.858 244.87-244.87-109.858-244.87-244.87-244.87zM256 424.348c-110.459 0-200.348-89.889-200.348-200.348 0-110.481 89.889-200.348 200.348-200.348 110.481 0 200.348 89.867 200.348 200.348 0 110.459-89.867 200.348-200.348 200.348z" />
<glyph unicode="&#x41;" d="M478.608 224c0-122.943-99.666-222.608-222.608-222.608s-222.608 99.666-222.608 222.608c0 122.943 99.666 222.608 222.608 222.608s222.608-99.666 222.608-222.608z" />
<glyph unicode="&#x42;" d="M256 444.16c12.37 0 24.11-2.099 32.2-5.75 0.327-0.138 32.911-14.909 68.47-35.85 35.548-20.941 64.379-42.343 64.661-42.553 15.278-11.382 30.469-38.262 32.502-57.498 0.041-0.358 3.799-36.582 3.799-78.505 0-41.938-3.758-78.151-3.799-78.5-2.027-19.251-17.219-46.131-32.502-57.508-0.281-0.21-29.010-21.56-64.671-42.567-35.548-20.93-68.132-35.702-68.45-35.84-8.105-3.651-19.84-5.75-32.21-5.75s-24.11 2.099-32.2 5.74c-0.317 0.149-32.798 14.858-68.45 35.85-35.559 20.951-64.4 42.358-64.681 42.567-15.278 11.392-30.459 38.262-32.492 57.508-0.041 0.358-3.799 36.439-3.799 78.5 0 41.923 3.758 78.131 3.799 78.505 2.028 19.241 17.209 46.111 32.492 57.498 0.292 0.21 29.112 21.611 64.67 42.553s68.137 35.712 68.454 35.85c8.1 3.65 19.84 5.75 32.205 5.75zM256 464.64c-14.72 0-29.45-2.519-40.622-7.562 0 0-33.398-15.058-70.43-36.869s-66.509-43.781-66.509-43.781c-19.733-14.7-38.016-47.001-40.633-71.783 0 0-3.911-37.028-3.911-80.64 0-43.623 3.912-80.65 3.912-80.65 2.617-24.791 20.9-57.078 40.622-71.783 0 0 29.491-21.98 66.519-43.801 37.028-21.791 70.43-36.859 70.43-36.859 11.172-5.033 25.902-7.552 40.622-7.552 14.73 0 29.461 2.519 40.632 7.562 0 0 33.387 15.068 70.421 36.859 37.028 21.822 66.519 43.801 66.519 43.801 19.733 14.7 38.011 46.991 40.632 71.783 0 0 3.911 37.028 3.911 80.65 0 43.612-3.911 80.64-3.911 80.64-2.622 24.781-20.9 57.078-40.632 71.782 0 0-29.491 21.97-66.509 43.781-37.038 21.811-70.43 36.869-70.43 36.869-11.177 5.033-25.907 7.552-40.632 7.552v0zM315.807 98.55h-107.847c-7.531 0-13.68 6.19-13.906 13.89l-15.345 232.258c-0.016 0.226-0.020 0.451-0.020 0.676 0 7.895 6.242 14.32 13.911 14.32h138.568c7.675 0 13.921-6.425 13.921-14.32 0-0.226-0.005-0.451-0.021-0.676l-15.344-232.263c-0.226-7.695-6.38-13.885-13.916-13.885zM214.144 119.030h95.488l14.546 220.18h-124.58l14.546-220.18zM262.329 267.038c-16.476 0-29.881 13.409-29.881 29.89 0 16.476 13.404 29.881 29.881 29.881 16.481 0 29.89-13.404 29.89-29.881 0-16.481-13.409-29.89-29.89-29.89zM262.329 306.329c-5.181 0-9.4-4.219-9.4-9.401 0-5.186 4.219-9.41 9.4-9.41 5.192 0 9.411 4.224 9.411 9.41 0 5.182-4.219 9.401-9.411 9.401zM262.329 199.24c-16.476 0-29.881 13.404-29.881 29.881 0 16.482 13.404 29.891 29.881 29.891 16.481 0 29.89-13.41 29.89-29.891 0-16.476-13.409-29.881-29.89-29.881zM262.329 238.53c-5.181 0-9.4-4.224-9.4-9.411s4.219-9.4 9.4-9.4c5.192 0 9.411 4.219 9.411 9.4 0 5.186-4.219 9.411-9.411 9.411zM262.329 130.207c-16.476 0-29.881 13.404-29.881 29.88 0 16.481 13.404 29.89 29.881 29.89 16.481 0 29.89-13.409 29.89-29.89 0-16.476-13.409-29.88-29.89-29.88zM262.329 169.498c-5.181 0-9.4-4.219-9.4-9.411 0-5.187 4.219-9.401 9.4-9.401 5.192 0 9.411 4.214 9.411 9.401 0 5.192-4.219 9.411-9.411 9.411z" />
<glyph unicode="&#x43;" d="M256.005 444.16c12.37 0 24.105-2.089 32.2-5.739 0.327-0.149 32.798-14.858 68.459-35.861 35.548-20.941 64.389-42.343 64.671-42.553 15.278-11.382 30.459-38.262 32.502-57.498 0.031-0.358 3.789-36.582 3.789-78.5 0-41.938-3.758-78.142-3.789-78.5-2.033-19.251-17.219-46.121-32.502-57.508-0.292-0.21-29.020-21.56-64.671-42.563-35.548-20.921-68.142-35.707-68.45-35.84-8.1-3.661-19.84-5.76-32.21-5.76s-24.11 2.099-32.2 5.75c-0.322 0.138-32.798 14.848-68.459 35.84-35.553 20.951-64.384 42.358-64.676 42.578-15.278 11.382-30.459 38.252-32.492 57.493-0.036 0.358-3.799 36.567-3.799 78.5 0 41.923 3.763 78.131 3.799 78.5 2.028 19.251 17.213 46.121 32.502 57.498 0.287 0.21 29.112 21.611 64.666 42.553s68.137 35.717 68.459 35.865c8.095 3.656 19.83 5.745 32.2 5.745zM256.005 464.64c-14.725 0-29.45-2.519-40.627-7.562 0 0-33.392-15.058-70.43-36.869-37.028-21.811-66.509-43.781-66.509-43.781-19.733-14.7-38.011-47.001-40.627-71.783 0 0-3.917-37.028-3.917-80.64 0-43.627 3.917-80.65 3.917-80.65 2.617-24.791 20.895-57.072 40.622-71.788 0 0 29.486-21.98 66.514-43.801 37.033-21.791 70.43-36.859 70.43-36.859 11.182-5.028 25.907-7.547 40.627-7.547 14.725 0 29.456 2.519 40.632 7.562 0 0 33.387 15.068 70.421 36.859 37.022 21.822 66.519 43.801 66.519 43.801 19.722 14.7 38 46.996 40.622 71.788 0 0 3.911 37.022 3.911 80.65 0 43.612-3.911 80.64-3.911 80.64-2.622 24.781-20.9 57.078-40.622 71.782 0 0-29.497 21.97-66.509 43.781-37.038 21.811-70.43 36.869-70.43 36.869-11.172 5.028-25.902 7.547-40.632 7.547v0zM343.803 296.243l-43.53 41.81c-3.799 3.655-8.889 5.709-14.183 5.709h-100.685c-11.31 0-20.48-9.17-20.48-20.48v-189.44c0-11.31 9.17-20.48 20.48-20.48h144.215c11.31 0 20.48 9.17 20.48 20.48v147.63c0 5.571-2.263 10.911-6.298 14.771zM347.085 260.992h-17.459v-127.15h-144.22v189.44h81.070v18.32h20.48v-19.144l42.67-40.986h17.459v-20.48zM293.386 281.472c-3.548 0-6.43 2.883-6.43 6.421v53.709h-20.48v-53.709c0-14.833 12.068-26.901 26.911-26.901h53.699v20.48h-53.699zM277.586 243.113l-58.517-58.522c-3.999-3.998-3.999-10.481 0-14.479 2.002-2.002 4.618-3 7.239-3 2.617 0 5.243 0.998 7.239 3l58.517 58.522c3.998 3.999 3.998 10.481 0 14.48s-10.481 3.999-14.479 0zM298.844 180.281c0-7.273-5.896-13.168-13.168-13.168s-13.168 5.896-13.168 13.168c0 7.273 5.896 13.168 13.168 13.168s13.168-5.896 13.168-13.168zM242.524 235.008c0-7.273-5.896-13.169-13.168-13.169s-13.168 5.896-13.168 13.168c0 7.273 5.896 13.168 13.168 13.168s13.168-5.896 13.168-13.168z" />
<glyph unicode="&#x44;" d="M253.716 442.158c12.37 0 24.1-2.089 32.2-5.74 0.317-0.149 32.911-14.919 68.459-35.861 35.558-20.941 64.389-42.342 64.671-42.553 15.278-11.382 30.459-38.262 32.502-57.498 0.031-0.358 3.789-36.583 3.789-78.5 0-41.938-3.758-78.142-3.789-78.5-2.038-19.251-17.219-46.121-32.502-57.508-0.281-0.21-29.010-21.56-64.671-42.567-35.548-20.921-68.142-35.702-68.459-35.84-8.089-3.651-19.83-5.75-32.2-5.75s-24.11 2.099-32.2 5.74c-0.317 0.149-32.901 14.93-68.459 35.85-35.559 20.951-64.379 42.358-64.671 42.578-15.278 11.382-30.459 38.252-32.492 57.498-0.041 0.358-3.809 36.572-3.809 78.5 0 41.923 3.769 78.131 3.809 78.5 2.028 19.251 17.209 46.121 32.492 57.498 0.292 0.21 29.112 21.611 64.661 42.553 35.569 20.941 68.142 35.712 68.459 35.85 8.1 3.661 19.84 5.75 32.21 5.75zM253.716 462.638c-14.73 0-29.45-2.519-40.632-7.562 0 0-33.387-15.058-70.43-36.869-37.028-21.811-66.499-43.781-66.499-43.781-19.737-14.7-38.021-47.002-40.633-71.782 0 0-3.922-37.028-3.922-80.64 0-43.623 3.922-80.65 3.922-80.65 2.611-24.791 20.89-57.078 40.622-71.783 0 0 29.481-21.98 66.509-43.801 37.038-21.791 70.43-36.859 70.43-36.859 11.182-5.038 25.902-7.562 40.632-7.562s29.45 2.519 40.622 7.562c0 0 33.398 15.068 70.43 36.859 37.028 21.822 66.519 43.801 66.519 43.801 19.722 14.7 38 46.991 40.622 71.783 0 0 3.911 37.028 3.911 80.65 0 43.612-3.911 80.64-3.911 80.64-2.622 24.781-20.9 57.078-40.622 71.783 0 0-29.491 21.97-66.519 43.781s-70.436 36.874-70.436 36.874c-11.166 5.038-25.887 7.557-40.617 7.557v0zM253.716 125.189c-5.653 0-10.24 4.587-10.24 10.24v217.6c0 5.653 4.588 10.24 10.24 10.24s10.24-4.587 10.24-10.24v-217.6c0-5.652-4.587-10.24-10.24-10.24zM326.113 125.189h-144.798c-5.653 0-10.24 4.587-10.24 10.24s4.588 10.24 10.24 10.24h144.798c5.652 0 10.24-4.587 10.24-10.24s-4.582-10.24-10.24-10.24zM145.987 280.074c-4.004 0-7.808 2.365-9.452 6.292-2.181 5.218 0.276 11.213 5.494 13.399 85.596 35.81 137.784 35.815 223.375 0 5.217-2.186 7.675-8.182 5.488-13.399-2.176-5.217-8.156-7.68-13.399-5.494-80.492 33.685-127.053 33.685-207.56 0-1.29-0.548-2.626-0.798-3.947-0.798zM172.365 262.328l27.761-56.95c0 0-8.56-9.498-28.16-9.498-18.601 0-27.362 9.498-27.362 9.498l27.761 56.95zM172.365 282.808c-7.828 0-14.981-4.459-18.411-11.5l-27.761-56.96c-3.692-7.577-2.361-16.65 3.358-22.851 2.468-2.688 16.169-16.103 42.409-16.103 27.321 0 40.919 13.548 43.371 16.261 5.601 6.211 6.861 15.181 3.2 22.692l-27.756 56.96c-3.43 7.040-10.583 11.5-18.411 11.5v0zM336.205 262.328l27.76-56.95c0 0-8.56-9.498-28.16-9.498-18.601 0-27.361 9.498-27.361 9.498l27.76 56.95zM336.205 282.808c-7.829 0-14.981-4.459-18.411-11.5l-27.76-56.96c-3.692-7.577-2.361-16.65 3.358-22.851 2.468-2.688 16.169-16.103 42.409-16.103 27.32 0 40.919 13.548 43.372 16.261 5.601 6.211 6.861 15.181 3.2 22.692l-27.755 56.96c-3.43 7.040-10.583 11.5-18.411 11.5v0z" />
<glyph unicode="&#x45;" d="M474.112 304.896c-2.56 24.576-20.992 56.832-40.448 71.68 0 0-29.696 22.016-66.56 43.52-36.864 22.016-70.656 36.864-70.656 36.864-10.752 5.12-25.6 7.68-40.448 7.68s-29.696-2.56-40.448-7.68c0 0-33.28-14.848-70.656-36.864-36.864-22.016-66.56-43.52-66.56-43.52-19.968-14.848-37.888-47.104-40.448-71.68 0 0-4.096-36.864-4.096-80.896 0-43.52 4.096-80.896 4.096-80.896 2.56-24.576 20.992-56.832 40.448-71.68 0 0 29.696-22.016 66.56-44.032s70.656-36.864 70.656-36.864c11.264-5.12 26.112-7.68 40.448-7.68s29.696 2.56 40.448 7.68c0 0 33.28 14.848 70.656 36.864 36.864 22.016 66.56 44.032 66.56 44.032 19.968 14.848 37.888 47.104 40.448 71.68 0 0 4.096 36.864 4.096 80.896 0 43.52-4.096 80.896-4.096 80.896zM453.632 145.664c-2.048-19.456-17.408-46.080-32.256-57.344-0.512 0-29.184-21.504-64.512-42.496s-68.096-35.84-68.608-35.84c-8.192-4.096-19.968-6.144-32.256-6.144s-24.064 2.048-32.256 5.632c-0.512 0-32.768 14.848-68.608 35.84-35.328 20.992-64.512 42.496-64.512 42.496-15.36 11.264-30.208 38.4-32.256 57.344 0 0.512-3.584 36.352-3.584 78.336s3.584 78.336 3.584 78.336c2.048 19.456 17.408 46.080 32.256 57.344 0.512 0 29.184 21.504 64.512 42.496s68.096 35.84 68.608 35.84c8.192 4.608 19.968 6.656 32.256 6.656s24.064-2.048 32.256-5.632c0.512 0 32.768-14.848 68.608-35.84 35.328-20.992 64.512-42.496 64.512-42.496 15.36-11.264 30.208-38.4 32.256-57.344 0-0.512 3.584-36.352 3.584-78.336s-3.584-78.848-3.584-78.848zM397.312 266.496l-134.144 108.544c-3.584 3.072-9.216 3.072-12.8 0l-133.12-108.544c-4.608-3.584-5.12-10.24-1.536-14.336 3.584-4.608 10.24-5.12 14.336-1.536l9.728 8.192v-125.952c0-19.968 15.872-35.84 35.84-35.84h161.28c19.968 0 35.84 15.872 35.84 35.84v126.464l11.264-9.216c2.048-1.536 4.096-2.048 6.656-2.048 3.072 0 6.144 1.536 8.192 3.584 3.072 4.608 2.56 11.264-1.536 14.848zM352.768 132.864c0-8.704-6.656-15.36-15.36-15.36h-161.28c-8.704 0-15.36 6.656-15.36 15.36v140.8l96.256 80.384 96.256-80.384v-140.8zM211.968 250.624c0-13.312 5.12-25.088 13.824-33.28-15.872-6.656-29.184-18.432-36.352-33.792-3.072-6.656-2.56-14.336 1.024-20.48 2.048-3.072 6.144-9.728 27.136-16.384 7.168-2.56 22.016-6.144 37.888-6.144h0.512c20.992 0 56.832 8.704 66.048 24.064 4.096 6.656 4.096 14.336 1.024 20.992-7.68 14.848-20.48 26.112-36.352 32.768 8.192 8.192 13.824 19.968 13.824 33.28 0 25.6-19.968 46.080-44.544 46.080s-44.032-22.016-44.032-47.104zM305.664 175.36c1.536-3.072-23.552-14.848-48.64-14.848 0 0-0.512 0-0.512 0-24.576 0-49.152 11.264-48.128 14.336 8.192 16.896 27.136 28.672 49.152 28.672 20.992-0.512 39.424-11.776 48.128-28.16zM256.512 276.224c13.312 0 24.064-11.264 24.064-25.6s-10.752-25.6-24.064-25.6c-13.312 0-24.064 11.264-24.064 25.6 0 13.824 10.752 25.6 24.064 25.6z" />
<glyph unicode="&#x46;" d="M474.112 304.896c-2.56 24.576-20.992 56.832-40.448 71.68 0 0-29.696 22.016-66.56 43.52-36.864 22.016-70.656 36.864-70.656 36.864-10.752 5.12-25.6 7.68-40.448 7.68s-29.696-2.56-40.448-7.68c0 0-33.28-14.848-70.656-36.864-36.864-22.016-66.56-43.52-66.56-43.52-19.968-14.848-37.888-47.104-40.448-71.68 0 0-4.096-36.864-4.096-80.896 0-43.52 4.096-80.896 4.096-80.896 2.56-24.576 20.992-56.832 40.448-71.68 0 0 29.696-22.016 66.56-44.032s70.656-36.864 70.656-36.864c11.264-5.12 26.112-7.68 40.448-7.68 14.848 0 29.696 2.56 40.448 7.68 0 0 33.28 14.848 70.656 36.864 36.864 22.016 66.56 44.032 66.56 44.032 19.968 14.848 37.888 47.104 40.448 71.68 0 0 4.096 36.864 4.096 80.896 0 43.52-4.096 80.896-4.096 80.896zM453.632 145.664c-2.048-19.456-17.408-46.080-32.256-57.344-0.512 0-29.184-21.504-64.512-42.496s-68.096-35.84-68.608-35.84c-8.192-4.096-19.968-6.144-32.256-6.144s-24.064 2.048-32.256 5.632c-0.512 0-32.768 14.848-68.608 35.84-35.328 20.992-64.512 42.496-64.512 42.496-15.36 11.264-30.208 38.4-32.256 57.344 0 0.512-3.584 36.352-3.584 78.336s3.584 78.336 3.584 78.336c2.048 19.456 17.408 46.080 32.256 57.344 0.512 0 29.184 21.504 64.512 42.496s68.096 35.84 68.608 35.84c8.192 4.608 19.968 6.656 32.256 6.656s24.064-2.048 32.256-5.632c0.512 0 32.768-14.848 68.608-35.84 35.328-20.992 64.512-42.496 64.512-42.496 15.36-11.264 30.208-38.4 32.256-57.344 0-0.512 3.584-36.352 3.584-78.336s-3.584-78.848-3.584-78.848zM339.456 354.048c0 0 0 0.512 0 0.512v20.48c0 7.168-3.072 13.824-8.192 17.92s-12.288 5.12-19.456 3.072l-148.992-41.984c-3.072-1.024-5.12-3.072-6.656-5.632-3.584-3.584-6.144-8.704-6.144-14.848v-230.4c0-11.264 9.216-20.48 20.48-20.48h163.84c11.264 0 20.48 9.216 20.48 20.48v230.4c0 10.24-6.656 18.432-15.36 20.48zM317.44 376.576c1.024 0 1.536 0 1.536 0s0.512-0.512 0.512-1.536v-20.48h-79.872l77.824 22.016zM334.336 103.68h-163.84v230.4h163.84v-230.4zM211.456 308.48h-20.48v-81.92c0-17.408 9.216-35.84 35.84-35.84h6.656l18.432-18.432 18.432 18.432h6.656c20.992 0 35.84 14.848 35.84 35.84v81.92h-101.376zM293.376 226.56c0-10.24-6.656-15.36-15.36-15.36h-15.36l-10.24-10.24-10.24 10.24h-15.36c-5.12 0-15.36 0-15.36 15.36v61.44h81.92v-61.44zM303.616 154.88h-102.4c-5.632 0-10.24-4.608-10.24-10.24s4.608-10.24 10.24-10.24h102.4c5.632 0 10.24 4.608 10.24 10.24s-4.608 10.24-10.24 10.24z" />
<glyph unicode="&#x47;" d="M474.112 304.896c-2.56 24.576-20.992 56.832-40.448 71.68 0 0-29.696 22.016-66.56 43.52-36.864 22.016-70.656 36.864-70.656 36.864-10.752 5.12-25.6 7.68-40.448 7.68s-29.696-2.56-40.448-7.68c0 0-33.28-14.848-70.656-36.864-36.864-22.016-66.56-43.52-66.56-43.52-19.968-14.848-37.888-47.104-40.448-71.68 0 0-4.096-36.864-4.096-80.896 0-43.52 4.096-80.896 4.096-80.896 2.56-24.576 20.992-56.832 40.448-71.68 0 0 29.696-22.016 66.56-44.032s70.656-36.864 70.656-36.864c11.264-5.12 26.112-7.68 40.448-7.68 14.848 0 29.696 2.56 40.448 7.68 0 0 33.28 14.848 70.656 36.864 36.864 22.016 66.56 44.032 66.56 44.032 19.968 14.848 37.888 47.104 40.448 71.68 0 0 4.096 36.864 4.096 80.896 0 43.52-4.096 80.896-4.096 80.896zM453.632 145.664c-2.048-19.456-17.408-46.080-32.256-57.344-0.512 0-29.184-21.504-64.512-42.496s-68.096-35.84-68.608-35.84c-8.192-4.096-19.968-6.144-32.256-6.144s-24.064 2.048-32.256 5.632c-0.512 0-32.768 14.848-68.608 35.84-35.328 20.992-64.512 42.496-64.512 42.496-15.36 11.264-30.208 38.4-32.256 57.344 0 0.512-3.584 36.352-3.584 78.336s3.584 78.336 3.584 78.336c2.048 19.456 17.408 46.080 32.256 57.344 0.512 0 29.184 21.504 64.512 42.496s68.096 35.84 68.608 35.84c8.192 4.608 19.968 6.656 32.256 6.656s24.064-2.048 32.256-5.632c0.512 0 32.768-14.848 68.608-35.84 35.328-20.992 64.512-42.496 64.512-42.496 15.36-11.264 30.208-38.4 32.256-57.344 0-0.512 3.584-36.352 3.584-78.336s-3.584-78.848-3.584-78.848zM278.528 217.344c8.192 8.192 13.824 19.968 13.824 33.28 0 25.6-19.968 46.080-44.544 46.080s-44.544-20.48-44.544-46.080c0-13.312 5.12-25.088 13.824-33.28-15.872-6.656-29.184-18.432-36.352-33.792-3.072-6.656-2.56-14.336 1.024-20.48 2.048-3.072 6.144-9.728 27.136-16.384 7.168-2.56 22.016-6.144 37.888-6.144h0.512c20.992 0 56.832 8.704 66.048 24.064 4.096 6.656 4.096 14.336 1.024 20.992-7.168 13.824-19.968 25.088-35.84 31.744zM247.808 275.712c13.312 0 24.064-11.264 24.064-25.6s-10.752-25.6-24.064-25.6c-13.312 0-24.064 11.264-24.064 25.6s10.752 25.6 24.064 25.6zM247.808 160c0 0-0.512 0 0 0-25.088 0-49.664 11.264-48.64 14.336 8.192 16.896 27.136 28.672 49.152 28.672 21.504 0 40.448-11.264 48.64-27.648 1.024-3.072-23.552-14.848-49.152-15.36zM335.872 348.928c0 0 0 0.512 0 0.512v20.48c0 7.168-3.072 13.824-8.192 17.92s-12.288 5.12-19.456 3.072l-148.992-41.984c-3.072-1.024-5.12-3.072-6.656-5.632-3.584-3.584-6.144-8.704-6.144-14.848v-230.4c0-11.264 9.216-20.48 20.48-20.48h163.84c11.264 0 20.48 9.216 20.48 20.48v230.4c0 10.24-6.656 18.432-15.36 20.48zM313.856 371.456c1.024 0 1.536 0 1.536 0s0.512-0.512 0.512-1.536v-20.48h-79.872l77.824 22.016zM330.752 98.56h-163.84v230.4h163.84v-230.4z" />
<glyph unicode="&#x48;" d="M221.252 250.214v-153.617c0-19.183 15.599-34.731 34.748-34.731 19.183 0 34.748 15.497 34.748 34.731v153.617c0 19.174-15.599 34.722-34.748 34.722-19.183 0.008-34.748-15.505-34.748-34.722zM221.867 352c0-18.85 15.326-34.134 34.142-34.134 18.841 0 34.125 15.317 34.125 34.134 0 18.85-15.317 34.134-34.125 34.134-18.858 0-34.142-15.317-34.142-34.134z" />
<glyph unicode="&#x49;" d="M16.054-30.123l-9.807 5.78 144.373 245.237-150.926 256.353 9.807 5.78 154.317-262.132z" horiz-adv-x="171" />
<glyph unicode="&#x4a;" d="M495.007 353.292c-9.533 9.533-32.671 1.804-51.712-17.238l-189.635-189.635c-0.853-0.853-1.56-1.731-2.365-2.609l-176.615 196.145c-18.017 20.017-40.74 28.94-50.761 19.943-9.996-9.021-3.511-32.524 14.507-52.565l179.444-199.29c18.018-20.017 36.084-26.77 46.105-17.774 2.999 2.707 6.486 4.584 12.58 10.679 7.241 7.997 7.070 6.51 11.581 10.996l189.611 189.635c19.066 19.041 26.77 42.203 17.262 51.712z" />
<glyph unicode="&#x4b;" d="M23.308 96.488c9.533-9.533 32.67-1.804 51.712 17.238l189.635 189.611c0.853 0.853 1.56 1.731 2.365 2.609l176.615-196.145c18.042-20.017 40.765-28.964 50.761-19.944s3.535 32.548-14.531 52.565l-179.419 199.29c-18.042 20.017-36.108 26.77-46.129 17.773-2.999-2.707-6.486-4.584-12.581-10.679-7.241-7.997-7.071-6.486-11.581-10.996l-189.611-189.611c-19.041-19.066-26.77-42.204-17.238-51.712z" />
<glyph unicode="&#x4c;" d="M212.557 223.224l-203.247 203.247 43.443 43.443 203.247-204.8 203.247 203.247 43.443-43.443-203.247-201.694 203.247-203.247-43.443-43.443-203.247 203.247-203.247-203.247-43.443 43.443 203.247 203.247z" />
<glyph unicode="&#x4d;" d="M228.039 86.272l-133.319 110.336 54.386 65.735 71.395-59.079 146.233 156.587 62.35-58.226z" />
<glyph unicode="&#x4e;" d="M256-3.555c-125.469 0-227.555 102.087-227.555 227.555s102.087 227.555 227.555 227.555 227.555-102.087 227.555-227.555-102.087-227.555-227.555-227.555zM256 394.666c-94.123 0-170.667-76.544-170.667-170.666s76.544-170.667 170.667-170.667 170.667 76.544 170.667 170.667-76.544 170.667-170.667 170.667zM321.479 127.602c-6.855 0-13.738 2.474-19.228 7.481l-74.126 67.954c-5.888 5.376-9.216 12.999-9.216 20.964v95.232c0 15.702 12.743 28.445 28.445 28.445s28.444-12.743 28.444-28.445v-82.716l64.882-59.477c11.577-10.61 12.373-28.615 1.764-40.192-5.603-6.115-13.284-9.245-20.964-9.245z" />
<glyph unicode="&#x4f;" d="M474.112 304.896c-2.56 24.576-20.992 56.832-40.448 71.68 0 0-29.696 22.016-66.56 43.52-36.864 22.016-70.656 36.864-70.656 36.864-10.752 5.12-25.6 7.68-40.448 7.68s-29.696-2.56-40.448-7.68c0 0-33.28-14.848-70.656-36.864-36.864-22.016-66.56-43.52-66.56-43.52-19.968-14.848-37.888-47.104-40.448-71.68 0 0-4.096-36.864-4.096-80.896 0-43.52 4.096-80.896 4.096-80.896 2.56-24.576 20.992-56.832 40.448-71.68 0 0 29.696-22.016 66.56-44.032s70.656-36.864 70.656-36.864c11.264-5.12 26.112-7.68 40.448-7.68s29.696 2.56 40.448 7.68c0 0 33.28 14.848 70.656 36.864 36.864 22.016 66.56 44.032 66.56 44.032 19.968 14.848 37.888 47.104 40.448 71.68 0 0 4.096 36.864 4.096 80.896 0 43.52-4.096 80.896-4.096 80.896zM453.632 145.664c-2.048-19.456-17.408-46.080-32.256-57.344-0.512 0-29.184-21.504-64.512-42.496s-68.096-35.84-68.608-35.84c-8.192-4.096-19.968-6.144-32.256-6.144s-24.064 2.048-32.256 5.632c-0.512 0-32.768 14.848-68.608 35.84-35.328 20.992-64.512 42.496-64.512 42.496-15.36 11.264-30.208 38.4-32.256 57.344 0 0.512-3.584 36.352-3.584 78.336s3.584 78.336 3.584 78.336c2.048 19.456 17.408 46.080 32.256 57.344 0.512 0 29.184 21.504 64.512 42.496s68.096 35.84 68.608 35.84c8.192 4.608 19.968 6.656 32.256 6.656s24.064-2.048 32.256-5.632c0.512 0 32.768-14.848 68.608-35.84 35.328-20.992 64.512-42.496 64.512-42.496 15.36-11.264 30.208-38.4 32.256-57.344 0-0.512 3.584-36.352 3.584-78.336s-3.584-78.848-3.584-78.848zM397.312 266.496l-134.144 108.544c-3.584 3.072-9.216 3.072-12.8 0l-133.12-108.544c-4.608-3.584-5.12-10.24-1.536-14.336 3.584-4.608 10.24-5.12 14.336-1.536l9.728 8.192v-125.952c0-19.968 15.872-35.84 35.84-35.84h161.28c19.968 0 35.84 15.872 35.84 35.84v126.464l11.264-9.216c2.048-1.536 4.096-2.048 6.656-2.048 3.072 0 6.144 1.536 8.192 3.584 3.072 4.608 2.56 11.264-1.536 14.848zM352.768 132.864c0-8.704-6.656-15.36-15.36-15.36h-161.28c-8.704 0-15.36 6.656-15.36 15.36v140.8l96.256 80.384 96.256-80.384v-140.8zM211.968 250.624c0-13.312 5.12-25.088 13.824-33.28-15.872-6.656-29.184-18.432-36.352-33.792-3.072-6.656-2.56-14.336 1.024-20.48 2.048-3.072 6.144-9.728 27.136-16.384 7.168-2.56 22.016-6.144 37.888-6.144h0.512c20.992 0 56.832 8.704 66.048 24.064 4.096 6.656 4.096 14.336 1.024 20.992-7.68 14.848-20.48 26.112-36.352 32.768 8.192 8.192 13.824 19.968 13.824 33.28 0 25.6-19.968 46.080-44.544 46.080s-44.032-22.016-44.032-47.104zM305.664 175.36c1.536-3.072-23.552-14.848-48.64-14.848 0 0-0.512 0-0.512 0-24.576 0-49.152 11.264-48.128 14.336 8.192 16.896 27.136 28.672 49.152 28.672 20.992-0.512 39.424-11.776 48.128-28.16zM256.512 276.224c13.312 0 24.064-11.264 24.064-25.6s-10.752-25.6-24.064-25.6c-13.312 0-24.064 11.264-24.064 25.6 0 13.824 10.752 25.6 24.064 25.6z" />
<glyph unicode="&#x50;" d="M467.2 55.466l-121.6 121.6c19.2 27.733 29.866 59.733 29.866 93.866 0 91.734-74.666 164.267-164.267 164.267-91.734 0-164.267-74.667-164.267-164.267 0-91.733 74.666-164.266 164.267-164.266 34.133 0 68.267 10.666 93.867 29.866v0l121.6-121.6c2.134-2.134 6.4-2.134 8.534 0l32 32c2.134 2.134 2.134 6.4 0 8.534zM209.066 145.067c-70.4 0-125.867 55.466-125.867 125.866s55.466 125.867 125.867 125.867c70.4 0 125.867-55.466 125.867-125.867 0-68.266-55.466-125.866-125.867-125.866z" />
<glyph unicode="&#x51;" d="M217.6 10.666c-2.133 0-2.133 0 0 0-57.6 2.134-110.933 25.6-149.333 68.267s-59.733 96-57.6 153.6c2.133 57.6 25.6 108.8 68.266 149.333 42.666 38.4 96 59.733 153.6 57.6s110.934-27.734 149.333-70.4c34.134-38.4 53.334-85.334 55.466-138.667l44.8 66.133c4.267 4.267 10.666 6.4 14.933 2.133s6.4-10.666 2.134-14.933l-64-96c-2.134-2.134-4.267-4.267-8.534-4.267 0 0 0 0 0 0v0c0 0 0 0 0 0-4.267 0-6.4 2.134-8.534 4.267l-74.666 83.2c-4.267 4.267-4.267 10.666 0 14.934s10.666 4.266 14.933 0l55.466-64c-2.134 51.2-19.2 98.134-51.2 132.267-34.133 38.4-83.2 61.867-134.4 61.867-51.2 2.133-100.266-17.067-138.667-51.2s-59.733-83.2-61.867-134.4c-2.134-51.2 17.067-100.267 51.2-138.667s83.2-59.733 134.4-61.866c6.4 0 10.666-4.267 10.666-10.666 2.133-4.267-2.133-8.534-6.4-8.534z" />
<glyph unicode="&#x52;" d="M294.4 10.666c-6.4 0-10.666 4.267-10.666 10.666s4.267 10.666 10.666 10.666c51.2 2.134 98.134 23.466 134.4 61.867 34.134 38.4 53.334 87.466 51.2 138.667-4.267 106.667-93.867 187.733-198.4 185.6-53.334-2.133-100.267-23.466-134.4-61.867-32-36.266-49.066-81.066-51.2-132.266l55.467 64c4.267 4.267 10.667 4.267 14.934 0s4.267-10.666 0-14.933l-74.666-83.2c-2.133-2.134-4.266-4.267-8.534-4.267 0 0 0 0 0 0s0 0 0 0c-4.266 0-6.4 2.134-8.534 4.267l-64 96c-4.266 4.267-2.133 10.666 2.133 14.933 8.534 0 14.934-2.133 17.067-6.4l44.8-66.133c2.133 53.333 21.334 102.4 55.467 138.667 38.4 42.666 91.733 68.267 149.333 70.4 117.334 4.267 217.6-87.466 221.866-204.8 2.134-57.6-17.067-110.934-57.6-153.6s-91.733-66.134-149.333-68.267c2.134 0 2.134 0 0 0z" />
<glyph unicode="&#x53;" d="M460.8 439.466c-4.267 4.267-10.666 4.267-14.933 0l-66.133-70.4h-202.667v32c0 6.4-4.267 10.666-10.667 10.666h-64c-6.4 0-10.666-6.4-10.666-10.666v-32h-34.133c-6.4 0-10.666-4.267-10.666-10.667v-64c0-6.4 4.267-10.666 10.666-10.666h32v-224c0-6.4 4.266-10.666 10.666-10.666h224v-32c0-6.4 4.267-10.666 10.666-10.666h64c6.4 0 10.666 4.267 10.666 10.666v32h32c6.4 0 10.666 4.267 10.666 10.666v64c0 6.4-4.267 10.666-10.666 10.666h-32v224c0 4.267-2.134 6.4-4.267 8.534l55.466 59.733c4.267 2.134 4.267 8.534 0 12.8zM113.067 390.4h42.666v-21.333h-42.666v21.333zM70.4 305.067v42.666h290.134l-40.534-42.666h-249.6zM326.4 279.466v-145.067h-134.4l134.4 145.067zM177.066 149.334v132.267h123.734l-123.733-132.267zM390.4 27.733h-42.666v21.334h42.666v-21.334zM433.067 113.067v-42.666h-320v213.334h42.666v-155.734l-6.4-6.4c-4.267-4.267-4.267-10.666 0-14.933 2.133-2.134 4.267-2.134 6.4-2.134s6.4 2.134 8.534 4.267l6.4 6.4h262.4zM390.4 347.733v-213.334h-42.666v160c0 2.134 0 4.267-2.134 6.4l44.8 46.934z" />
<glyph unicode="&#x54;" d="M437.334 32c-2.134 0-6.4 0-8.534 2.134l-174.934 174.933-174.934-174.933c-4.266-4.267-10.666-4.267-14.934 0s-4.267 10.666 0 14.933l174.934 174.934-174.934 174.934c-4.267 4.267-4.267 10.666 0 14.933s10.666 4.267 14.933 0l174.933-174.933 174.933 174.934c4.267 4.266 10.666 4.266 14.933 0s4.267-10.667 0-14.934l-174.933-174.933 174.933-174.934c4.267-4.267 4.267-10.666 0-14.933 0-2.134-2.134-2.134-6.4-2.134z" />
<glyph unicode="&#x55;" d="M579.369 372.211h-162.479c-6.724 60.55-58.166 107.789-120.468 107.789s-113.731-47.238-120.468-107.789h-162.479c-7.438 0-13.473-6.023-13.473-13.474v-377.263c0-7.451 6.036-13.474 13.473-13.474h565.894c7.438 0 13.473 6.022 13.473 13.474v377.263c0 7.451-6.036 13.474-13.473 13.474v0zM296.421 453.053c47.428 0 86.662-35.22 93.238-80.842h-186.476c6.575 45.622 45.824 80.842 93.238 80.842v0zM565.894 345.263v-107.79h-215.579v13.474c0 7.451-6.036 13.474-13.474 13.474h-80.842c-7.438 0-13.474-6.022-13.474-13.474v-13.474h-215.579v107.79h538.947zM269.474 237.474h53.894v-80.842h-53.894v80.842zM26.948-5.053v215.579h215.579v-67.368c0-7.451 6.036-13.474 13.474-13.474h80.842c7.438 0 13.474 6.022 13.474 13.474v67.368h215.579v-215.579h-538.947z" horiz-adv-x="593" />
<glyph unicode="&#x56;" d="M523.636 433.454h-34.909v34.909c0 6.423-5.202 11.637-11.637 11.637h-139.637c-33.373 0-56.902-11.043-69.818-32.395-12.916 21.352-36.445 32.395-69.818 32.395h-139.637c-6.435 0-11.636-5.213-11.636-11.637v-34.909h-34.909c-6.435 0-11.636-5.202-11.636-11.637v-372.363c0-6.435 5.202-11.637 11.636-11.637h139.637c20.992 0 69.818-5.667 69.818-58.182 0-6.435 5.202-11.636 11.637-11.636h69.818c6.435 0 11.637 5.202 11.637 11.637 0 52.515 48.826 58.182 69.818 58.182h139.637c6.435 0 11.636 5.202 11.636 11.637v372.363c0 6.435-5.202 11.637-11.636 11.637v0zM337.454 456.728h128v-349.091h-128c-25.053 0-44.544-6.226-58.182-18.362v309.272c0 40.238 17.944 58.182 58.182 58.182v0zM69.818 456.728h128c40.238 0 58.182-17.944 58.182-58.182v-309.272c-13.626 12.137-33.129 18.362-58.182 18.362h-128v349.091zM512 61.091h-128c-51.991 0-87.052-27.008-92.381-69.818h-47.953c-5.341 42.81-40.401 69.818-92.393 69.818h-128v349.091h23.273v-314.182c0-6.423 5.202-11.637 11.636-11.637h139.637c40.238 0 58.182-17.944 58.182-58.182 0-6.423 5.202-11.637 11.637-11.637s11.637 5.213 11.637 11.637c0 40.238 17.944 58.182 58.182 58.182h139.637c6.435 0 11.637 5.213 11.637 11.637v314.182h23.272v-349.091z" horiz-adv-x="536" />
<glyph unicode="&#x57;" d="M511.413 291.477c-1.483 4.31-5.536 7.19-10.080 7.19h-173.781l-61.493 174.218c-1.504 4.256-5.536 7.115-10.058 7.115s-8.554-2.858-10.059-7.115l-61.482-174.218h-173.792c-4.544 0-8.598-2.88-10.080-7.19-1.482-4.288-0.086-9.056 3.488-11.861l143.435-112.704-61.632-184.875c-1.462-4.406 0.085-9.259 3.84-12 3.744-2.72 8.843-2.72 12.587 0.022l153.696 112.714 153.696-112.714c1.877-1.376 4.096-2.058 6.304-2.058 2.197 0 4.416 0.683 6.283 2.038 3.755 2.741 5.301 7.594 3.84 12l-61.632 184.875 143.435 112.704c3.574 2.805 4.982 7.574 3.488 11.862v0zM345.408 179.050c-3.541-2.784-4.95-7.488-3.531-11.755l53.408-160.214-132.982 97.525c-1.866 1.376-4.086 2.058-6.304 2.058-2.208 0-4.427-0.683-6.304-2.058l-132.982-97.525 53.408 160.214c1.418 4.267 0.011 8.971-3.53 11.755l-125.088 98.282h150.496c4.523 0 8.554 2.859 10.059 7.115l53.941 152.842 53.941-152.842c1.504-4.256 5.536-7.115 10.058-7.115h150.496l-125.088-98.282z" />
<glyph unicode="&#x58;" d="M7.705 250.662l294.4-128c1.625-0.717 3.366-1.063 5.094-1.063 1.741 0 3.469 0.346 5.107 1.063l294.387 128c6.503 2.816 9.472 10.368 6.643 16.832-2.829 6.477-10.342 9.485-16.832 6.643l-289.305-125.786-289.305 125.786c-6.503 2.841-14.016-0.154-16.832-6.643-2.829-6.464 0.153-14.016 6.643-16.832zM596.505 197.337l-289.305-125.786-289.305 125.786c-6.503 2.841-14.016-0.154-16.832-6.643-2.829-6.464 0.153-14.016 6.643-16.832l294.4-128c1.625-0.717 3.366-1.063 5.094-1.063 1.741 0 3.469 0.346 5.107 1.063l294.387 128c6.503 2.816 9.472 10.368 6.643 16.832-2.829 6.477-10.342 9.485-16.832 6.643zM596.505 120.538l-289.305-125.786-289.305 125.786c-6.503 2.867-14.016-0.166-16.832-6.643-2.829-6.464 0.153-14.016 6.643-16.832l294.4-128c1.625-0.717 3.366-1.063 5.094-1.063 1.741 0 3.469 0.346 5.107 1.063l294.387 128c6.503 2.816 9.472 10.368 6.643 16.832-2.829 6.477-10.342 9.485-16.832 6.643zM7.705 327.462l294.4-128c1.625-0.717 3.366-1.063 5.094-1.063 1.741 0 3.469 0.346 5.107 1.063l294.387 128c4.685 2.035 7.706 6.643 7.706 11.738s-3.021 9.702-7.706 11.738l-294.387 128c-3.251 1.408-6.963 1.408-10.202 0l-294.4-128c-4.685-2.035-7.705-6.643-7.705-11.738s3.021-9.702 7.705-11.738v0zM307.2 453.248l262.297-114.048-262.298-114.048-262.298 114.048 262.298 114.048z" horiz-adv-x="615" />
<glyph unicode="&#x59;" d="M235.302 458.213c13.072 0 25.6-2.179 34.315-5.992 0.545 0 34.86-15.796 72.987-38.127 37.583-22.332 68.63-45.209 68.63-45.209 16.341-11.983 32.136-40.851 34.315-61.005 0-0.544 3.813-38.672 3.813-83.336s-3.813-83.336-3.813-83.336c-2.178-20.698-18.519-49.022-34.315-61.005-0.545 0-31.047-22.877-68.63-45.209s-72.442-38.127-72.987-38.127c-8.715-3.813-21.243-5.991-34.315-5.991s-25.6 2.178-34.315 5.991c-0.544 0-34.859 15.796-72.987 38.127-37.583 22.332-68.63 45.209-68.63 45.209-16.34 11.983-32.136 40.851-34.315 61.005 0 0.545-3.813 38.673-3.813 83.336s3.813 83.336 3.813 83.336c2.178 20.698 18.519 49.022 34.315 61.005 0.544 0 31.047 22.877 68.63 45.209s72.442 38.127 72.987 38.127c8.715 3.813 21.243 5.991 34.315 5.991zM235.302 480c-15.796 0-31.591-2.724-43.030-8.17 0 0-35.404-15.796-75.166-39.217-39.217-23.421-70.808-46.298-70.808-46.298-21.242-15.796-40.306-50.111-43.030-76.255 0 0-4.357-39.217-4.357-86.060 0-46.298 4.357-86.060 4.357-86.060 2.723-26.144 22.332-60.459 43.030-76.255 0 0 31.591-23.421 70.808-46.843s75.166-39.217 75.166-39.217c11.983-5.447 27.779-8.17 43.030-8.17 15.796 0 31.592 2.724 43.030 8.17 0 0 35.404 15.796 75.166 39.217 39.217 23.421 70.808 46.843 70.808 46.843 21.243 15.796 40.306 50.111 43.030 76.255 0 0 4.358 39.217 4.358 86.060 0 46.298-4.358 86.060-4.358 86.060-2.724 26.144-22.332 60.459-43.030 76.255 0 0-31.591 23.422-70.808 46.298-39.217 23.422-75.166 39.217-75.166 39.217-11.438 5.447-27.234 8.17-43.030 8.17v0zM214.060 221.276c0-10.529-8.535-19.064-19.064-19.064s-19.064 8.535-19.064 19.064c0 10.529 8.535 19.064 19.064 19.064s19.064-8.535 19.064-19.064zM295.762 221.276c0-10.529-8.535-19.064-19.064-19.064s-19.064 8.535-19.064 19.064c0 10.529 8.535 19.064 19.064 19.064s19.064-8.535 19.064-19.064zM235.302 125.957c-24.511 0-46.843 13.617-58.281 35.404-2.724 5.447-0.544 11.983 4.357 14.707 5.447 2.724 11.983 0.545 14.707-4.358 7.625-14.707 22.876-23.966 39.217-23.966s31.591 9.26 39.217 23.966c2.724 5.447 9.26 7.625 14.707 4.358 5.447-2.724 7.625-9.26 4.358-14.707-11.438-21.787-33.77-35.404-58.281-35.404zM247.285 319.864c-1.634 1.089-3.813 2.178-5.992 2.178-5.447 0-32.681 2.178-32.681 32.681 0 15.796 16.885 32.681 32.681 32.681s27.234-11.438 27.234-21.787c0-10.349-6.536-16.34-10.894-16.34-4.902 0-8.715 1.089-10.349 2.723-1.089 1.634-1.089 4.902-1.089 5.447 1.634 5.992-2.179 11.983-8.17 13.073-5.992 1.634-11.983-2.179-13.072-8.17-0.544-1.634-3.268-14.161 4.902-23.966 5.992-7.625 15.251-10.894 27.778-10.894 17.974 0 32.681 16.885 32.681 38.128 0 23.421-22.332 43.574-49.022 43.574-27.779 0-54.468-26.689-54.468-54.468 0-17.975 5.992-30.502 14.707-38.673-51.2-14.707-88.783-62.094-88.783-117.651 0-67.541 55.013-122.553 122.553-122.553s122.553 55.013 122.553 122.553c0 63.183-48.476 115.473-110.57 121.464zM235.302 97.089c-55.558 0-100.766 45.209-100.766 100.766s45.209 100.766 100.766 100.766c55.558 0 100.766-45.209 100.766-100.766s-45.209-100.766-100.766-100.766z" horiz-adv-x="472" />
<glyph unicode="&#x5a;" d="M409.6 292.267l-122.88 122.88c-17.067 17.067-40.96 17.067-58.026 0l-126.293-122.88c-6.826-6.827-10.24-17.066-10.24-27.306s3.413-20.48 13.653-27.307c17.067-17.067 40.96-17.067 58.026 0l58.026 58.026v-276.48h68.267v276.48l61.44-61.44c17.067-17.067 40.96-17.067 58.026 0s17.067 44.374 0 58.026z" />
<glyph unicode="&#x5b;" d="M263.315 253.257l-215.772 197.486-21.943-21.943 193.828-179.2-193.828-201.143 21.943-21.943 193.828 204.8z" horiz-adv-x="329" />
<glyph unicode="&#x5c;" d="M474.624 304.384c-2.56 24.576-20.992 56.832-40.448 71.68 0 0-29.696 22.016-66.56 43.52-36.864 22.016-70.656 36.864-70.656 36.864-11.264 5.12-26.112 7.68-40.448 7.68-14.848 0-29.696-2.56-40.448-7.68 0 0-33.28-14.848-70.656-36.864-36.864-22.016-66.56-43.52-66.56-43.52-19.968-14.848-37.888-47.104-40.448-71.68 0 0-4.096-36.864-4.096-80.896 0-43.52 4.096-80.896 4.096-80.896 2.56-24.576 20.992-56.832 40.448-71.68 0 0 29.696-22.016 66.56-44.032s70.656-36.864 70.656-36.864c11.264-5.12 26.112-7.68 40.448-7.68 14.848 0 29.696 2.56 40.448 7.68 0 0 33.28 14.848 70.656 36.864 36.864 22.016 66.56 44.032 66.56 44.032 19.968 14.848 37.888 47.104 40.448 71.68 0 0 4.096 36.864 4.096 80.896-0.512 44.032-4.096 80.896-4.096 80.896zM454.144 145.152c-2.048-19.456-17.408-46.080-32.256-57.344-0.512 0-29.184-21.504-64.512-42.496s-68.096-35.84-68.608-35.84c-8.192-3.584-19.968-5.632-32.256-5.632s-24.064 2.048-32.256 5.632c-0.512 0-32.768 14.848-68.608 35.84-35.328 20.992-64.512 42.496-64.512 42.496-15.36 11.264-30.208 38.4-32.256 57.344 0 0.512-3.584 36.352-3.584 78.336s3.584 78.336 3.584 78.336c2.048 19.456 17.408 46.080 32.256 57.344 0.512 0 29.184 21.504 64.512 42.496s68.096 35.84 68.608 35.84c8.192 3.584 19.968 5.632 32.256 5.632s24.064-2.048 32.256-5.632c0.512 0 32.768-14.848 68.608-35.84 35.328-20.992 64.512-42.496 64.512-42.496 15.36-11.264 30.72-38.4 32.256-57.344 0-0.512 3.584-36.352 3.584-78.336 0-41.472-3.584-77.824-3.584-78.336zM205.312 280.32h97.28c5.632 0 10.24 4.608 10.24 10.24s-4.608 10.24-10.24 10.24h-97.28c-5.632 0-10.24-4.608-10.24-10.24s4.608-10.24 10.24-10.24zM312.832 244.48c0 5.632-4.608 10.24-10.24 10.24h-97.28c-5.632 0-10.24-4.608-10.24-10.24s4.608-10.24 10.24-10.24h97.28c5.632 0 10.24 4.608 10.24 10.24zM354.304 219.904c0 0 0 0.512 0 0.512v115.712c0 5.632-4.608 10.24-10.24 10.24h-178.176c-5.632 0-10.24-4.608-10.24-10.24v-215.040c0-5.632 4.608-10.24 10.24-10.24h133.12c0 0 0 0 0 0 9.728-6.656 21.504-10.24 33.792-10.24 33.792 0 61.44 27.648 61.44 61.44 0.512 27.136-16.384 49.664-39.936 57.856zM280.064 131.84h-103.936v194.56h157.184v-102.4c0 0 0 0-0.512 0-33.792 0-61.44-27.648-61.44-61.44 0.512-11.264 3.584-22.016 8.704-30.72zM333.312 121.6c-22.528 0-40.96 18.432-40.96 40.96s18.432 40.96 40.96 40.96c22.528 0 40.96-18.432 40.96-40.96 0-23.040-18.432-40.96-40.96-40.96zM351.744 182.528l-23.552-21.504-8.192 8.192c-4.096 4.096-10.24 4.096-14.336 0s-4.096-10.24 0-14.336l15.36-15.36c2.048-2.048 4.608-3.072 7.168-3.072s5.12 1.024 7.168 2.56l30.72 28.16c4.096 3.584 4.608 10.24 0.512 14.336-4.096 4.608-10.24 5.12-14.848 1.024z" />
<glyph unicode="&#x5d;" d="M474.112 304.896c-2.56 24.576-20.992 56.832-40.448 71.68 0 0-29.696 22.016-66.56 43.52-36.864 22.016-70.656 36.864-70.656 36.864-10.752 5.12-25.6 7.68-40.448 7.68s-29.696-2.56-40.448-7.68c0 0-33.28-14.848-70.656-36.864-36.864-22.016-66.56-43.52-66.56-43.52-19.968-14.848-37.888-47.104-40.448-71.68 0 0-4.096-36.864-4.096-80.896 0-43.52 4.096-80.896 4.096-80.896 2.56-24.576 20.992-56.832 40.448-71.68 0 0 29.696-22.016 66.56-44.032s70.656-36.864 70.656-36.864c11.264-5.12 26.112-7.68 40.448-7.68s29.696 2.56 40.448 7.68c0 0 33.28 14.848 70.656 36.864 36.864 22.016 66.56 44.032 66.56 44.032 19.968 14.848 37.888 47.104 40.448 71.68 0 0 4.096 36.864 4.096 80.896 0 43.52-4.096 80.896-4.096 80.896zM453.632 145.664c-2.048-19.456-17.408-46.080-32.256-57.344-0.512 0-29.184-21.504-64.512-42.496s-68.096-35.84-68.608-35.84c-8.192-4.096-19.968-6.144-32.256-6.144s-24.064 2.048-32.256 5.632c-0.512 0-32.768 14.848-68.608 35.84-35.328 20.992-64.512 42.496-64.512 42.496-15.36 11.264-30.208 38.4-32.256 57.344 0 0.512-3.584 36.352-3.584 78.336s3.584 78.336 3.584 78.336c2.048 19.456 17.408 46.080 32.256 57.344 0.512 0 29.184 21.504 64.512 42.496s68.096 35.84 68.608 35.84c8.192 4.608 19.968 6.656 32.256 6.656s24.064-2.048 32.256-5.632c0.512 0 32.768-14.848 68.608-35.84 35.328-20.992 64.512-42.496 64.512-42.496 15.36-11.264 30.208-38.4 32.256-57.344 0-0.512 3.584-36.352 3.584-78.336 0.512-42.496-3.584-78.848-3.584-78.848zM388.608 312.064c-22.528 8.192-40.96-6.144-56.32-21.504-2.56-2.56-7.168-7.168-12.8-13.312-19.968 0-52.224 0-68.608 0v77.312c0 0 0 0.512 0 0.512 0 4.608-3.072 8.704-7.68 9.728-7.168 2.048-14.848 2.56-21.504 2.56-49.152 0-89.088-39.936-89.088-89.088 0-28.16 13.824-54.784 35.84-71.168 21.504-17.408 46.080-17.92 63.488-17.92-4.096-4.096-7.68-7.68-11.264-11.776-7.168 4.608-15.872 7.168-24.576 7.168-25.6 0-46.592-20.992-46.592-46.592s20.992-46.592 46.592-46.592c25.6 0 46.592 20.992 46.592 46.592 0 9.216-2.56 17.92-7.168 25.088 5.632 5.632 11.776 11.776 17.92 17.92 0.512-0.512 0.512-0.512 1.024-1.024l16.384-16.384c-4.608-7.168-7.68-15.872-7.68-25.6 0-25.6 20.992-46.592 46.592-46.592s46.592 20.992 46.592 46.592c0 25.6-20.992 46.592-46.592 46.592-8.704 0-17.408-2.56-24.064-6.656l-11.264 11.264h22.528c31.232 0 56.832 25.6 56.832 56.832 0 8.192 0 13.824-1.024 18.432s-3.072 7.68-6.144 10.24c0.512 0.512 1.024 1.024 1.024 1.024 18.944 18.944 28.16 19.456 34.816 16.896 4.096-1.536 6.144-6.144 6.144-9.216 0-2.56-1.536-3.072-2.048-3.584-1.536-0.512-2.56-0.512-3.072-1.024-1.536 4.608-6.656 7.68-11.776 6.656-5.632-1.024-8.704-6.656-7.68-12.288 0.512-1.536 2.048-8.704 9.728-12.288 4.096-2.048 10.752-4.096 20.48 0 9.216 3.584 15.36 12.288 15.36 22.528-1.536 12.288-9.728 24.064-20.992 28.672zM233.472 210.176c-15.872 0-35.84 0-53.248 13.824-17.408 12.8-28.16 33.28-28.16 55.296 0 37.888 30.72 68.608 68.608 68.608 3.072 0 6.144 0 9.216-0.512v-79.872c0-2.56 1.024-5.12 3.072-7.168s4.608-3.072 7.168-3.072c0 0 0 0 0 0s31.232 0 58.368 0c-13.824-14.336-30.72-30.72-46.592-46.592h-18.432zM221.696 138.496c0-14.336-11.776-26.112-26.112-26.112s-26.112 11.776-26.112 26.112c0 14.336 11.776 26.112 26.112 26.112 3.584 0 6.656-0.512 9.728-2.048-10.24-10.24-16.896-16.896-16.896-16.896l14.336-14.336c0 0 6.656 6.656 16.896 16.896 1.024-3.072 2.048-6.144 2.048-9.728zM308.736 164.608c14.336 0 26.112-11.776 26.112-26.112s-11.776-26.112-26.112-26.112c-14.336 0-26.112 11.776-26.112 26.112 0 3.584 1.024 7.168 2.048 10.24l17.408-17.408c2.048-2.048 4.608-3.072 7.168-3.072s5.12 1.024 7.168 3.072c4.096 4.096 4.096 10.24 0 14.336l-17.408 17.408c3.584 1.024 6.656 1.536 9.728 1.536zM331.776 256.768c0-2.56 0-6.656 0-10.752 0-19.968-16.384-36.352-36.352-36.352h-14.848c16.896 17.408 33.792 33.792 46.592 46.592 2.048 0.512 3.584 0.512 4.608 0.512z" />
<glyph unicode="&#x5e;" d="M256 330.496c-59.392 0-107.52-48.128-107.52-107.52s48.128-107.52 107.52-107.52c59.392 0 107.52 48.128 107.52 107.52s-48.128 107.52-107.52 107.52zM256 310.016c35.84 0 67.072-22.016 80.384-53.248l-44.032-14.336c-7.168 14.336-21.504 24.064-38.4 24.064-16.384 0-30.72-9.216-37.888-22.528l-39.936 13.312c12.8 30.72 43.52 52.736 79.872 52.736zM253.44 200.448c-12.8 0-22.528 10.24-22.528 22.528 0 12.8 10.24 22.528 22.528 22.528 12.8 0 22.528-10.24 22.528-22.528 0.512-12.288-9.728-22.528-22.528-22.528zM168.96 222.976c0 4.608 0.512 9.216 1.024 13.824l40.448-13.312c0 0 0-0.512 0-0.512 0-20.48 14.848-37.888 33.792-41.984v-44.032c-42.496 5.632-75.264 41.984-75.264 86.016zM264.704 136.448v45.056c17.92 5.12 31.744 21.504 31.744 40.96l45.056 14.848c0.512-4.608 1.024-9.216 1.024-14.336 0.512-45.056-33.792-81.92-77.824-86.528zM474.112 304.896c-2.56 24.576-20.992 56.832-40.448 71.68 0 0-29.696 22.016-66.56 43.52-36.864 22.016-70.656 36.864-70.656 36.864-10.752 5.12-25.6 7.68-40.448 7.68s-29.696-2.56-40.448-7.68c0 0-33.28-14.848-70.656-36.864-36.864-22.016-66.56-43.52-66.56-43.52-19.968-14.848-37.888-47.104-40.448-71.68 0 0-4.096-36.864-4.096-80.896 0-43.52 4.096-80.896 4.096-80.896 2.56-24.576 20.992-56.832 40.448-71.68 0 0 29.696-22.016 66.56-44.032s70.656-36.864 70.656-36.864c11.264-5.12 26.112-7.68 40.448-7.68 14.848 0 29.696 2.56 40.448 7.68 0 0 33.28 14.848 70.656 36.864 36.864 22.016 66.56 44.032 66.56 44.032 19.968 14.848 37.888 47.104 40.448 71.68 0 0 4.096 36.864 4.096 80.896 0 43.52-4.096 80.896-4.096 80.896zM453.632 145.664c-2.048-19.456-17.408-46.080-32.256-57.344-0.512 0-29.184-21.504-64.512-42.496s-68.096-35.84-68.608-35.84c-8.192-4.096-19.968-6.144-32.256-6.144s-24.064 2.048-32.256 5.632c-0.512 0-32.768 14.848-68.608 35.84-35.328 20.992-64.512 42.496-64.512 42.496-15.36 11.264-30.208 38.4-32.256 57.344 0 0.512-3.584 36.352-3.584 78.336s3.584 78.336 3.584 78.336c2.048 19.456 17.408 46.080 32.256 57.344 0.512 0 29.184 21.504 64.512 42.496s68.096 35.84 68.608 35.84c8.192 4.608 19.968 6.656 32.256 6.656s24.064-2.048 32.256-5.632c0.512 0 32.768-14.848 68.608-35.84 35.328-20.992 64.512-42.496 64.512-42.496 15.36-11.264 30.72-38.4 32.256-57.344 0-0.512 3.584-36.352 3.584-78.336 0.512-42.496-3.584-78.848-3.584-78.848zM253.44 366.848c-79.36 0-143.36-64.512-143.36-143.36 0-79.36 64.512-143.36 143.36-143.36 79.36 0 143.36 64.512 143.36 143.36 0.512 78.848-64 143.36-143.36 143.36zM253.44 100.096c-68.096 0-122.88 55.296-122.88 122.88 0 68.096 55.296 122.88 122.88 122.88 68.096 0 122.88-55.296 122.88-122.88 0.512-67.584-54.784-122.88-122.88-122.88z" />
<glyph unicode="&#x5f;" d="M474.112 304.896c-2.56 24.576-20.992 56.832-40.448 71.68 0 0-29.696 22.016-66.56 43.52-36.864 22.016-70.656 36.864-70.656 36.864-10.752 5.12-25.6 7.68-40.448 7.68s-29.696-2.56-40.448-7.68c0 0-33.28-14.848-70.656-36.864-36.864-22.016-66.56-43.52-66.56-43.52-19.968-14.848-37.888-47.104-40.448-71.68 0 0-4.096-36.864-4.096-80.896 0-43.52 4.096-80.896 4.096-80.896 2.56-24.576 20.992-56.832 40.448-71.68 0 0 29.696-22.016 66.56-44.032s70.656-36.864 70.656-36.864c11.264-5.12 26.112-7.68 40.448-7.68 14.848 0 29.696 2.56 40.448 7.68 0 0 33.28 14.848 70.656 36.864 36.864 22.016 66.56 44.032 66.56 44.032 19.968 14.848 37.888 47.104 40.448 71.68 0 0 4.096 36.864 4.096 80.896 0 43.52-4.096 80.896-4.096 80.896zM453.632 145.664c-2.048-19.456-17.408-46.080-32.256-57.344-0.512 0-29.184-21.504-64.512-42.496s-68.096-35.84-68.608-35.84c-8.192-4.096-19.968-6.144-32.256-6.144s-24.064 2.048-32.256 5.632c-0.512 0-32.768 14.848-68.608 35.84-35.328 20.992-64.512 42.496-64.512 42.496-15.36 11.264-30.208 38.4-32.256 57.344 0 0.512-3.584 36.352-3.584 78.336s3.584 78.336 3.584 78.336c2.048 19.456 17.408 46.080 32.256 57.344 0.512 0 29.184 21.504 64.512 42.496s68.096 35.84 68.608 35.84c8.192 4.608 19.968 6.656 32.256 6.656s24.064-2.048 32.256-5.632c0.512 0 32.768-14.848 68.608-35.84 35.328-20.992 64.512-42.496 64.512-42.496 15.36-11.264 30.72-38.4 32.256-57.344 0-0.512 3.584-36.352 3.584-78.336 0.512-42.496-3.584-78.848-3.584-78.848zM338.944 328.448c-16.896 10.24-84.48 10.24-84.992 10.24s-68.096 0-84.992-10.24c-13.824-8.192-30.208-43.52-37.888-72.704-8.192-30.72-2.048-74.752 0-87.040 0.512-3.584 2.048-6.144 5.632-8.704v-35.328c0-5.632 4.608-10.24 10.24-10.24h41.472c5.632 0 10.24 4.608 10.24 10.24v23.552c18.944-1.536 39.424-2.56 55.808-2.56s36.864 1.024 55.808 2.56v-23.552c0-5.632 4.608-10.24 10.24-10.24h41.472c5.632 0 10.24 4.608 10.24 10.24v35.328c3.584 2.56 5.12 5.12 5.632 8.704 2.048 12.8 8.192 56.32 0 87.040-8.704 29.184-25.088 64.512-38.912 72.704zM179.2 311.040c5.632 3.584 38.912 7.168 74.752 7.168s69.12-4.096 74.752-7.168c4.096-2.56 14.848-19.968 23.552-43.52-19.968 4.096-57.856 11.264-98.304 11.264-39.936 0-78.336-7.168-98.304-11.264 8.704 23.552 19.456 40.96 23.552 43.52zM178.176 134.912h-20.992v18.432c5.632-1.024 12.8-2.048 20.992-3.072v-15.36zM351.232 134.912h-20.992v15.36c8.704 1.024 15.36 2.048 20.992 3.072v-18.432zM357.888 175.872c-13.312-4.608-65.024-9.728-103.936-9.728-38.4 0-90.624 5.12-103.936 9.728-3.072 21.504-4.608 49.152-1.024 69.12 9.728 2.56 56.32 13.312 104.448 13.312s94.72-11.264 104.448-13.312c4.608-19.968 3.072-47.616 0-69.12zM346.112 215.808c0-8.483-6.877-15.36-15.36-15.36s-15.36 6.877-15.36 15.36c0 8.483 6.877 15.36 15.36 15.36s15.36-6.877 15.36-15.36zM192.512 215.808c0-8.483-6.877-15.36-15.36-15.36s-15.36 6.877-15.36 15.36c0 8.483 6.877 15.36 15.36 15.36s15.36-6.877 15.36-15.36z" />
<glyph unicode="&#x60;" d="M474.112 304.896c-2.56 24.576-20.992 56.832-40.448 71.68 0 0-29.696 22.016-66.56 43.52-36.864 22.016-70.656 36.864-70.656 36.864-10.752 5.12-25.6 7.68-40.448 7.68s-29.696-2.56-40.448-7.68c0 0-33.28-14.848-70.656-36.864-36.864-22.016-66.56-43.52-66.56-43.52-19.968-14.848-37.888-47.104-40.448-71.68 0 0-4.096-36.864-4.096-80.896s4.096-80.896 4.096-80.896c2.56-24.576 20.992-56.832 40.448-71.68 0 0 29.696-22.016 66.56-44.032s70.656-36.864 70.656-36.864c11.264-5.12 26.112-7.68 40.448-7.68 14.848 0 29.696 2.56 40.448 7.68 0 0 33.28 14.848 70.656 36.864 36.864 22.016 66.56 44.032 66.56 44.032 19.968 14.848 37.888 47.104 40.448 71.68 0 0 4.096 36.864 4.096 80.896s-4.096 80.896-4.096 80.896zM453.632 145.664c-2.048-19.456-17.408-46.080-32.256-57.344-0.512 0-29.184-21.504-64.512-42.496s-68.096-35.84-68.608-35.84c-8.192-4.096-19.968-6.144-32.256-6.144s-24.064 2.048-32.256 5.632c-0.512 0-32.768 14.848-68.608 35.84-35.328 20.992-64.512 42.496-64.512 42.496-15.36 11.264-30.208 38.4-32.256 57.344 0 0.512-3.584 36.352-3.584 78.336s3.584 78.336 3.584 78.336c2.048 19.456 17.408 46.080 32.256 57.344 0.512 0 29.184 21.504 64.512 42.496s68.096 35.84 68.608 35.84c8.192 4.608 19.968 6.656 32.256 6.656s24.064-2.048 32.256-5.632c0.512 0 32.768-14.848 68.608-35.84 35.328-20.992 64.512-42.496 64.512-42.496 15.36-11.264 30.208-38.4 32.256-57.344 0-0.512 3.584-36.352 3.584-78.336 0.512-42.496-3.584-78.848-3.584-78.848zM382.976 315.136h-253.952c-5.632 0-10.24-4.608-10.24-10.24v-161.28c0-5.632 4.608-10.24 10.24-10.24h253.44c5.632 0 10.24 4.608 10.24 10.24v161.28c0.512 5.632-4.096 10.24-9.728 10.24zM343.040 207.616c0-9.728-7.68-17.408-17.408-17.408-2.56 0-4.608 0.512-6.656 1.536-6.656 2.56-10.752 9.216-10.752 16.384 0 9.728 7.68 17.408 17.408 17.408 9.216-0.512 17.408-8.192 17.408-17.92zM320 169.728c2.048-0.512 3.584-0.512 5.632-0.512s3.584 0 5.632 0.512v-16.384h-10.752v16.384zM325.12 245.504c-2.048 0-3.584 0-5.632-0.512v49.152h10.752v-49.152c-1.024 0.512-3.072 0.512-5.12 0.512zM139.264 294.656h159.744v-58.88c-7.68-7.168-12.288-16.896-12.288-27.648s4.608-20.48 12.288-27.648v-26.112h-159.744v140.288zM372.736 153.344h-21.504v26.112c7.68 7.168 12.288 16.896 12.288 27.648s-4.608 20.992-12.288 27.648v59.904h21.504v-141.312zM256 270.080h-90.112c-5.632 0-10.24-4.608-10.24-10.24s4.608-10.24 10.24-10.24h90.112c5.632 0 10.24 4.608 10.24 10.24s-4.608 10.24-10.24 10.24zM256 233.728h-90.112c-5.632 0-10.24-4.608-10.24-10.24s4.608-10.24 10.24-10.24h90.112c5.632 0 10.24 4.608 10.24 10.24s-4.608 10.24-10.24 10.24zM256 196.864h-90.112c-5.632 0-10.24-4.608-10.24-10.24s4.608-10.24 10.24-10.24h90.112c5.632 0 10.24 4.608 10.24 10.24s-4.608 10.24-10.24 10.24z" />
<glyph unicode="&#x61;" d="M474.112 304.896c-2.56 24.576-20.992 56.832-40.448 71.68 0 0-29.696 22.016-66.56 43.52-36.864 22.016-70.656 36.864-70.656 36.864-10.752 5.12-25.6 7.68-40.448 7.68s-29.696-2.56-40.448-7.68c0 0-33.28-14.848-70.656-36.864-36.864-22.016-66.56-43.52-66.56-43.52-19.968-14.848-37.888-47.104-40.448-71.68 0 0-4.096-36.864-4.096-80.896 0-43.52 4.096-80.896 4.096-80.896 2.56-24.576 20.992-56.832 40.448-71.68 0 0 29.696-22.016 66.56-44.032s70.656-36.864 70.656-36.864c11.264-5.12 26.112-7.68 40.448-7.68s29.696 2.56 40.448 7.68c0 0 33.28 14.848 70.656 36.864 36.864 22.016 66.56 44.032 66.56 44.032 19.968 14.848 37.888 47.104 40.448 71.68 0 0 4.096 36.864 4.096 80.896 0 43.52-4.096 80.896-4.096 80.896zM453.632 145.664c-2.048-19.456-17.408-46.080-32.256-57.344-0.512 0-29.184-21.504-64.512-42.496s-68.096-35.84-68.608-35.84c-8.192-4.096-19.968-6.144-32.256-6.144s-24.064 2.048-32.256 5.632c-0.512 0-32.768 14.848-68.608 35.84-35.328 20.992-64.512 42.496-64.512 42.496-15.36 11.264-30.208 38.4-32.256 57.344 0 0.512-3.584 36.352-3.584 78.336s3.584 78.336 3.584 78.336c2.048 19.456 17.408 46.080 32.256 57.344 0.512 0 29.184 21.504 64.512 42.496s68.096 35.84 68.608 35.84c8.192 4.608 19.968 6.656 32.256 6.656s24.064-2.048 32.256-5.632c0.512 0 32.768-14.848 68.608-35.84 35.328-20.992 64.512-42.496 64.512-42.496 15.36-11.264 30.208-38.4 32.256-57.344 0-0.512 3.584-36.352 3.584-78.336 0.512-42.496-3.584-78.848-3.584-78.848zM315.392 293.632c-15.36 0-29.184-4.096-41.472-11.776-16.384 19.456-40.96 32.256-68.096 32.256-48.64 0-88.576-39.936-88.576-88.576s39.424-88.576 88.064-88.576c20.48 0 39.424 7.168 54.272 18.944 14.336-13.824 33.792-22.016 55.296-22.016 44.032 0 79.872 35.84 79.872 79.872s-35.328 79.872-79.36 79.872zM262.144 187.136c-4.096 8.192-6.144 16.896-6.144 26.112 0 13.824 5.12 27.136 13.312 37.376 3.072-7.68 5.12-16.384 5.12-25.088-0.512-14.336-5.12-27.136-12.288-38.4zM137.216 225.536c0 37.376 30.72 68.096 68.096 68.096 20.992 0 39.936-9.728 52.224-24.576-13.824-14.336-22.528-33.792-22.528-55.808 0-15.36 4.608-29.696 11.776-41.984-11.264-8.192-25.6-13.824-41.472-13.824-37.376 0-68.096 30.72-68.096 68.096zM315.392 154.368c-15.872 0-29.696 6.144-40.448 15.872 12.288 15.36 19.456 34.304 19.456 55.296 0 14.336-3.584 27.136-9.216 39.424 8.704 5.12 18.944 8.192 30.208 8.192 32.768 0 59.392-26.624 59.392-59.392s-26.624-59.392-59.392-59.392z" />
<glyph unicode="&#x62;" d="M474.112 304.896c-2.56 24.576-20.992 56.832-40.448 71.68 0 0-29.696 22.016-66.56 43.52-36.864 22.016-70.656 36.864-70.656 36.864-10.752 5.12-25.6 7.68-40.448 7.68s-29.696-2.56-40.448-7.68c0 0-33.28-14.848-70.656-36.864-36.864-22.016-66.56-43.52-66.56-43.52-19.968-14.848-37.888-47.104-40.448-71.68 0 0-4.096-36.864-4.096-80.896 0-43.52 4.096-80.896 4.096-80.896 2.56-24.576 20.992-56.832 40.448-71.68 0 0 29.696-22.016 66.56-44.032s70.656-36.864 70.656-36.864c11.264-5.12 26.112-7.68 40.448-7.68 14.848 0 29.696 2.56 40.448 7.68 0 0 33.28 14.848 70.656 36.864 36.864 22.016 66.56 44.032 66.56 44.032 19.968 14.848 37.888 47.104 40.448 71.68 0 0 4.096 36.864 4.096 80.896 0 43.52-4.096 80.896-4.096 80.896zM453.632 145.664c-2.048-19.456-17.408-46.080-32.256-57.344-0.512 0-29.184-21.504-64.512-42.496s-68.096-35.84-68.608-35.84c-8.192-4.096-19.968-6.144-32.256-6.144s-24.064 2.048-32.256 5.632c-0.512 0-32.768 14.848-68.608 35.84-35.328 20.992-64.512 42.496-64.512 42.496-15.36 11.264-30.208 38.4-32.256 57.344 0 0.512-3.584 36.352-3.584 78.336s3.584 78.336 3.584 78.336c2.048 19.456 17.408 46.080 32.256 57.344 0.512 0 29.184 21.504 64.512 42.496s68.096 35.84 68.608 35.84c8.192 4.608 19.968 6.656 32.256 6.656s24.064-2.048 32.256-5.632c0.512 0 32.768-14.848 68.608-35.84 35.328-20.992 64.512-42.496 64.512-42.496 15.36-11.264 30.208-38.4 32.256-57.344 0-0.512 3.584-36.352 3.584-78.336 0.512-42.496-3.584-78.848-3.584-78.848zM425.984 297.728c-5.12 3.584-17.92 6.656-32.256-6.656-9.216-8.704-36.352-43.008-52.224-62.976-9.216 18.432-28.16 30.72-49.664 30.72-27.136 0-50.176-19.968-54.784-45.568-0.512 0-0.512 0-1.024 0h-23.552c-4.608 26.112-27.648 45.568-54.784 45.568 0 0 0 0 0 0 6.144 7.68 11.264 13.824 14.848 16.896 4.608 4.096 7.168 4.096 7.68 4.608 4.608-2.56 10.24-1.536 13.312 3.072s2.048 10.752-2.56 14.336c-5.12 3.584-17.92 6.656-32.256-6.656-8.192-7.68-25.6-30.72-37.376-46.080-11.776-10.24-18.944-25.088-18.944-41.984 0-30.72 25.088-55.808 55.808-55.808 27.136 0 50.176 19.456 54.784 45.568h23.552c0.512 0 0.512 0 1.024 0 4.096-25.6 26.624-45.568 54.272-45.568 30.72 0 55.296 24.576 55.808 55.296 14.336 18.432 51.2 65.024 60.416 73.216 4.608 4.096 6.656 4.096 7.68 4.608 4.608-2.56 10.24-1.536 13.312 3.072s1.536 10.752-3.072 14.336zM157.696 167.68c-19.456 0-35.328 15.872-35.328 35.328 0 4.608 1.024 9.216 2.56 13.312 0.512 0.512 1.024 1.024 1.536 1.536 2.56 3.072 5.632 7.68 9.728 12.8 6.144 4.608 13.312 7.68 21.504 7.68 19.456 0 35.328-15.872 35.328-35.328s-15.872-35.328-35.328-35.328zM291.84 167.68c-19.456 0-35.328 15.872-35.328 35.328s15.872 35.328 35.328 35.328c19.456 0 35.328-15.872 35.328-35.328s-15.872-35.328-35.328-35.328z" />
<glyph unicode="&#x63;" d="M474.112 304.896c-2.56 24.576-20.992 56.832-40.448 71.68 0 0-29.696 22.016-66.56 43.52-36.864 22.016-70.656 36.864-70.656 36.864-10.752 5.12-25.6 7.68-40.448 7.68s-29.696-2.56-40.448-7.68c0 0-33.28-14.848-70.656-36.864-36.864-22.016-66.56-43.52-66.56-43.52-19.968-14.848-37.888-47.104-40.448-71.68 0 0-4.096-36.864-4.096-80.896s4.096-80.896 4.096-80.896c2.56-24.576 20.992-56.832 40.448-71.68 0 0 29.696-22.016 66.56-44.032s70.656-36.864 70.656-36.864c11.264-5.12 26.112-7.68 40.448-7.68 14.848 0 29.696 2.56 40.448 7.68 0 0 33.28 14.848 70.656 36.864 36.864 22.016 66.56 44.032 66.56 44.032 19.968 14.848 37.888 47.104 40.448 71.68 0 0 4.096 36.864 4.096 80.896s-4.096 80.896-4.096 80.896zM453.632 145.664c-2.048-19.456-17.408-46.080-32.256-57.344-0.512 0-29.184-21.504-64.512-42.496s-68.096-35.84-68.608-35.84c-8.192-4.096-19.968-6.144-32.256-6.144s-24.064 2.048-32.256 5.632c-0.512 0-32.768 14.848-68.608 35.84-35.328 20.992-64.512 42.496-64.512 42.496-15.36 11.264-30.208 38.4-32.256 57.344 0 0.512-3.584 36.352-3.584 78.336s3.584 78.336 3.584 78.336c2.048 19.456 17.408 46.080 32.256 57.344 0.512 0 29.184 21.504 64.512 42.496s68.096 35.84 68.608 35.84c8.192 4.608 19.968 6.656 32.256 6.656s24.064-2.048 32.256-5.632c0.512 0 32.768-14.848 68.608-35.84 35.328-20.992 64.512-42.496 64.512-42.496 15.36-11.264 30.208-38.4 32.256-57.344 0-0.512 3.584-36.352 3.584-78.336 0.512-42.496-3.584-78.848-3.584-78.848zM316.928 354.048c-26.624 2.048-53.76-6.144-73.216-22.528-7.168 1.536-12.8 0.512-22.016-7.168-12.8-11.264-16.384-24.064-13.312-32.256 1.536-4.096 7.168-8.192 11.264-8.192 7.168 0 13.824 1.024 22.016 7.68 7.168 5.632 16.896 17.408 16.384 25.6 15.36 11.776 36.352 18.432 57.344 16.384 14.848-1.024 35.84-7.168 51.2-28.16 11.776-15.872 15.872-38.4 10.752-61.952-5.12-25.088-19.456-46.080-38.4-56.832-30.72-17.408-64.512-17.92-89.6-17.408v6.144c49.664 2.56 92.672 37.376 104.96 86.528 1.024 3.072 0 6.144-2.048 8.704s-5.12 4.096-8.192 4.096h-209.92c-3.072 0-6.144-1.536-8.192-4.096s-2.56-5.632-2.048-8.704c12.288-49.152 54.784-83.456 104.96-86.528v-6.144c-22.528-0.512-41.984-3.072-41.984-22.528 0-23.552 16.384-25.088 41.984-25.6v-3.584h-21.504c-5.632 0-10.24-4.608-10.24-10.24s4.608-10.24 10.24-10.24h64c5.632 0 10.24 4.608 10.24 10.24s-4.608 10.24-10.24 10.24h-22.016v30.72c26.112 0 64.512 0 99.84 19.968 24.064 13.312 41.984 39.936 48.128 70.656 6.144 29.184 1.024 57.856-14.336 78.336-15.872 21.504-39.424 34.304-66.048 36.864zM147.968 253.184h181.76c-14.336-34.816-48.128-58.368-87.040-58.368h-8.192c-38.4 0-72.192 23.552-86.528 58.368zM207.36 143.104c0 0.512-1.024 1.536-0.512 3.072 1.536 2.56 10.24 2.048 21.504 2.048v-6.656c-9.216 0-18.944-0.512-20.992 1.536z" />
<glyph unicode="&#x64;" d="M474.112 304.896c-2.56 24.576-20.992 56.832-40.448 71.68 0 0-29.696 22.016-66.56 43.52-36.864 22.016-70.656 36.864-70.656 36.864-10.752 5.12-25.6 7.68-40.448 7.68s-29.696-2.56-40.448-7.68c0 0-33.28-14.848-70.656-36.864-36.864-22.016-66.56-43.52-66.56-43.52-19.968-14.848-37.888-47.104-40.448-71.68 0 0-4.096-36.864-4.096-80.896 0-43.52 4.096-80.896 4.096-80.896 2.56-24.576 20.992-56.832 40.448-71.68 0 0 29.696-22.016 66.56-44.032s70.656-36.864 70.656-36.864c11.264-5.12 26.112-7.68 40.448-7.68 14.848 0 29.696 2.56 40.448 7.68 0 0 33.28 14.848 70.656 36.864 36.864 22.016 66.56 44.032 66.56 44.032 19.968 14.848 37.888 47.104 40.448 71.68 0 0 4.096 36.864 4.096 80.896 0 43.52-4.096 80.896-4.096 80.896zM453.632 145.664c-2.048-19.456-17.408-46.080-32.256-57.344-0.512 0-29.184-21.504-64.512-42.496s-68.096-35.84-68.608-35.84c-8.192-4.096-19.968-6.144-32.256-6.144s-24.064 2.048-32.256 5.632c-0.512 0-32.768 14.848-68.608 35.84-35.328 20.992-64.512 42.496-64.512 42.496-15.36 11.264-30.208 38.4-32.256 57.344 0 0.512-3.584 36.352-3.584 78.336s3.584 78.336 3.584 78.336c2.048 19.456 17.408 46.080 32.256 57.344 0.512 0 29.184 21.504 64.512 42.496s68.096 35.84 68.608 35.84c8.192 4.608 19.968 6.656 32.256 6.656s24.064-2.048 32.256-5.632c0.512 0 32.768-14.848 68.608-35.84 35.328-20.992 64.512-42.496 64.512-42.496 15.36-11.264 30.208-38.4 32.256-57.344 0-0.512 3.584-36.352 3.584-78.336 0.512-42.496-3.584-78.848-3.584-78.848zM302.592 190.72c-11.264-8.192-24.064-13.312-37.888-14.848v21.504c12.8 2.048 22.016 8.192 22.016 15.36 0 8.704-14.336 16.384-31.744 16.384s-31.744-7.168-31.744-16.384c0-7.168 8.704-13.312 21.504-15.36v-21.504c-12.8 2.048-24.576 6.656-35.328 14.336-4.608 3.072-10.752 2.048-14.336-2.56-3.072-4.608-2.048-10.752 2.56-14.336 16.896-12.288 36.352-18.432 56.832-18.944 0 0 0.512 0 0.512 0s0 0 0 0 0.512 0 0.512 0c21.504 0 41.984 6.656 59.392 19.456 4.608 3.584 5.632 9.728 2.048 14.336-3.072 4.608-9.728 5.632-14.336 2.56zM350.72 345.856c-20.992 0-39.936-12.8-47.616-31.744-14.848 5.12-31.232 8.192-48.64 8.192s-33.792-3.072-48.64-8.192c-7.68 18.944-26.624 31.744-47.616 31.744-28.16 0-51.712-23.040-51.712-51.712 0-18.432 10.24-35.84 26.624-45.056 0 0 0 0 0.512 0-4.608-11.776-7.68-24.064-7.68-36.864 0-60.416 57.856-110.080 128.512-110.080s128.512 49.152 128.512 110.080c0 12.8-2.56 25.6-7.68 36.864 0 0 0 0 0.512 0 16.384 9.216 26.624 26.112 26.624 45.056-0.512 28.672-23.552 51.712-51.712 51.712zM142.848 267.008c-9.728 5.632-15.872 15.872-15.872 27.136 0 16.896 13.824 31.232 31.232 31.232 12.8 0 24.064-8.192 28.672-19.456-5.632-3.072-11.264-6.656-16.384-10.24l-7.68 7.68c-4.096 4.096-10.24 4.096-14.336 0s-4.096-10.24 0-14.336l6.656-6.656c-4.608-5.12-8.192-10.24-12.288-15.36 0.512 0 0 0 0 0zM254.464 122.624c-59.904 0-108.032 39.936-108.032 89.6 0 49.152 48.64 89.088 108.032 89.088s108.032-39.936 108.032-89.088c-0.512-49.664-48.64-89.6-108.032-89.6zM365.568 267.008c0 0 0 0 0 0-3.584 5.12-8.192 10.24-12.8 15.36l6.144 6.144c4.096 4.096 4.096 10.24 0 14.336s-10.24 4.096-14.336 0l-7.168-7.168c-5.12 3.584-10.24 6.656-15.872 9.728 4.608 11.776 15.872 19.456 28.672 19.456 16.896 0 31.232-13.824 31.232-31.232 0-10.752-6.144-20.992-15.872-26.624zM219.136 239.872c0-7.635-6.189-13.824-13.824-13.824s-13.824 6.189-13.824 13.824c0 7.635 6.189 13.824 13.824 13.824s13.824-6.189 13.824-13.824zM318.464 239.872c0-7.635-6.189-13.824-13.824-13.824s-13.824 6.189-13.824 13.824c0 7.635 6.189 13.824 13.824 13.824s13.824-6.189 13.824-13.824z" />
<glyph unicode="&#x65;" d="M474.112 304.896c-2.56 24.576-20.992 56.832-40.448 71.68 0 0-29.696 22.016-66.56 43.52-36.864 22.016-70.656 36.864-70.656 36.864-10.752 5.12-25.6 7.68-40.448 7.68s-29.696-2.56-40.448-7.68c0 0-33.28-14.848-70.656-36.864-36.864-22.016-66.56-43.52-66.56-43.52-19.968-14.848-37.888-47.104-40.448-71.68 0 0-4.096-36.864-4.096-80.896s4.096-80.896 4.096-80.896c2.56-24.576 20.992-56.832 40.448-71.68 0 0 29.696-22.016 66.56-44.032s70.656-36.864 70.656-36.864c11.264-5.12 26.112-7.68 40.448-7.68s29.696 2.56 40.448 7.68c0 0 33.28 14.848 70.656 36.864 36.864 22.016 66.56 44.032 66.56 44.032 19.968 14.848 37.888 47.104 40.448 71.68 0 0 4.096 36.864 4.096 80.896s-4.096 80.896-4.096 80.896zM453.632 145.664c-2.048-19.456-17.408-46.080-32.256-57.344-0.512 0-29.184-21.504-64.512-42.496s-68.096-35.84-68.608-35.84c-8.192-4.096-19.968-6.144-32.256-6.144s-24.064 2.048-32.256 5.632c-0.512 0-32.768 14.848-68.608 35.84-35.328 20.992-64.512 42.496-64.512 42.496-15.36 11.264-30.208 38.4-32.256 57.344 0 0.512-3.584 36.352-3.584 78.336s3.584 78.336 3.584 78.336c2.048 19.456 17.408 46.080 32.256 57.344 0.512 0 29.184 21.504 64.512 42.496s68.096 35.84 68.608 35.84c8.192 4.608 19.968 6.656 32.256 6.656s24.064-2.048 32.256-5.632c0.512 0 32.768-14.848 68.608-35.84 35.328-20.992 64.512-42.496 64.512-42.496 15.36-11.264 30.208-38.4 32.256-57.344 0-0.512 3.584-36.352 3.584-78.336 0.512-42.496-3.584-78.848-3.584-78.848zM365.568 275.2c-0.512 8.192-4.096 15.872-10.24 20.48-5.12 4.096-11.264 6.144-18.432 6.144-10.24 0-20.48-4.608-28.16-12.288-10.752-10.752-20.48-19.968-30.208-27.136-3.072 7.68-6.144 17.408-5.632 22.528 0.512 4.608 1.536 9.216 3.072 14.336 3.584 15.872 7.68 33.28 1.024 47.616-6.144 14.848-18.944 27.648-35.328 34.816-16.896 7.68-35.328 8.192-50.688 1.536-16.384-7.168-28.672-19.456-34.816-35.328-6.144-16.384-5.632-34.816 1.536-51.712 5.632-13.312 19.968-23.040 32.256-32.256 3.584-2.56 6.656-4.608 9.728-7.168 4.608-3.584 9.728-13.312 13.312-21.504-10.752-1.536-22.016-2.048-35.328-2.048-18.944 0-34.816-12.8-36.864-29.184-1.024-7.68 2.048-15.36 7.68-21.504 7.168-7.68 17.92-12.288 29.696-12.288 0 0 0.512 0 0.512 0 18.944 0 37.376 2.56 55.808 7.168-0.512-0.512-0.512-0.512-0.512-1.024-11.264-20.992-11.264-46.592 1.024-67.072 9.216-15.872 24.064-26.624 41.472-31.232 5.632-1.536 11.264-2.048 17.408-2.048 11.776 0 23.552 3.072 34.304 9.216 15.872 9.216 26.624 24.064 31.232 41.472s2.048 35.84-7.168 51.712c-9.216 15.872-24.576 27.136-42.496 31.744 15.872 10.24 30.72 22.016 44.032 35.328 8.192 8.192 12.8 18.944 11.776 29.696zM212.48 273.152c-3.072 2.56-6.656 5.12-10.24 7.68-9.728 6.656-22.016 15.36-25.088 23.552-5.12 12.288-5.632 25.088-1.536 36.352 4.096 10.752 12.8 19.456 24.064 24.064 10.24 4.608 22.528 4.096 34.304-1.536 11.264-5.12 20.48-14.336 24.576-24.064 3.584-8.704 0.512-22.528-2.56-35.328-1.024-5.12-2.56-10.752-3.072-15.872-2.048-12.8 5.12-30.208 8.192-36.864-8.704-4.608-17.92-8.704-27.648-11.264-2.56 7.168-10.752 25.088-20.992 33.28zM281.6 194.304l7.168-16.896c4.096-9.216 2.048-15.872 1.024-16.896l-7.68-3.072c-1.536 0-7.68 3.072-11.264 12.288l-7.168 16.896c6.144 2.048 12.288 4.608 17.92 7.68zM334.336 167.68c6.656-10.752 8.192-23.552 5.12-35.84s-10.752-22.528-22.016-29.184c-10.752-6.656-23.552-8.192-35.84-5.12s-22.528 10.752-29.184 22.016c-8.192 13.824-8.704 30.208-1.536 44.544l1.024-2.56c3.584-8.192 8.704-14.848 14.848-19.456 5.12-3.584 10.24-5.12 15.36-5.12 2.56 0 5.632 0.512 8.192 1.536l7.68 3.072c7.168 3.072 12.288 10.24 13.312 19.456 1.024 7.68 0 16.384-3.584 24.064l-1.536 4.096c11.776-3.072 22.016-10.752 28.16-21.504zM338.944 259.328c-41.984-43.008-100.352-67.584-160.256-68.608v0c-5.632 0-11.264 2.048-14.336 5.632-1.024 1.024-2.56 3.072-2.048 5.632 0.512 5.632 7.68 10.752 16.384 10.752 64.512 1.024 99.84 15.872 144.896 62.464 4.096 4.096 8.704 6.144 13.312 6.144 2.048 0 4.096-0.512 5.632-1.536 2.048-1.536 2.56-4.096 2.56-5.632 0.512-5.12-2.048-10.24-6.144-14.848zM197.12 352.512c-2.048-1.024-8.192-4.608-12.8-15.36-3.584-9.216-2.048-18.432-1.536-19.456 1.024-4.608 5.12-7.68 9.728-7.68 0.512 0 1.536 0 2.048 0 5.632 1.024 9.216 6.656 7.68 12.288 0 1.024-0.512 4.608 0.512 7.168 1.536 3.072 2.56 4.608 3.072 4.608 4.608 2.56 6.144 8.192 4.096 12.8-1.536 5.632-7.168 7.68-12.8 5.632z" />
<glyph unicode="&#x66;" d="M474.112 304.896c-2.56 24.576-20.992 56.832-40.448 71.68 0 0-29.696 22.016-66.56 43.52-36.864 22.016-70.656 36.864-70.656 36.864-10.752 5.12-25.6 7.68-40.448 7.68s-29.696-2.56-40.448-7.68c0 0-33.28-14.848-70.656-36.864-36.864-22.016-66.56-43.52-66.56-43.52-19.968-14.848-37.888-47.104-40.448-71.68 0 0-4.096-36.864-4.096-80.896 0-43.52 4.096-80.896 4.096-80.896 2.56-24.576 20.992-56.832 40.448-71.68 0 0 29.696-22.016 66.56-44.032s70.656-36.864 70.656-36.864c11.264-5.12 26.112-7.68 40.448-7.68 14.848 0 29.696 2.56 40.448 7.68 0 0 33.28 14.848 70.656 36.864 36.864 22.016 66.56 44.032 66.56 44.032 19.968 14.848 37.888 47.104 40.448 71.68 0 0 4.096 36.864 4.096 80.896 0 43.52-4.096 80.896-4.096 80.896zM453.632 145.664c-2.048-19.456-17.408-46.080-32.256-57.344-0.512 0-29.184-21.504-64.512-42.496s-68.096-35.84-68.608-35.84c-8.192-4.096-19.968-6.144-32.256-6.144s-24.064 2.048-32.256 5.632c-0.512 0-32.768 14.848-68.608 35.84-35.328 20.992-64.512 42.496-64.512 42.496-15.36 11.264-30.208 38.4-32.256 57.344 0 0.512-3.584 36.352-3.584 78.336s3.584 78.336 3.584 78.336c2.048 19.456 17.408 46.080 32.256 57.344 0.512 0 29.184 21.504 64.512 42.496s68.096 35.84 68.608 35.84c8.192 4.608 19.968 6.656 32.256 6.656s24.064-2.048 32.256-5.632c0.512 0 32.768-14.848 68.608-35.84 35.328-20.992 64.512-42.496 64.512-42.496 15.36-11.264 30.208-38.4 32.256-57.344 0-0.512 3.584-36.352 3.584-78.336 0.512-42.496-3.584-78.848-3.584-78.848zM371.2 210.176c-1.536 1.024-3.584 2.048-5.632 3.072 11.776 17.92 12.288 40.96 12.288 41.984 0 3.072-1.024 5.632-3.584 7.68-2.048 2.048-5.12 3.072-8.192 2.56-2.56-0.512-9.216-1.536-17.408-3.584v8.192c0 54.272-44.032 98.304-98.304 98.304s-98.304-44.032-98.304-98.304v-119.808c0-0.512 0-1.024 0-1.024 0-0.512 0-1.024 0-1.024 0-5.632 4.608-10.24 10.24-10.24h84.992c0.512-2.048 1.536-4.096 3.072-5.632 2.048-1.536 4.096-2.56 6.656-2.56 0.512 0 1.024 0 1.536 0 4.096 0.512 20.48 3.072 33.792 10.24 5.12-9.728 13.312-17.408 20.992-20.48 7.168-3.072 13.824-4.096 19.968-4.096 23.552 0 41.472 17.408 48.64 29.184 12.288 18.944 14.336 48.128-10.752 65.536zM345.6 220.928c-4.096-4.608-11.776-6.656-17.408-7.168 1.024 6.144 3.072 13.824 7.68 19.456 3.072 4.096 11.776 7.168 19.968 9.728-1.536-7.68-4.608-15.872-10.24-22.016zM248.832 157.44c-0.512 0-1.024 0-1.536 0h-75.264v112.128c0 43.008 34.816 77.824 77.824 77.824s77.824-34.816 77.824-77.824v-16.896c-3.584-2.048-6.144-4.608-8.704-7.68-12.8-15.872-13.312-39.936-13.312-42.496 0-0.512 0-0.512 0-1.024-1.024 0-2.048 0-3.584 0-9.728 0-28.16-2.048-39.936-14.336-7.168-8.192-11.264-19.968-13.312-29.696zM268.288 152.32c1.536 7.168 4.608 15.36 9.728 21.504 3.584 4.096 9.728 6.144 14.848 6.656-4.096-7.168-6.144-14.336-6.144-19.968-3.072-3.072-10.752-6.144-18.432-8.192zM364.544 154.88c0-0.512-17.92-28.16-43.52-16.896-4.608 2.048-11.264 8.192-12.8 16.896 1.024 1.536 1.536 3.072 2.56 4.608 4.096-7.68 12.288-12.288 22.016-12.8 8.704 0 18.944 6.656 23.040 15.36 3.584 7.68 2.56 15.872-2.56 22.016-3.584 4.096-10.24 4.608-14.336 1.024s-4.608-9.728-1.536-13.824c-0.512-1.536-3.072-3.584-4.096-4.096-3.584 0-4.608 1.536-5.12 2.56-1.536 3.072-1.024 9.728 4.096 16.896 8.704 11.776 20.992 11.264 27.136 7.168 19.456-13.824 7.68-34.816 5.12-38.912zM282.112 255.744h-65.536c-5.632 0-10.24-4.608-10.24-10.24s4.608-10.24 10.24-10.24h65.024c5.632 0 10.24 4.608 10.24 10.24 0.512 5.632-4.096 10.24-9.728 10.24zM269.824 227.072h-40.448c-5.632 0-10.24-4.608-10.24-10.24s4.608-10.24 10.24-10.24h40.448c5.632 0 10.24 4.608 10.24 10.24s-4.608 10.24-10.24 10.24zM250.368 265.472c14.848 0 26.624 13.312 26.624 30.208s-11.776 30.208-26.624 30.208-26.624-13.312-26.624-30.208 11.776-30.208 26.624-30.208zM250.368 304.896c3.072 0 6.144-4.096 6.144-9.728s-3.072-9.728-6.144-9.728c-3.072 0-6.144 4.096-6.144 9.728s3.072 9.728 6.144 9.728z" />
<glyph unicode="&#x67;" d="M474.112 304.896c-2.56 24.576-20.992 56.832-40.448 71.68 0 0-29.696 22.016-66.56 43.52-36.864 22.016-70.656 36.864-70.656 36.864-10.752 5.12-25.6 7.68-40.448 7.68s-29.696-2.56-40.448-7.68c0 0-33.28-14.848-70.656-36.864-36.864-22.016-66.56-43.52-66.56-43.52-19.968-14.848-37.888-47.104-40.448-71.68 0 0-4.096-36.864-4.096-80.896s4.096-80.896 4.096-80.896c2.56-24.576 20.992-56.832 40.448-71.68 0 0 29.696-22.016 66.56-44.032s70.656-36.864 70.656-36.864c11.264-5.12 26.112-7.68 40.448-7.68s29.696 2.56 40.448 7.68c0 0 33.28 14.848 70.656 36.864 36.864 22.016 66.56 44.032 66.56 44.032 19.968 14.848 37.888 47.104 40.448 71.68 0 0 4.096 36.864 4.096 80.896s-4.096 80.896-4.096 80.896zM453.632 145.664c-2.048-19.456-17.408-46.080-32.256-57.344-0.512 0-29.184-21.504-64.512-42.496s-68.096-35.84-68.608-35.84c-8.192-4.096-19.968-6.144-32.256-6.144s-24.064 2.048-32.256 5.632c-0.512 0-32.768 14.848-68.608 35.84-35.328 20.992-64.512 42.496-64.512 42.496-15.36 11.264-30.208 38.4-32.256 57.344 0 0.512-3.584 36.352-3.584 78.336s3.584 78.336 3.584 78.336c2.048 19.456 17.408 46.080 32.256 57.344 0.512 0 29.184 21.504 64.512 42.496s68.096 35.84 68.608 35.84c8.192 4.608 19.968 6.656 32.256 6.656s24.064-2.048 32.256-5.632c0.512 0 32.768-14.848 68.608-35.84 35.328-20.992 64.512-42.496 64.512-42.496 15.36-11.264 30.208-38.4 32.256-57.344 0-0.512 3.584-36.352 3.584-78.336 0.512-42.496-3.584-78.848-3.584-78.848zM326.656 318.208c-34.816 1.536-57.856-20.48-70.656-35.84-12.8 15.36-35.84 37.376-70.656 35.84-23.552-1.024-44.032-16.384-52.736-38.4-7.168-17.92-11.776-55.808 36.864-104.448 19.968-20.48 67.584-64 81.408-72.192 1.536-1.024 3.584-1.536 5.12-1.536s3.584 0.512 5.12 1.536c13.824 8.192 61.44 51.712 81.408 72.192 48.128 48.64 43.52 86.528 36.864 104.448-8.704 22.016-29.184 36.864-52.736 38.4zM328.192 189.184c-19.968-20.48-56.32-53.248-72.192-65.536-15.872 11.776-51.712 45.056-72.192 65.536-29.184 29.696-40.96 59.904-32.256 82.944 5.632 14.336 19.456 24.576 34.816 25.088 1.024 0 1.536 0 2.56 0 28.672 0 46.592-22.528 56.32-34.816 0 0 0 0 0-0.512 0-1.024 0-1.536 0.512-2.56l9.216-27.136-15.36-15.872c-3.584-3.584-4.096-9.216-1.024-13.312l14.848-19.968-14.336-16.896c-3.584-4.096-3.072-10.752 1.024-14.336 2.048-1.536 4.096-2.56 6.656-2.56 3.072 0 5.632 1.024 7.68 3.584l19.456 23.040c3.072 3.584 3.072 8.704 0.512 12.8l-13.824 19.968 13.824 13.824c2.56 2.56 3.584 6.656 2.56 10.24l-10.24 30.208c10.24 12.8 29.184 35.84 58.88 34.304 14.848-0.512 29.184-10.752 34.816-25.088 8.704-23.040-3.072-53.248-32.256-82.944z" />
<glyph unicode="&#x68;" d="M474.112 304.896c-2.56 24.576-20.992 56.832-40.448 71.68 0 0-29.696 22.016-66.56 43.52-36.864 22.016-70.656 36.864-70.656 36.864-10.752 5.12-25.6 7.68-40.448 7.68s-29.696-2.56-40.448-7.68c0 0-33.28-14.848-70.656-36.864-36.864-22.016-66.56-43.52-66.56-43.52-19.968-14.848-37.888-47.104-40.448-71.68 0 0-4.096-36.864-4.096-80.896 0-43.52 4.096-80.896 4.096-80.896 2.56-24.576 20.992-56.832 40.448-71.68 0 0 29.696-22.016 66.56-44.032s70.656-36.864 70.656-36.864c11.264-5.12 26.112-7.68 40.448-7.68s29.696 2.56 40.448 7.68c0 0 33.28 14.848 70.656 36.864 36.864 22.016 66.56 44.032 66.56 44.032 19.968 14.848 37.888 47.104 40.448 71.68 0 0 4.096 36.864 4.096 80.896 0 43.52-4.096 80.896-4.096 80.896zM453.632 145.664c-2.048-19.456-17.408-46.080-32.256-57.344-0.512 0-29.184-21.504-64.512-42.496s-68.096-35.84-68.608-35.84c-8.192-4.096-19.968-6.144-32.256-6.144s-24.064 2.048-32.256 5.632c-0.512 0-32.768 14.848-68.608 35.84-35.328 20.992-64.512 42.496-64.512 42.496-15.36 11.264-30.208 38.4-32.256 57.344 0 0.512-3.584 36.352-3.584 78.336s3.584 78.336 3.584 78.336c2.048 19.456 17.408 46.080 32.256 57.344 0.512 0 29.184 21.504 64.512 42.496s68.096 35.84 68.608 35.84c8.192 4.608 19.968 6.656 32.256 6.656s24.064-2.048 32.256-5.632c0.512 0 32.768-14.848 68.608-35.84 35.328-20.992 64.512-42.496 64.512-42.496 15.36-11.264 30.208-38.4 32.256-57.344 0-0.512 3.584-36.352 3.584-78.336 0.512-42.496-3.584-78.848-3.584-78.848zM355.84 277.248h-44.032v44.032c0 11.264-9.216 20.48-20.48 20.48h-65.024c-11.264 0-20.48-9.216-20.48-20.48v-44.032h-44.032c-11.264 0-20.48-9.216-20.48-20.48v-64.512c0-11.264 9.216-20.48 20.48-20.48h44.032v-44.032c0-11.264 9.216-20.48 20.48-20.48h64.512c11.264 0 20.48 9.216 20.48 20.48v44.032h44.032c11.264 0 20.48 9.216 20.48 20.48v64.512c0.512 11.264-8.704 20.48-19.968 20.48zM355.84 192.256h-64.512v-64.512h-65.024v64.512h-64.512v64.512h64.512v64.512h64.512v-64.512h64.512v-64.512z" />
<glyph unicode="&#x69;" d="M474.112 304.896c-2.56 24.576-20.992 56.832-40.448 71.68 0 0-29.696 22.016-66.56 43.52-36.864 22.016-70.656 36.864-70.656 36.864-10.752 5.12-25.6 7.68-40.448 7.68s-29.696-2.56-40.448-7.68c0 0-33.28-14.848-70.656-36.864-36.864-22.016-66.56-43.52-66.56-43.52-19.968-14.848-37.888-47.104-40.448-71.68 0 0-4.096-36.864-4.096-80.896 0-43.52 4.096-80.896 4.096-80.896 2.56-24.576 20.992-56.832 40.448-71.68 0 0 29.696-22.016 66.56-44.032s70.656-36.864 70.656-36.864c11.264-5.12 26.112-7.68 40.448-7.68 14.848 0 29.696 2.56 40.448 7.68 0 0 33.28 14.848 70.656 36.864 36.864 22.016 66.56 44.032 66.56 44.032 19.968 14.848 37.888 47.104 40.448 71.68 0 0 4.096 36.864 4.096 80.896 0 43.52-4.096 80.896-4.096 80.896zM453.632 145.664c-2.048-19.456-17.408-46.080-32.256-57.344-0.512 0-29.184-21.504-64.512-42.496s-68.096-35.84-68.608-35.84c-8.192-4.096-19.968-6.144-32.256-6.144s-24.064 2.048-32.256 5.632c-0.512 0-32.768 14.848-68.608 35.84-35.328 20.992-64.512 42.496-64.512 42.496-15.36 11.264-30.208 38.4-32.256 57.344 0 0.512-3.584 36.352-3.584 78.336s3.584 78.336 3.584 78.336c2.048 19.456 17.408 46.080 32.256 57.344 0.512 0 29.184 21.504 64.512 42.496s68.096 35.84 68.608 35.84c8.192 4.608 19.968 6.656 32.256 6.656s24.064-2.048 32.256-5.632c0.512 0 32.768-14.848 68.608-35.84 35.328-20.992 64.512-42.496 64.512-42.496 15.36-11.264 30.72-38.4 32.256-57.344 0-0.512 3.584-36.352 3.584-78.336 0.512-42.496-3.584-78.848-3.584-78.848zM274.944 136.96c0-11.311-9.169-20.48-20.48-20.48s-20.48 9.169-20.48 20.48c0 11.311 9.169 20.48 20.48 20.48s20.48-9.169 20.48-20.48zM232.448 192.256c0-7.069-5.731-12.8-12.8-12.8s-12.8 5.731-12.8 12.8c0 7.069 5.731 12.8 12.8 12.8s12.8-5.731 12.8-12.8zM287.744 205.056c-7.168 0-12.8-5.632-12.8-12.8s5.632-12.8 12.8-12.8c7.168 0 12.8 5.632 12.8 12.8s-5.632 12.8-12.8 12.8zM358.912 262.912c-18.944 0-36.864-7.68-50.176-21.504-6.144 3.072-12.8 5.12-19.456 6.656 14.336 7.68 26.112 19.968 32.768 35.328 1.536 0.512 2.56 1.024 3.584 2.56l35.84 35.84c4.096 4.096 4.096 10.24 0 14.336s-10.24 4.096-14.336 0l-18.432-18.432v56.32c0 5.632-4.608 10.24-10.24 10.24s-10.24-4.608-10.24-10.24v-55.296l-18.432 17.92c-4.096 4.096-10.24 4.096-14.336 0s-4.096-10.24 0-14.336l28.672-29.184c-7.68-19.456-27.136-33.28-49.152-33.28-21.504 0-40.448 12.8-48.64 31.744l29.696 29.696c4.096 4.096 4.096 10.24 0 14.336s-10.24 4.096-14.336 0l-19.968-19.968v57.856c0 5.632-4.608 10.24-10.24 10.24s-10.24-4.608-10.24-10.24v-53.76l-16.896 16.896c-4.096 4.096-10.24 4.096-14.336 0s-4.096-10.24 0-14.336l34.816-34.816c0.512-0.512 1.024-1.024 1.536-2.048 0.512-0.512 0.512-0.512 1.024-0.512 6.656-15.872 18.432-28.672 33.28-36.864-6.144-1.024-12.288-3.072-17.92-5.632-12.8 13.312-30.72 20.48-49.152 20.48-21.504 0-40.96-9.728-54.272-26.112-3.072-3.584-3.072-9.216 0-12.8 13.312-16.896 33.28-26.112 54.272-26.112 7.68 0 15.872 1.536 23.040 4.096 0-1.536 0-3.072 0-4.608v-47.104c0-43.008 35.328-78.336 78.336-78.336s78.336 35.328 78.336 78.336v47.104c0 2.048 0 4.096 0 5.632 8.192-3.584 16.896-5.12 26.112-5.12 21.504 0 40.96 9.728 54.272 26.112 3.072 3.584 3.072 9.216 0 12.8-13.824 16.384-33.792 26.112-54.784 26.112zM120.832 230.144c8.704 7.68 20.48 12.288 32.256 12.288 12.288 0 23.552-4.608 32.256-12.288-8.704-7.68-20.48-12.288-32.256-12.288s-23.040 4.608-32.256 12.288zM312.32 150.272c0-31.744-26.112-57.856-57.856-57.856s-57.856 26.112-57.856 57.856v47.104c0 24.576 14.848 33.28 57.856 33.28 43.52 0 57.856-8.192 57.856-33.28v-47.104zM358.912 217.856c-12.288 0-23.552 4.608-32.256 12.288 8.704 7.68 20.48 12.288 32.256 12.288 12.288 0 23.552-4.608 32.256-12.288-9.216-7.68-20.48-12.288-32.256-12.288z" />
<glyph unicode="&#x6a;" d="M396.8 234.24c-8.534 0-17.067-1.707-24.747-4.267l-5.974 14.506 14.507 5.12c10.24 3.413 15.36 14.506 11.947 24.746l-5.974 17.92c-3.413 10.24-14.507 15.36-24.747 11.947l-17.067-5.974-18.774 47.786c-3.413 7.68-10.24 13.654-18.774 15.36s-17.067-0.853-23.040-6.827l-23.040-23.040c-5.12-5.12-5.12-12.8 0-17.92s12.8-5.12 17.92 0l23.040 23.040 14.507-36.693h-77.654c-10.24 0-19.626-5.974-23.893-16.214l-10.24-25.6h-14.506l-26.453 26.453c-5.12 5.12-11.946 7.68-18.773 7.68h-76.8c-6.827 0-12.8-5.974-12.8-12.8s5.974-12.8 12.8-12.8h76.8l31.573-31.573-17.066-15.36c-12.8 9.387-28.16 14.506-44.374 14.506-41.814 0-75.094-33.28-75.094-75.094 0-40.96 34.133-75.094 75.094-75.094 30.72 0 58.026 18.774 69.12 45.226h101.547c8.534 0 15.36 5.12 18.774 11.094l18.774 34.986c-0.853-5.12-1.707-10.24-1.707-16.214 0-40.96 34.134-75.094 75.094-75.094 41.813 0 75.094 33.28 75.094 75.094s-33.28 75.094-75.094 75.094zM164.694 159.147c0-1.707 0-2.56 0-3.413h-38.4l31.573 28.16c4.267-6.827 6.827-15.36 6.827-24.747zM115.2 110.507c-27.306 0-49.493 22.187-49.493 49.493s22.186 49.493 49.493 49.493c9.386 0 17.92-2.56 24.747-6.827l-30.72-27.306c-7.68-6.827-10.24-17.92-6.826-28.16s13.653-16.214 23.894-16.214h28.16c-8.534-12.8-23.040-20.48-39.254-20.48zM190.293 155.733c0 0.853 0 2.56 0 3.413 0 15.36-5.12 29.866-12.8 41.813l10.24 9.387 15.36-54.613h-12.8zM396.8 110.507c-27.306 0-49.493 22.187-49.493 49.493 0 8.534 1.707 16.214 5.974 23.040l36.694-43.52c4.267-5.12 12.8-5.974 17.92-1.707s5.974 12.8 1.707 17.92l-34.133 40.106c3.413 2.56 5.12 5.974 5.12 10.24 5.12 1.707 10.24 2.56 16.214 2.56 27.306 0 49.493-22.187 49.493-49.493 0-26.454-22.187-48.64-49.493-48.64z" />
<glyph unicode="&#x6b;" d="M110.933 215.466c-27.306 0-50.346-22.187-50.346-50.346 0-27.307 22.187-50.346 50.346-50.346 27.307 0 50.347 22.187 50.347 50.346 0 27.307-23.040 50.346-50.346 50.346zM110.933 138.666c-14.507 0-26.454 11.947-26.454 26.454s11.947 26.454 26.453 26.454c14.507 0 26.453-11.947 26.453-26.454s-11.947-26.454-26.453-26.454zM401.92 215.466c-27.306 0-50.346-22.187-50.346-50.346 0-27.307 22.187-50.346 50.346-50.346 27.306 0 50.346 22.187 50.346 50.346-0.853 27.307-23.040 50.346-50.346 50.346zM401.92 138.666c-14.507 0-26.454 11.947-26.454 26.454s11.947 26.454 26.454 26.454c14.507 0 26.454-11.947 26.454-26.454s-11.947-26.454-26.454-26.454zM438.613 255.573c-10.24 2.56-42.666 7.68-42.666 7.68-21.334 19.626-45.226 39.253-60.587 49.493-24.747 16.214-45.226 19.627-91.306 19.627-45.227 0-105.814 0-123.734 0-46.933 0-103.254-62.293-103.254-100.694 0-2.56 0.854-31.574 3.413-42.666 3.413-17.067 12.8-22.187 27.306-26.454 0 0.853 0 1.707 0 1.707 0 34.133 28.16 62.293 62.294 62.293 34.987 0 62.293-28.16 62.293-62.293 0-1.707 0-3.413 0-5.12h166.4c0 1.707 0 3.413 0 5.12 0 34.133 28.16 62.293 62.293 62.293 34.986 0 62.293-28.16 62.293-62.293 0-1.707 0-3.413 0-5.12 17.067 0 29.866 13.654 29.866 30.72 0 0 0 20.48 0 28.16 0.853 25.6-32.426 33.28-54.613 37.547zM151.893 259.84c-20.48 0-29.013 0-35.84 0-14.507 0-17.92 7.68-25.6 27.306-5.12 11.947 5.974 24.747 25.6 26.454 5.974 0.853 14.506 0.853 35.84 0.853v-54.613zM242.346 258.986c-23.893 0-48.64 0-70.827 0v54.614c23.893 0 50.346 0 70.827 0v-54.613zM350.72 259.84c-1.707 0-41.813 0-88.746 0v53.76c5.974 0 11.094 0 12.8 0 24.747 0 49.493-12.8 63.147-26.454 24.747-25.6 12.8-27.306 12.8-27.306z" />
</font>
</defs>
</svg>
