<?xml version="1.0" encoding="utf-8"?>
<!-- Generator: Adobe Illustrator 16.0.0, SVG Export Plug-In . SVG Version: 6.00 Build 0)  -->
<!DOCTYPE svg PUBLIC "-//W3C//DTD SVG 1.1//EN" "http://www.w3.org/Graphics/SVG/1.1/DTD/svg11.dtd">
<svg version="1.1" id="Layer_1" xmlns:sketch="http://www.bohemiancoding.com/sketch/ns"
	 xmlns="http://www.w3.org/2000/svg" xmlns:xlink="http://www.w3.org/1999/xlink" x="0px" y="0px" width="100px" height="100px"
	 viewBox="-23.5 -23.5 100 100" enable-background="new -23.5 -23.5 100 100" xml:space="preserve">
<title>Rectangle 81</title>
<desc>Created with Sketch.</desc>
<g id="Page-3" sketch:type="MSPage">
	<g id="landscape_gibdd-11" transform="translate(-360.000000, -1302.000000)" sketch:type="MSArtboardGroup">
		
			<g id="Fill-13-_x2B_-Fill-12-_x2B_-Imported-Layers-3" transform="translate(312.000000, 1254.000000)" sketch:type="MSLayerGroup">
			<path id="Rectangle-81" sketch:type="MSShapeGroup" d="M62.04,74L51.252,63.212c-3.125-3.126-3.125-8.19-0.001-11.314
				l0.648-0.648c3.12-3.12,8.189-3.123,11.314,0.001L74,62.04l10.787-10.788c3.127-3.125,8.19-3.125,11.314-0.001l0.648,0.648
				c3.119,3.12,3.123,8.189-0.002,11.314L85.96,74l10.788,10.787c3.125,3.127,3.125,8.19,0.002,11.314l-0.648,0.648
				c-3.119,3.119-8.189,3.123-11.314-0.002L74,85.96L63.212,96.748c-3.126,3.125-8.19,3.125-11.314,0.002l-0.648-0.648
				c-3.12-3.119-3.123-8.189,0.001-11.314L62.04,74z"/>
		</g>
	</g>
</g>
</svg>
