<?xml version="1.0" encoding="UTF-8" standalone="no"?>
<svg width="33px" height="33px" viewBox="0 0 33 33" version="1.1" xmlns="http://www.w3.org/2000/svg" xmlns:xlink="http://www.w3.org/1999/xlink" xmlns:sketch="http://www.bohemiancoding.com/sketch/ns">
    <!-- Generator: Sketch 3.0.4 (8054) - http://www.bohemiancoding.com/sketch -->
    <title>Imported Layers</title>
    <desc>Created with Sketch.</desc>
    <defs></defs>
    <g id="Page-1" stroke="none" stroke-width="1" fill="none" fill-rule="evenodd" sketch:type="MSPage">
        <g id="iphone_feedback-2" sketch:type="MSArtboardGroup" transform="translate(-40.000000, -855.000000)" fill="#0173C1">
            <g id="iphone_footer_04" sketch:type="MSLayerGroup" transform="translate(0.000000, 813.000000)">
                <g id="Позвоните-нам-+-Imported-Layers" transform="translate(40.000000, 40.000000)" sketch:type="MSShapeGroup">
                    <path d="M23.2928222,34.803 C21.4018222,34.803 19.4458222,34.472 17.4768222,33.818 C13.8648222,32.615 10.3758222,30.401 7.38482223,27.414 C4.39282223,24.418 2.17882223,20.927 0.980822232,17.319 C-0.243177768,13.634 -0.323177768,9.975 0.749822232,6.74 C0.931822232,6.199 1.14582223,5.688 1.38882223,5.211 L1.35782223,5.211 L1.72082223,4.605 C2.04882223,4.061 2.43282223,3.55 2.86182223,3.087 C3.21082223,2.712 3.61582223,2.429 4.06782223,2.245 L4.18782223,2.203 C4.55782223,2.069 4.95382223,2 5.36182223,2 L5.50282223,2.003 C6.01482223,2.029 6.48982223,2.155 6.92082223,2.377 L6.96182223,2.398 L7.06082223,2.466 L7.99082223,3.257 L12.7628222,9.39 L12.8398222,9.499 C13.0838222,9.834 13.2638222,10.207 13.3688222,10.601 C13.4848222,11.039 13.5118222,11.494 13.4488222,11.955 C13.3788222,12.427 13.2268222,12.857 12.9948222,13.239 C12.7178222,13.677 12.4248222,13.985 12.0718222,14.237 L9.80282223,15.89 C9.70282223,16.188 9.65382223,16.711 10.1138222,17.369 C11.0498222,18.711 12.0938222,19.971 13.2198222,21.117 L13.4488222,21.345 C14.6708222,22.569 16.0088222,23.692 17.4268222,24.682 C17.7858222,24.933 18.1438222,25.06 18.4918222,25.06 C18.6608222,25.06 18.8038222,25.029 18.9098222,24.994 L20.1028222,23.356 L20.0978222,23.356 L20.5628222,22.719 C20.7938222,22.405 21.0628222,22.139 21.3658222,21.927 L21.3658222,21.916 L21.5608222,21.796 C21.9438222,21.569 22.3728222,21.419 22.8378222,21.351 C23.0388222,21.324 23.1878222,21.315 23.3358222,21.315 C23.6298222,21.315 23.9198222,21.353 24.1978222,21.428 C24.4018222,21.487 24.5888222,21.557 24.7638222,21.64 L24.7638222,21.535 L31.4828222,26.748 L31.5938222,26.841 C31.9408222,27.142 32.2168222,27.489 32.4178222,27.875 L32.4188222,27.875 C32.6458222,28.314 32.7718222,28.79 32.7928222,29.292 C32.8048222,29.595 32.7798222,29.891 32.7188222,30.178 L32.7708222,30.178 L32.5518222,30.727 C32.3708222,31.175 32.0898222,31.582 31.7148222,31.935 C31.2408222,32.37 30.7308222,32.753 30.1938222,33.076 C29.4698222,33.497 28.7758222,33.809 28.0508222,34.047 C26.5458222,34.548 24.9448222,34.803 23.2928222,34.803 L23.2928222,34.803 Z M4.44082223,6.401 C4.20082223,6.824 3.99682223,7.283 3.83482223,7.766 C2.98182223,10.333 3.06182223,13.284 4.06582223,16.297 C5.08982223,19.376 7.08782223,22.504 9.69182223,25.103 C12.3368222,27.748 15.3828222,29.694 18.5008222,30.73 C20.1348222,31.274 21.7468222,31.55 23.2928222,31.55 C24.5978222,31.55 25.8568222,31.352 27.0348222,30.961 C27.5508222,30.789 28.0298222,30.573 28.4618222,30.319 C28.8828222,30.061 29.2128222,29.815 29.4908222,29.552 L29.5138222,29.555 L29.5328222,29.503 L29.5318222,29.376 L29.5188222,29.352 L23.3118222,24.532 L23.3058222,24.575 L23.2038222,24.635 L22.7918222,25.196 L22.7898222,25.192 L21.3378222,27.18 C21.2188222,27.367 21.0348222,27.542 20.8218222,27.671 C20.6758222,27.771 19.7898222,28.331 18.4838222,28.331 C17.4818222,28.331 16.4998222,28 15.5668222,27.349 C13.9558222,26.225 12.4668222,24.982 11.1418222,23.654 L10.8798222,23.391 L10.8838222,23.387 C9.63182223,22.105 8.47682223,20.708 7.44782223,19.232 C5.64082223,16.643 6.81382223,14.481 7.13682223,13.986 L7.12782223,13.98 C7.23882223,13.791 7.38682223,13.628 7.56782223,13.496 L10.0788222,11.667 L10.1518222,11.609 L10.6178222,11.557 L10.2198222,11.51 L10.5418222,11.189 L10.1948222,11.395 L5.47282223,5.315 L5.46282223,5.315 L5.34982223,5.258 L4.95282223,5.03 L5.24682223,5.301 C4.97682223,5.595 4.72882223,5.927 4.50982223,6.288 L4.44082223,6.401 L4.44082223,6.401 Z" id="Imported-Layers"></path>
                </g>
            </g>
        </g>
    </g>
</svg>