<?xml version="1.0" encoding="UTF-8" standalone="no"?>
<svg width="34px" height="32px" viewBox="0 0 34 32" version="1.1" xmlns="http://www.w3.org/2000/svg" xmlns:xlink="http://www.w3.org/1999/xlink" xmlns:sketch="http://www.bohemiancoding.com/sketch/ns">
    <!-- Generator: Sketch 3.0.4 (8054) - http://www.bohemiancoding.com/sketch -->
    <title>Imported Layers 7</title>
    <desc>Created with Sketch.</desc>
    <defs></defs>
    <g id="Page-1" stroke="none" stroke-width="1" fill="none" fill-rule="evenodd" sketch:type="MSPage">
        <g id="iphone_feedback-2" sketch:type="MSArtboardGroup" transform="translate(-40.000000, -943.000000)" fill="#0173C1">
            <g id="iphone_footer_04" sketch:type="MSLayerGroup" transform="translate(0.000000, 813.000000)">
                <g id="Обратная-связь-+-Imported-Layers-7" transform="translate(40.000000, 127.000000)" sketch:type="MSShapeGroup">
                    <g id="Imported-Layers-7" transform="translate(0.000000, 3.000000)">
                        <path d="M5.36842105,0 C2.40863158,0 0,2.40491346 0,5.360134 L0,19.6538247 C0,22.6090452 2.40863158,25.0139587 5.36842105,25.0139587 L7.15789474,25.0139587 L7.15789474,28.5873814 C7.15789474,29.5343384 7.53368421,30.4134003 8.21726316,31.0584031 C8.85789474,31.665885 9.69894737,32 10.5793684,32 C11.3166316,32 12.0234737,31.7623674 12.6229474,31.3156896 C12.7804211,31.1977666 12.9164211,31.0548297 13.0273684,30.8940257 L17.0501053,25.0139587 L28.6315789,25.0139587 C31.5913684,25.0139587 34,22.6090452 34,19.6538247 L34,5.360134 C34,2.40491346 31.5913684,0 28.6315789,0 L5.36842105,0 Z M31.0000008,20.1748825 C31.0000008,21.1477126 30.1936008,21.9372559 29.2000008,21.9372559 L15.6000008,21.9372559 C15.0060008,21.9372559 14.4480008,22.2245227 14.1132008,22.7038883 L10.2000008,28.3135226 L10.2000008,23.6996292 C10.2000008,22.7250367 9.39540076,21.9372559 8.40000076,21.9372559 L4.80000076,21.9372559 C3.80640076,21.9372559 3.00000076,21.1477126 3.00000076,20.1748825 L3,4.76237333 C3,3.78954325 3.8064,3 4.8,3 L29.2,3 C30.1936,3 31,3.78954325 31,4.76237333 L31,18.86136 L31.0000008,20.1748825 Z" id="Fill-1"></path>
                        <path d="M25,7 L9,7 C7.81818182,7 7,7.9 7,9 C7,10.1 7.81818182,11 9,11 L25,11 C26.1818182,11 27,10.1 27,9 C27,7.9 26.1818182,7 25,7" id="Fill-2"></path>
                        <path d="M25,14 L9,14 C7.81818182,14 7,14.9 7,16 C7,17.1 7.81818182,18 9,18 L25,18 C26.1818182,18 27,17.1 27,16 C27,14.9 26.1818182,14 25,14" id="Fill-3"></path>
                    </g>
                </g>
            </g>
        </g>
    </g>
</svg>