<?xml version="1.0" encoding="UTF-8" standalone="no"?>
<svg width="34px" height="27px" viewBox="0 0 34 27" version="1.1" xmlns="http://www.w3.org/2000/svg" xmlns:xlink="http://www.w3.org/1999/xlink" xmlns:sketch="http://www.bohemiancoding.com/sketch/ns">
    <!-- Generator: Sketch 3.0.4 (8054) - http://www.bohemiancoding.com/sketch -->
    <title>Imported Layers</title>
    <desc>Created with Sketch.</desc>
    <defs></defs>
    <g id="Page-1" stroke="none" stroke-width="1" fill="none" fill-rule="evenodd" sketch:type="MSPage">
        <g id="iphone_feedback-2" sketch:type="MSArtboardGroup" transform="translate(-40.000000, -1032.000000)" fill="#0173C1">
            <g id="iphone_footer_04" sketch:type="MSLayerGroup" transform="translate(0.000000, 813.000000)">
                <g id="support@gosuslugi.ru-+-Imported-Layers" transform="translate(40.000000, 214.000000)" sketch:type="MSShapeGroup">
                    <path d="M0,30.371 L0,6.518 C0,5.429 0.352,5 1.312,5 L32.633,5 C33.594,5 34,5.429 34,6.518 L34,30.371 C34,31.459 33.594,32 32.633,32 L1.312,32 C0.352,32 0,31.459 0,30.371 Z M31,29 L31,10.435 L17.863,20.425 C17.639,20.679 17.314,20.819 16.998,20.819 C16.681,20.819 16.346,20.679 16.123,20.424 L3,10.435 L3,29 L31,29 L31,29 Z M16.971,17.08 L29.247,8 L4.693,8 L16.971,17.08 L16.971,17.08 Z" id="Imported-Layers"></path>
                </g>
            </g>
        </g>
    </g>
</svg>