<?xml version="1.0" encoding="UTF-8" standalone="no"?>
<svg width="65px" height="63px" viewBox="0 0 65 63" version="1.1" xmlns="http://www.w3.org/2000/svg" xmlns:xlink="http://www.w3.org/1999/xlink" xmlns:sketch="http://www.bohemiancoding.com/sketch/ns">
    <!-- Generator: Sketch 3.0.4 (8054) - http://www.bohemiancoding.com/sketch -->
    <title>thumbs28</title>
    <desc>Created with Sketch.</desc>
    <defs></defs>
    <g id="Page-3" stroke="none" stroke-width="1" fill="none" fill-rule="evenodd" sketch:type="MSPage">
        <g id="landscape_gibdd-10" sketch:type="MSArtboardGroup" transform="translate(-352.000000, -1374.000000)" fill="#4085D6">
            <g id="like33-2" sketch:type="MSLayerGroup" transform="translate(312.000000, 1334.000000)">
                <g id="thumbs28" transform="translate(40.171429, 40.171429)" sketch:type="MSShapeGroup">
                    <g id="Group">
                        <path d="M61.2482751,34.0505356 C62.7016438,32.3739272 63.4285714,30.39159 63.4285714,28.1025443 C63.4285714,26.0271166 62.6743962,24.2309604 61.1713979,22.7130958 C59.6649936,21.195721 57.8812475,20.4372787 55.8201596,20.4372787 L44.8393679,20.4372787 C44.9449524,20.0649168 45.0510235,19.7454694 45.1561215,19.4794267 C45.2612195,19.2133839 45.4076754,18.9203939 45.5920835,18.6009466 C45.7764915,18.2814993 45.9088371,18.0419138 45.9881471,17.8826801 C46.4635208,16.9782326 46.8274712,16.2325289 47.0785386,15.6475288 C47.3296059,15.0615488 47.5797002,14.2634204 47.8312541,13.2521639 C48.082808,12.2413973 48.2078552,11.2296509 48.2078552,10.2183944 C48.2078552,9.57998968 48.2005567,9.06064283 48.187906,8.66182364 C48.1752553,8.2625145 48.1081094,7.66379576 47.9898742,6.86517749 C47.8706658,6.06704916 47.7120458,5.40169724 47.5140139,4.86961169 C47.3154956,4.33752614 46.9982554,3.73831746 46.56278,3.07345549 C46.1263315,2.40761363 45.5979222,1.86915873 44.9765791,1.45662094 C44.355236,1.04408316 43.5626222,0.698178555 42.5977644,0.418907133 C41.6329067,0.139635711 40.5430018,0 39.3265901,0 C38.6395608,0 38.0454653,0.25281413 37.542844,0.758442389 C37.0144348,1.29052794 36.564849,1.95587985 36.1945733,2.75400818 C35.8247841,3.55262646 35.5669048,4.24443567 35.421422,4.82992575 C35.2759392,5.41541584 35.1105072,6.22726276 34.9260992,7.26497658 C34.6876825,8.38304216 34.5095998,9.18753984 34.3903914,9.67993945 C34.2711831,10.1723391 34.0395783,10.817603 33.6965502,11.6157314 C33.352549,12.4143496 32.9433481,13.0527543 32.4674878,13.5319253 C31.5955639,14.4099154 30.260917,16.006662 28.4635471,18.3216751 C27.1683119,20.0247409 25.833665,21.6347161 24.4596064,23.1516009 C23.0850611,24.6689756 22.0807917,25.4538753 21.4467979,25.5072798 C20.7865296,25.5601944 20.2182221,25.8330965 19.7423618,26.3254961 C19.2665016,26.8178957 19.0285714,27.3970165 19.0285714,28.0618784 L19.0285714,53.6495101 C19.0285714,54.3413193 19.2796388,54.9331787 19.7817736,55.4255783 C20.2839083,55.9179779 20.8784903,56.1776513 21.5655197,56.2041086 C22.4904791,56.2310559 24.5783281,56.816056 27.8290668,57.9610688 C29.8638802,58.6523881 31.4559199,59.1785943 32.6056722,59.5372376 C33.754938,59.8963708 35.361088,60.2824513 37.4212028,60.6949891 C39.4832639,61.1075269 41.3857318,61.3142857 43.1295796,61.3142857 L43.8034717,61.3142857 L46.8162802,61.3142857 L48.2433744,61.3142857 C51.7592908,61.2613711 54.3614387,60.2231674 56.053224,58.2011443 C57.5859028,56.3648122 58.2330338,53.9562187 57.9955902,50.9758536 C59.0261342,49.9910544 59.7404112,48.7407024 60.1359883,47.2238176 C60.5850875,45.6011036 60.5850875,44.044043 60.1359883,42.5541054 C61.3519134,40.9309015 61.9202209,39.1077981 61.8404243,37.0852851 C61.8428571,36.2327723 61.6453119,35.2220057 61.2482751,34.0505356 L61.2482751,34.0505356 Z" id="Shape"></path>
                        <path d="M14.3122415,25.3714286 L2.6025433,25.3714286 C1.89738631,25.3714286 1.28754779,25.6329604 0.772528672,26.1560241 C0.257509557,26.6790879 0,27.2984521 0,28.0141168 L0,54.4435329 C0,55.1586908 0.257509557,55.778055 0.772528672,56.3016256 C1.28804684,56.8241824 1.89788536,57.0857143 2.6025433,57.0857143 L14.3122415,57.0857143 C15.0168994,57.0857143 15.6267379,56.8241824 16.141757,56.3016256 C16.6567762,55.778055 16.9142857,55.1586908 16.9142857,54.4435329 L16.9142857,28.0141168 C16.9142857,27.2984521 16.6567762,26.6790879 16.141757,26.1560241 C15.6267379,25.6329604 15.0168994,25.3714286 14.3122415,25.3714286 L14.3122415,25.3714286 Z M7.82942627,50.1318247 C7.41094855,50.5393148 6.9154255,50.7428571 6.34285714,50.7428571 C5.74798619,50.7428571 5.24678613,50.5393148 4.83966245,50.1318247 C4.43213327,49.7243346 4.22857143,49.2235881 4.22857143,48.6287742 C4.22857143,48.0562607 4.43213327,47.5603797 4.83966245,47.1423476 C5.24678613,46.72391 5.74798619,46.5142857 6.34285714,46.5142857 C6.9154255,46.5142857 7.41094855,46.72391 7.82942627,47.1423476 C8.24790399,47.5603797 8.45714286,48.0562607 8.45714286,48.6287742 C8.45714286,49.2235881 8.2483095,49.7243346 7.82942627,50.1318247 L7.82942627,50.1318247 Z" id="Shape"></path>
                    </g>
                </g>
            </g>
        </g>
    </g>
</svg>