<?xml version="1.0" encoding="UTF-8" standalone="no"?>
<svg width="53px" height="53px" viewBox="0 0 53 53" version="1.1" xmlns="http://www.w3.org/2000/svg" xmlns:xlink="http://www.w3.org/1999/xlink" xmlns:sketch="http://www.bohemiancoding.com/sketch/ns">
    <!-- Generator: Sketch 3.0.4 (8054) - http://www.bohemiancoding.com/sketch -->
    <title>Rectangle 81</title>
    <desc>Created with Sketch.</desc>
    <defs></defs>
    <g id="Page-3" stroke="none" stroke-width="1" fill="none" fill-rule="evenodd" sketch:type="MSPage">
        <g id="landscape_gibdd-11" sketch:type="MSArtboardGroup" transform="translate(-360.000000, -1382.000000)" fill="#EA405A">
            <g id="Fill-13-+-Fill-12-+-Imported-Layers-3" sketch:type="MSLayerGroup" transform="translate(312.000000, 1334.000000)">
                <path d="M62.0397939,74 L51.2521671,63.2123732 C48.1262715,60.0864777 48.1268449,55.0223822 51.2506377,51.8985894 L51.8985894,51.2506377 C55.0182645,48.1309625 60.0877357,48.1275296 63.2123732,51.2521671 L74,62.0397939 L84.7876268,51.2521671 C87.9135223,48.1262715 92.9776178,48.1268449 96.1014106,51.2506377 L96.7493623,51.8985894 C99.8690375,55.0182645 99.8724704,60.0877357 96.7478329,63.2123732 L85.9602061,74 L96.7478329,84.7876268 C99.8737285,87.9135223 99.8731551,92.9776178 96.7493623,96.1014106 L96.1014106,96.7493623 C92.9817355,99.8690375 87.9122643,99.8724704 84.7876268,96.7478329 L74,85.9602061 L63.2123732,96.7478329 C60.0864777,99.8737285 55.0223822,99.8731551 51.8985894,96.7493623 L51.2506377,96.1014106 C48.1309625,92.9817355 48.1275296,87.9122643 51.2521671,84.7876268 L62.0397939,74 Z" id="Rectangle-81" sketch:type="MSShapeGroup"></path>
            </g>
        </g>
    </g>
</svg>