<?xml version="1.0" encoding="utf-8"?>
<!-- Generator: Adobe Illustrator 16.0.0, SVG Export Plug-In . SVG Version: 6.00 Build 0)  -->
<!DOCTYPE svg PUBLIC "-//W3C//DTD SVG 1.1//EN" "http://www.w3.org/Graphics/SVG/1.1/DTD/svg11.dtd">
<svg version="1.1" id="Layer_1" xmlns:sketch="http://www.bohemiancoding.com/sketch/ns"
	 xmlns="http://www.w3.org/2000/svg" xmlns:xlink="http://www.w3.org/1999/xlink" x="0px" y="0px" width="52px" height="52px"
	 viewBox="0 0 52 52" enable-background="new 0 0 52 52" xml:space="preserve">
<title>Oval 38 + ! 3</title>
<desc>Created with Sketch.</desc>
<g id="Oval-38">
	<path d="M26,44C14.972,44,6,35.028,6,24C6,12.972,14.972,4,26,4c11.028,0,20,8.972,20,20C46,35.028,37.028,44,26,44z M26,8
		c-8.822,0-16,7.178-16,16s7.178,16,16,16s16-7.178,16-16S34.822,8,26,8z"/>
</g>
<g enable-background="new    ">
	<path d="M24.191,17.397V14h3.463v3.397H24.191z M25.162,18.721h1.567l0.838,6.794v4.235h-3.265v-4.235L25.162,18.721z"/>
</g>
</svg>
