<?xml version="1.0" encoding="UTF-8" standalone="no"?>
<svg width="24px" height="40px" viewBox="0 0 24 40" version="1.1" xmlns="http://www.w3.org/2000/svg" xmlns:xlink="http://www.w3.org/1999/xlink" xmlns:sketch="http://www.bohemiancoding.com/sketch/ns">
    <!-- Generator: Sketch 3.0.4 (8054) - http://www.bohemiancoding.com/sketch -->
    <title>Rectangle 311</title>
    <desc>Created with Sketch.</desc>
    <defs></defs>
    <g id="Page-3" stroke="none" stroke-width="1" fill="none" fill-rule="evenodd" sketch:type="MSPage">
        <g id="landscape_gibdd-06" sketch:type="MSArtboardGroup" transform="translate(-1475.000000, -1443.000000)" fill="#FFFFFF">
            <g id="ipad/carousel-2" sketch:type="MSLayerGroup" transform="translate(312.000000, 1079.000000)">
                <path d="M1173.74654,388.106818 L1189.14057,372.712788 C1189.92072,371.932634 1191.18524,371.932277 1191.97083,372.71786 L1192.67103,373.418063 C1193.45398,374.201018 1193.45742,375.467002 1192.6761,376.248322 L1175.85943,393.06499 C1175.47783,393.44659 1174.98035,393.641622 1174.4797,393.649366 C1173.65849,394.274104 1172.48452,394.177585 1171.7831,393.398584 L1155.8696,375.724847 C1155.13134,374.904932 1155.19716,373.642124 1156.02279,372.898732 L1156.75867,372.236134 C1157.58153,371.495229 1158.84596,371.558053 1159.58532,372.379194 L1173.74654,388.106818 Z" id="Rectangle-311" sketch:type="MSShapeGroup" transform="translate(1174.500000, 383.000000) rotate(-90.000000) translate(-1174.500000, -383.000000) "></path>
            </g>
        </g>
    </g>
</svg>