<?xml version="1.0" encoding="UTF-8" standalone="no"?>
<svg width="24px" height="40px" viewBox="0 0 24 40" version="1.1" xmlns="http://www.w3.org/2000/svg" xmlns:xlink="http://www.w3.org/1999/xlink" xmlns:sketch="http://www.bohemiancoding.com/sketch/ns">
    <!-- Generator: Sketch 3.0.4 (8054) - http://www.bohemiancoding.com/sketch -->
    <title>Rectangle 310</title>
    <desc>Created with Sketch.</desc>
    <defs></defs>
    <g id="Page-3" stroke="none" stroke-width="1" fill="none" fill-rule="evenodd" sketch:type="MSPage">
        <g id="landscape_gibdd-06" sketch:type="MSArtboardGroup" transform="translate(-630.000000, -1443.000000)" fill="#FFFFFF">
            <g id="ipad/carousel-2" sketch:type="MSLayerGroup" transform="translate(312.000000, 1079.000000)">
                <path d="M328.746537,388.106818 L344.140567,372.712788 C344.920721,371.932634 346.185243,371.932277 346.970826,372.71786 L347.671029,373.418063 C348.453984,374.201018 348.457421,375.467002 347.676101,376.248322 L330.859433,393.06499 C330.477833,393.44659 329.980345,393.641622 329.479705,393.649366 C328.658493,394.274104 327.484516,394.177585 326.783101,393.398584 L310.869596,375.724847 C310.131342,374.904932 310.197165,373.642124 311.022785,372.898732 L311.758675,372.236134 C312.581533,371.495229 313.845962,371.558053 314.58532,372.379194 L328.746537,388.106818 Z" id="Rectangle-310" sketch:type="MSShapeGroup" transform="translate(329.500000, 383.000000) scale(-1, 1) rotate(-90.000000) translate(-329.500000, -383.000000) "></path>
            </g>
        </g>
    </g>
</svg>