<?xml version="1.0" encoding="utf-8"?>
<!-- Generator: Adobe Illustrator 16.0.0, SVG Export Plug-In . SVG Version: 6.00 Build 0)  -->
<!DOCTYPE svg PUBLIC "-//W3C//DTD SVG 1.1//EN" "http://www.w3.org/Graphics/SVG/1.1/DTD/svg11.dtd">
<svg version="1.1" id="Layer_1" xmlns:sketch="http://www.bohemiancoding.com/sketch/ns"
	 xmlns="http://www.w3.org/2000/svg" xmlns:xlink="http://www.w3.org/1999/xlink" x="0px" y="0px" width="25px" height="25px"
	 viewBox="0 0 25 25" enable-background="new 0 0 25 25" xml:space="preserve">
<title>Oval 41 + Rectangle 93 + Rectangle 94</title>
<desc>Created with Sketch.</desc>
<g id="Page-1" sketch:type="MSPage">
	<g id="Passport_pol" transform="translate(-220.000000, -3364.000000)" sketch:type="MSArtboardGroup">
		<g id="Step-16" transform="translate(130.000000, 2962.000000)" sketch:type="MSLayerGroup">
			<g id="Group" transform="translate(45.000000, 207.000000)" sketch:type="MSShapeGroup">
				<g id="Button" transform="translate(21.000000, 180.000000)">
					<g id="Oval-41-_x2B_-Rectangle-93-_x2B_-Rectangle-94" transform="translate(25.000000, 16.000000)">
						<g>
							<g id="Oval-41">
								<path fill="#231F20" d="M11.5,23.5c-6.617,0-12-5.383-12-12c0-6.617,5.383-12,12-12c6.617,0,12,5.383,12,12
									C23.5,18.117,18.117,23.5,11.5,23.5z M11.5,0.5c-6.065,0-11,4.935-11,11s4.935,11,11,11s11-4.935,11-11S17.565,0.5,11.5,0.5
									z"/>
							</g>
							<g id="Rectangle-93">
								<rect x="11" y="5" fill="#231F20" width="1.713" height="13"/>
							</g>
							<g id="Rectangle-94">
								<rect x="5.5" y="10.787" fill="#231F20" width="13" height="1.713"/>
							</g>
						</g>
					</g>
				</g>
			</g>
		</g>
	</g>
</g>
</svg>
