<?xml version="1.0" encoding="utf-8"?>
<!-- Generator: Adobe Illustrator 16.0.0, SVG Export Plug-In . SVG Version: 6.00 Build 0)  -->
<!DOCTYPE svg PUBLIC "-//W3C//DTD SVG 1.1//EN" "http://www.w3.org/Graphics/SVG/1.1/DTD/svg11.dtd">
<svg version="1.1" id="Layer_1" xmlns:sketch="http://www.bohemiancoding.com/sketch/ns"
	 xmlns="http://www.w3.org/2000/svg" xmlns:xlink="http://www.w3.org/1999/xlink" x="0px" y="0px" width="25px" height="25px"
	 viewBox="-4.5 -5 25 25" enable-background="new -4.5 -5 25 25" xml:space="preserve">
<title>Imported Layers</title>
<desc>Created with Sketch.</desc>
<g id="Page-3" sketch:type="MSPage">
	<g id="Main_regist_ok" transform="translate(-1114.000000, -137.000000)" sketch:type="MSArtboardGroup">
		<g id="Imported-Layers" transform="translate(1114.000000, 137.000000)" sketch:type="MSLayerGroup">
			<path id="Fill-1" sketch:type="MSShapeGroup" fill="#0173C1" d="M6.011,15c-0.517,0-1.01-0.195-1.387-0.553
				C4.222,14.066,4,13.551,4,12.992v-0.906h0.004C1.796,12.086,0,10.29,0,8.082V4.004C0,1.796,1.796,0,4.004,0l7.992,0.004
				C14.204,0.004,16,1.8,16,4.008v4.078c0,2.208-1.796,4.004-4.004,4.004l-2.548-0.004L7.26,14.559C6.899,14.848,6.467,15,6.011,15
				L6.011,15z M4.004,2C2.899,2,2,2.899,2,4.004v4.078c0,1.104,0.899,2.004,2.004,2.004H6v2.898l2.544-2.897l3.452,0.003
				c1.105,0,2.004-0.9,2.004-2.004V4.008c0-1.105-0.898-2.004-2.004-2.004L4.004,2L4.004,2z"/>
			<path id="Fill-2" sketch:type="MSShapeGroup" fill="#0173C1" d="M6,6c0,0.552-0.448,1-1,1S4,6.552,4,6s0.448-1,1-1S6,5.448,6,6"
				/>
			<path id="Fill-3" sketch:type="MSShapeGroup" fill="#0173C1" d="M9,6c0,0.552-0.448,1-1,1S7,6.552,7,6s0.448-1,1-1S9,5.448,9,6"
				/>
			<path id="Fill-4" sketch:type="MSShapeGroup" fill="#0173C1" d="M12,6c0,0.552-0.448,1-1,1s-1-0.448-1-1s0.448-1,1-1
				S12,5.448,12,6"/>
		</g>
	</g>
</g>
</svg>
