<?xml version="1.0" encoding="UTF-8" standalone="no"?>
<svg width="24px" height="14px" viewBox="0 0 24 14" version="1.1" xmlns="http://www.w3.org/2000/svg" xmlns:xlink="http://www.w3.org/1999/xlink" xmlns:sketch="http://www.bohemiancoding.com/sketch/ns">
    <!-- Generator: Sketch 3.0.4 (8054) - http://www.bohemiancoding.com/sketch -->
    <title>Rectangle 56</title>
    <desc>Created with Sketch.</desc>
    <defs></defs>
    <g id="Page-3" stroke="none" stroke-width="1" fill="none" fill-rule="evenodd" sketch:type="MSPage">
        <g id="landscape_gibdd-06" sketch:type="MSArtboardGroup" transform="translate(-439.000000, -2455.000000)" fill="#0173C1">
            <g id="Group-2" sketch:type="MSLayerGroup" transform="translate(312.000000, 2058.000000)">
                <g id="details_open" transform="translate(0.000000, 375.000000)" sketch:type="MSShapeGroup">
                    <path d="M138.542703,30.4766611 L147.054905,21.9644594 C147.839811,21.1795531 149.103823,21.1709804 149.890317,21.9574743 C150.671366,22.7385229 150.67735,23.998869 149.883332,24.7928866 L140.746651,33.9295681 C140.276121,34.4000975 139.633417,34.5916385 139.024624,34.5001552 C138.216386,35.0155791 137.134123,34.8901799 136.460188,34.1416997 L127.814205,24.5393628 C127.071453,23.7144532 127.129045,22.4517249 127.955623,21.7074707 C128.776479,20.9683695 130.035411,21.0283553 130.786784,21.8628403 L138.542703,30.4766611 Z" id="Rectangle-56" transform="translate(139.000000, 28.500000) scale(1, -1) translate(-139.000000, -28.500000) "></path>
                </g>
            </g>
        </g>
    </g>
</svg>