<?xml version="1.0" encoding="utf-8"?>
<!-- Generator: Adobe Illustrator 16.0.0, SVG Export Plug-In . SVG Version: 6.00 Build 0)  -->
<!DOCTYPE svg PUBLIC "-//W3C//DTD SVG 1.1//EN" "http://www.w3.org/Graphics/SVG/1.1/DTD/svg11.dtd">
<svg version="1.1" id="Layer_1" xmlns:sketch="http://www.bohemiancoding.com/sketch/ns"
	 xmlns="http://www.w3.org/2000/svg" xmlns:xlink="http://www.w3.org/1999/xlink" x="0px" y="0px" width="100px" height="100px"
	 viewBox="-17 -31 100 100" enable-background="new -17 -31 100 100" xml:space="preserve">
<title>vk</title>
<desc>Created with Sketch.</desc>
<g id="Page-3" sketch:type="MSPage">
	<g id="landscape_gibdd-10" transform="translate(-1046.000000, -1601.000000)" sketch:type="MSArtboardGroup">
		<g id="Group-10" transform="translate(312.000000, 1565.000000)" sketch:type="MSLayerGroup">
			<g id="Rectangle-88-_x2B_-1391004370_x5F_06-facebook" transform="translate(712.000000, 0.000000)" sketch:type="MSShapeGroup">
				<path id="vk" fill="#565656" d="M80.446,51.821c0.938-1.219,1.682-2.197,2.231-2.936c3.958-5.295,5.674-8.677,5.147-10.152
					l-0.206-0.345c-0.137-0.208-0.492-0.398-1.064-0.57s-1.304-0.2-2.195-0.086l-9.885,0.07c-0.229-0.023-0.457-0.018-0.687,0.016
					c-0.229,0.035-0.378,0.07-0.446,0.104c-0.068,0.035-0.126,0.063-0.172,0.086l-0.137,0.104c-0.114,0.068-0.24,0.19-0.377,0.363
					c-0.138,0.173-0.252,0.374-0.344,0.605c-1.075,2.785-2.299,5.375-3.672,7.77c-0.847,1.427-1.625,2.666-2.334,3.712
					c-0.709,1.048-1.305,1.819-1.785,2.313c-0.479,0.495-0.914,0.893-1.303,1.191c-0.391,0.3-0.688,0.426-0.893,0.38
					c-0.206-0.045-0.4-0.091-0.584-0.139c-0.32-0.207-0.578-0.488-0.771-0.846c-0.195-0.356-0.326-0.805-0.395-1.347
					c-0.068-0.541-0.109-1.007-0.121-1.399c-0.012-0.391-0.006-0.943,0.018-1.658c0.023-0.714,0.035-1.196,0.035-1.45
					c0-0.874,0.018-1.824,0.051-2.849c0.034-1.024,0.062-1.836,0.086-2.435c0.022-0.598,0.034-1.231,0.034-1.899
					c0-0.667-0.04-1.191-0.12-1.572c-0.081-0.379-0.201-0.747-0.36-1.104c-0.161-0.356-0.396-0.633-0.704-0.828
					c-0.309-0.196-0.691-0.351-1.15-0.467c-1.213-0.277-2.757-0.425-4.633-0.449c-4.256-0.044-6.99,0.232-8.203,0.83
					c-0.48,0.254-0.916,0.599-1.304,1.036c-0.412,0.507-0.469,0.784-0.171,0.828c1.374,0.208,2.345,0.703,2.917,1.485l0.206,0.414
					c0.16,0.301,0.32,0.83,0.48,1.589c0.16,0.759,0.263,1.6,0.309,2.521c0.115,1.681,0.115,3.119,0,4.316
					c-0.114,1.198-0.223,2.13-0.326,2.796c-0.103,0.668-0.257,1.208-0.463,1.623c-0.206,0.416-0.343,0.668-0.412,0.761
					c-0.069,0.091-0.126,0.149-0.171,0.172c-0.298,0.114-0.606,0.172-0.927,0.172c-0.321,0-0.709-0.162-1.167-0.484
					c-0.458-0.321-0.933-0.765-1.424-1.329c-0.492-0.563-1.046-1.353-1.665-2.366c-0.618-1.012-1.259-2.21-1.922-3.591l-0.549-1.002
					c-0.343-0.644-0.812-1.582-1.407-2.813s-1.122-2.422-1.579-3.574c-0.184-0.483-0.458-0.851-0.824-1.105l-0.171-0.104
					c-0.114-0.091-0.298-0.189-0.549-0.292c-0.252-0.104-0.515-0.178-0.79-0.225l-9.404,0.069c-0.961,0-1.613,0.219-1.956,0.657
					l-0.137,0.207C22.034,38.711,22,38.895,22,39.147c0,0.254,0.069,0.564,0.206,0.932c1.373,3.247,2.866,6.378,4.479,9.393
					c1.614,3.017,3.015,5.446,4.205,7.287c1.19,1.843,2.402,3.58,3.638,5.215c1.236,1.635,2.054,2.682,2.454,3.142
					c0.4,0.461,0.714,0.807,0.943,1.036l0.858,0.829c0.549,0.553,1.356,1.215,2.42,1.986s2.241,1.531,3.535,2.277
					c1.292,0.749,2.797,1.358,4.513,1.831s3.386,0.663,5.011,0.569h3.947c0.802-0.068,1.407-0.32,1.819-0.759l0.137-0.173
					c0.091-0.137,0.178-0.351,0.258-0.638c0.079-0.288,0.12-0.604,0.12-0.95c-0.023-0.989,0.052-1.883,0.224-2.676
					c0.17-0.795,0.365-1.393,0.582-1.797c0.219-0.401,0.464-0.741,0.738-1.018c0.275-0.277,0.469-0.443,0.584-0.501
					c0.115-0.056,0.206-0.097,0.274-0.121c0.549-0.184,1.195-0.005,1.939,0.535c0.743,0.542,1.441,1.208,2.094,2.003
					c0.651,0.795,1.436,1.686,2.351,2.677c0.915,0.989,1.716,1.726,2.402,2.21l0.687,0.415c0.458,0.275,1.052,0.528,1.785,0.76
					c0.731,0.229,1.373,0.287,1.921,0.172l8.787-0.139c0.869,0,1.545-0.144,2.025-0.431s0.766-0.605,0.857-0.95
					c0.091-0.345,0.097-0.735,0.018-1.173c-0.08-0.438-0.161-0.742-0.24-0.914c-0.08-0.173-0.154-0.318-0.225-0.432
					c-1.144-2.072-3.328-4.617-6.555-7.633l-0.068-0.068l-0.035-0.035l-0.033-0.033H80.62c-1.466-1.404-2.392-2.349-2.78-2.832
					c-0.709-0.92-0.869-1.853-0.48-2.797C77.633,55.632,78.662,54.124,80.446,51.821"/>
			</g>
		</g>
	</g>
</g>
</svg>
