<?xml version="1.0" encoding="utf-8"?>
<!-- Generator: Adobe Illustrator 16.0.0, SVG Export Plug-In . SVG Version: 6.00 Build 0)  -->
<!DOCTYPE svg PUBLIC "-//W3C//DTD SVG 1.1//EN" "http://www.w3.org/Graphics/SVG/1.1/DTD/svg11.dtd">
<svg version="1.1" id="Layer_1" xmlns:sketch="http://www.bohemiancoding.com/sketch/ns"
	 xmlns="http://www.w3.org/2000/svg" xmlns:xlink="http://www.w3.org/1999/xlink" x="0px" y="0px" width="35px" height="35px"
	 viewBox="0 0 35 35" enable-background="new 0 0 35 35" xml:space="preserve">
<title>?</title>
<desc>Created with Sketch.</desc>
<g id="Page-3" sketch:type="MSPage">
	<g id="landscape_gibdd-06" transform="translate(-1606.000000, -672.000000)" sketch:type="MSArtboardGroup">
		<g id="help-normal-3" transform="translate(1580.000000, 653.000000)" sketch:type="MSLayerGroup">
			<g id="Oval-1-_x2B_-_x3F_" sketch:type="MSShapeGroup">
				<path id="_x3F_" fill="#565656" d="M41.277,46.883v4.529h4.529v-4.529H41.277z M34.626,31.379h3.468
					c0-0.952,0.109-1.836,0.327-2.652c0.217-0.816,0.564-1.523,1.04-2.122s1.068-1.075,1.775-1.428c0.708-0.354,1.55-0.53,2.53-0.53
					c1.468,0,2.631,0.421,3.487,1.265c0.856,0.843,1.34,2.013,1.449,3.509c0.055,1.006-0.068,1.863-0.367,2.57
					c-0.299,0.708-0.701,1.354-1.204,1.938c-0.503,0.585-1.047,1.143-1.632,1.673s-1.144,1.108-1.672,1.733
					c-0.53,0.627-0.979,1.34-1.346,2.143c-0.367,0.803-0.578,1.775-0.632,2.918v1.918h3.467v-1.592c0-0.707,0.103-1.34,0.308-1.896
					c0.203-0.559,0.476-1.076,0.814-1.551c0.339-0.477,0.722-0.926,1.144-1.348c0.421-0.422,0.85-0.836,1.285-1.244
					c0.435-0.435,0.862-0.884,1.284-1.346s0.797-0.965,1.122-1.509c0.326-0.544,0.593-1.149,0.795-1.816
					c0.205-0.667,0.308-1.421,0.308-2.264c0-1.306-0.211-2.462-0.633-3.468c-0.423-1.006-1.015-1.856-1.774-2.55
					c-0.762-0.694-1.666-1.224-2.714-1.591c-1.047-0.367-2.209-0.551-3.487-0.551c-1.415,0-2.693,0.245-3.835,0.734
					c-1.142,0.49-2.108,1.176-2.896,2.061c-0.789,0.884-1.394,1.924-1.816,3.121C34.796,28.701,34.6,29.993,34.626,31.379
					L34.626,31.379z"/>
			</g>
		</g>
	</g>
</g>
</svg>
