<?xml version="1.0" encoding="utf-8"?>
<!-- Generator: Adobe Illustrator 16.0.0, SVG Export Plug-In . SVG Version: 6.00 Build 0)  -->
<!DOCTYPE svg PUBLIC "-//W3C//DTD SVG 1.1//EN" "http://www.w3.org/Graphics/SVG/1.1/DTD/svg11.dtd">
<svg version="1.1" id="Layer_1" xmlns:sketch="http://www.bohemiancoding.com/sketch/ns"
	 xmlns="http://www.w3.org/2000/svg" xmlns:xlink="http://www.w3.org/1999/xlink" x="0px" y="0px" width="35px" height="35px"
	 viewBox="-8 -1.5 35 35" enable-background="new -8 -1.5 35 35" xml:space="preserve">
<title>?</title>
<desc>Created with Sketch.</desc>
<g id="Page-3" sketch:type="MSPage">
	<g id="landscape_gibdd-06" transform="translate(-1606.000000, -672.000000)" sketch:type="MSArtboardGroup">
		<g id="help-normal-3" transform="translate(1580.000000, 653.000000)" sketch:type="MSLayerGroup">
			<g id="Oval-1-_x2B_-_x3F_" sketch:type="MSShapeGroup">
				<path id="_x3F_" fill="#565656" d="M33.278,45.384v4.528h4.529v-4.528H33.278z M26.627,29.88h3.468
					c0-0.952,0.109-1.836,0.327-2.652c0.217-0.816,0.564-1.523,1.04-2.122c0.476-0.599,1.068-1.075,1.775-1.428
					c0.708-0.354,1.55-0.53,2.53-0.53c1.468,0,2.631,0.421,3.487,1.265c0.857,0.843,1.34,2.013,1.449,3.509
					c0.055,1.006-0.068,1.863-0.367,2.57c-0.299,0.708-0.701,1.354-1.204,1.938c-0.503,0.585-1.047,1.143-1.632,1.673
					s-1.143,1.108-1.672,1.734c-0.53,0.626-0.979,1.339-1.346,2.142s-0.578,1.775-0.632,2.918v1.917h3.467v-1.591
					c0-0.707,0.102-1.34,0.307-1.897c0.203-0.558,0.476-1.075,0.815-1.551s0.721-0.925,1.143-1.347
					c0.421-0.421,0.85-0.836,1.285-1.244c0.435-0.435,0.863-0.884,1.285-1.346c0.421-0.462,0.796-0.965,1.122-1.509
					c0.326-0.544,0.592-1.149,0.795-1.816c0.205-0.667,0.307-1.421,0.307-2.264c0-1.306-0.211-2.462-0.633-3.468
					s-1.014-1.856-1.774-2.55c-0.762-0.694-1.666-1.224-2.714-1.591c-1.047-0.367-2.209-0.551-3.487-0.551
					c-1.415,0-2.693,0.245-3.835,0.734c-1.142,0.49-2.108,1.176-2.896,2.061c-0.789,0.884-1.394,1.924-1.816,3.121
					C26.797,27.201,26.6,28.493,26.627,29.88L26.627,29.88z"/>
			</g>
		</g>
	</g>
</g>
</svg>
