<?xml version="1.0" encoding="utf-8"?>
<!-- Generator: Adobe Illustrator 16.0.0, SVG Export Plug-In . SVG Version: 6.00 Build 0)  -->
<!DOCTYPE svg PUBLIC "-//W3C//DTD SVG 1.1//EN" "http://www.w3.org/Graphics/SVG/1.1/DTD/svg11.dtd">
<svg version="1.1" id="Layer_1" xmlns:sketch="http://www.bohemiancoding.com/sketch/ns"
	 xmlns="http://www.w3.org/2000/svg" xmlns:xlink="http://www.w3.org/1999/xlink" x="0px" y="0px" width="35px" height="35px"
	 viewBox="-7.5 -7.5 35 35" enable-background="new -7.5 -7.5 35 35" xml:space="preserve">
<title>Radio Selected</title>
<desc>Created with Sketch.</desc>
<g id="Page-1" sketch:type="MSPage">
	<g id="Passport_pol" transform="translate(-194.000000, -3138.000000)" sketch:type="MSArtboardGroup">
		<g id="Step-16" transform="translate(130.000000, 2962.000000)" sketch:type="MSLayerGroup">
			<g id="Radio-Selected" transform="translate(64.000000, 176.000000)" sketch:type="MSShapeGroup">
				<g id="Oval-1">
					<circle fill="#FFFFFF" cx="10" cy="10" r="10"/>
					<path fill="#6CA9D2" d="M10,21.5C3.659,21.5-1.5,16.341-1.5,10C-1.5,3.659,3.659-1.5,10-1.5c6.341,0,11.5,5.159,11.5,11.5
						C21.5,16.341,16.341,21.5,10,21.5z M10,1.5c-4.687,0-8.5,3.813-8.5,8.5c0,4.687,3.813,8.5,8.5,8.5c4.687,0,8.5-3.813,8.5-8.5
						C18.5,5.313,14.687,1.5,10,1.5z"/>
				</g>
				<g id="Oval-7">
					<path fill="#6CA9D2" d="M10,14c2.209,0,4-1.791,4-4s-1.791-4-4-4s-4,1.791-4,4S7.791,14,10,14z"/>
				</g>
			</g>
		</g>
	</g>
</g>
</svg>
