<?xml version="1.0" encoding="utf-8"?>
<!-- Generator: Adobe Illustrator 16.0.0, SVG Export Plug-In . SVG Version: 6.00 Build 0)  -->
<!DOCTYPE svg PUBLIC "-//W3C//DTD SVG 1.1//EN" "http://www.w3.org/Graphics/SVG/1.1/DTD/svg11.dtd">
<svg version="1.1" id="Layer_1" xmlns="http://www.w3.org/2000/svg" xmlns:xlink="http://www.w3.org/1999/xlink" x="0px" y="0px"
	 width="100px" height="100px" viewBox="0 0 100 100" enable-background="new 0 0 100 100" xml:space="preserve">
<g>
	<g>
		<g>
			<path fill="#287CB1" d="M50,7c2.416,0,4.709,0.41,6.289,1.123c0.064,0.027,6.428,2.912,13.373,7.002
				c6.943,4.09,12.574,8.27,12.629,8.311c2.984,2.223,5.951,7.473,6.348,11.23c0.008,0.07,0.742,7.145,0.742,15.333
				c0,8.191-0.734,15.264-0.742,15.332c-0.396,3.76-3.363,9.01-6.348,11.232c-0.055,0.041-5.666,4.211-12.631,8.314
				c-6.943,4.088-13.307,6.973-13.369,7C54.708,92.59,52.416,93,50,93s-4.709-0.41-6.289-1.121
				c-0.062-0.029-6.406-2.902-13.369-7.002c-6.945-4.092-12.578-8.273-12.633-8.314c-2.984-2.225-5.949-7.473-6.346-11.232
				c-0.008-0.07-0.742-7.117-0.742-15.332c0-8.188,0.734-15.26,0.742-15.333c0.396-3.758,3.361-9.006,6.346-11.23
				c0.057-0.041,5.686-4.221,12.631-8.311S43.648,8.15,43.71,8.123C45.292,7.41,47.585,7,50,7 M50,3
				c-2.875,0-5.752,0.492-7.934,1.477c0,0-6.523,2.941-13.756,7.201s-12.99,8.551-12.99,8.551c-3.854,2.871-7.425,9.18-7.936,14.02
				c0,0-0.764,7.232-0.764,15.75c0,8.52,0.764,15.752,0.764,15.752c0.511,4.842,4.082,11.148,7.934,14.02
				c0,0,5.76,4.293,12.992,8.555c7.232,4.256,13.756,7.199,13.756,7.199C44.248,96.508,47.125,97,50,97
				c2.877,0,5.754-0.492,7.936-1.477c0,0,6.521-2.943,13.754-7.199c7.232-4.262,12.992-8.555,12.992-8.555
				c3.854-2.871,7.424-9.178,7.936-14.02c0,0,0.764-7.232,0.764-15.752c0-8.518-0.764-15.75-0.764-15.75
				c-0.512-4.84-4.082-11.148-7.936-14.02c0,0-5.76-4.291-12.99-8.551c-7.234-4.26-13.756-7.201-13.756-7.201
				C55.753,3.492,52.876,3,50,3L50,3z"/>
		</g>
	</g>
	<g>
		<path fill="#287CB1" d="M61.681,74.502H40.617c-1.471,0-2.672-1.209-2.716-2.713l-2.997-45.363
			c-0.003-0.044-0.004-0.088-0.004-0.132c0-1.542,1.219-2.797,2.717-2.797h27.064c1.499,0,2.719,1.255,2.719,2.797
			c0,0.044-0.001,0.088-0.004,0.132L64.399,71.79C64.355,73.293,63.153,74.502,61.681,74.502z M41.825,70.502h18.65l2.841-43.004
			H38.984L41.825,70.502z"/>
	</g>
	<g>
		<path fill="#287CB1" d="M51.236,41.594c-3.218,0-5.836-2.619-5.836-5.838c0-3.218,2.618-5.836,5.836-5.836
			c3.219,0,5.838,2.618,5.838,5.836C57.074,38.975,54.455,41.594,51.236,41.594z M51.236,33.92c-1.012,0-1.836,0.824-1.836,1.836
			c0,1.013,0.824,1.838,1.836,1.838c1.014,0,1.838-0.825,1.838-1.838C53.074,34.744,52.25,33.92,51.236,33.92z"/>
	</g>
	<g>
		<path fill="#287CB1" d="M51.236,54.836c-3.218,0-5.836-2.618-5.836-5.836c0-3.219,2.618-5.838,5.836-5.838
			c3.219,0,5.838,2.619,5.838,5.838C57.074,52.218,54.455,54.836,51.236,54.836z M51.236,47.162c-1.012,0-1.836,0.825-1.836,1.838
			c0,1.013,0.824,1.836,1.836,1.836c1.014,0,1.838-0.824,1.838-1.836C53.074,47.987,52.25,47.162,51.236,47.162z"/>
	</g>
	<g>
		<path fill="#287CB1" d="M51.236,68.319c-3.218,0-5.836-2.618-5.836-5.836c0-3.219,2.618-5.838,5.836-5.838
			c3.219,0,5.838,2.619,5.838,5.838C57.074,65.701,54.455,68.319,51.236,68.319z M51.236,60.645c-1.012,0-1.836,0.824-1.836,1.838
			c0,1.013,0.824,1.836,1.836,1.836c1.014,0,1.838-0.823,1.838-1.836C53.074,61.469,52.25,60.645,51.236,60.645z"/>
	</g>
</g>
</svg>
