<?xml version="1.0" encoding="utf-8"?>
<!-- Generator: Adobe Illustrator 16.0.0, SVG Export Plug-In . SVG Version: 6.00 Build 0)  -->
<!DOCTYPE svg PUBLIC "-//W3C//DTD SVG 1.1//EN" "http://www.w3.org/Graphics/SVG/1.1/DTD/svg11.dtd">
<svg version="1.1" id="Layer_1" xmlns="http://www.w3.org/2000/svg" xmlns:xlink="http://www.w3.org/1999/xlink" x="0px" y="0px"
	 width="100px" height="100px" viewBox="0 0 100 100" enable-background="new 0 0 100 100" xml:space="preserve">
<g>
	<g>
		<g>
			<path fill="#892781" d="M50.001,7c2.416,0,4.708,0.408,6.289,1.121c0.064,0.029,6.406,2.902,13.371,7.004
				c6.943,4.09,12.576,8.27,12.631,8.311c2.984,2.223,5.949,7.473,6.348,11.23c0.006,0.07,0.74,7.145,0.74,15.332
				c0,8.191-0.734,15.262-0.74,15.332c-0.397,3.76-3.363,9.008-6.348,11.232c-0.057,0.041-5.668,4.211-12.631,8.313
				c-6.943,4.086-13.309,6.974-13.369,7C54.71,92.59,52.417,93,50.001,93s-4.709-0.41-6.289-1.123c-0.063-0.027-6.406-2.9-13.371-7
				c-6.944-4.092-12.575-8.273-12.632-8.316c-2.984-2.223-5.949-7.471-6.346-11.229c-0.007-0.07-0.742-7.142-0.742-15.332
				c0-8.188,0.735-15.26,0.742-15.332c0.396-3.76,3.362-9.008,6.348-11.23c0.056-0.041,5.686-4.221,12.63-8.311
				c6.944-4.09,13.308-6.976,13.371-7.005C45.293,7.408,47.585,7,50.001,7 M50.001,3c-2.876,0-5.752,0.492-7.935,1.477
				c0,0-6.522,2.941-13.756,7.201c-7.232,4.26-12.99,8.551-12.99,8.551c-3.854,2.871-7.424,9.18-7.935,14.02
				c0,0-0.765,7.232-0.765,15.75c0,8.521,0.765,15.752,0.765,15.752c0.511,4.842,4.081,11.147,7.934,14.021
				c0,0,5.759,4.293,12.991,8.555c7.233,4.256,13.756,7.199,13.756,7.199C44.25,96.508,47.126,97,50.001,97
				c2.876,0,5.753-0.492,7.936-1.477c0,0,6.521-2.943,13.754-7.199c7.231-4.262,12.992-8.555,12.992-8.555
				c3.852-2.871,7.422-9.179,7.934-14.021c0,0,0.764-7.231,0.764-15.752c0-8.518-0.764-15.75-0.764-15.75
				c-0.512-4.84-4.082-11.148-7.934-14.02c0,0-5.761-4.291-12.99-8.551c-7.234-4.26-13.756-7.201-13.756-7.201
				C55.755,3.492,52.878,3,50.001,3L50.001,3z"/>
		</g>
	</g>
	<g>
		<path fill="none" d="M57.302,38.775h7.078l-8.334-8.005v6.751C56.046,38.212,56.608,38.775,57.302,38.775z"/>
		<path fill="none" d="M52.046,37.521v-6.912H36.212v37H64.38V42.775h-7.078C54.403,42.775,52.046,40.418,52.046,37.521z
			 M44.796,45.278c1.42,0,2.572,1.152,2.572,2.572s-1.152,2.572-2.572,2.572s-2.572-1.151-2.572-2.572S43.375,45.278,44.796,45.278z
			 M55.796,61.111c-1.42,0-2.572-1.152-2.572-2.572s1.152-2.572,2.572-2.572s2.572,1.152,2.572,2.572S57.216,61.111,55.796,61.111z
			 M57.044,49.095l-11.429,11.43c-0.39,0.391-0.903,0.586-1.414,0.586c-0.512,0-1.023-0.195-1.414-0.586
			c-0.781-0.781-0.781-2.047,0-2.828l11.429-11.43c0.781-0.781,2.047-0.781,2.828,0C57.825,47.048,57.825,48.314,57.044,49.095z"/>
		<path fill="#892781" d="M67.149,35.89l-8.502-8.166c-0.742-0.714-1.736-1.115-2.77-1.115H36.212c-2.209,0-4,1.791-4,4v37
			c0,2.209,1.791,4,4,4h28.167c2.209,0,4-1.791,4-4V38.775C68.379,37.687,67.937,36.644,67.149,35.89z M67.79,42.775h-3.41v24.834
			H36.212v-37h15.834v-3.578h4v3.739l8.334,8.005h3.41V42.775z"/>
		<path fill="#892781" d="M57.302,38.775c-0.693,0-1.256-0.563-1.256-1.254V30.77v-3.739h-4v10.49c0,2.897,2.357,5.254,5.256,5.254
			H67.79v-4H57.302z"/>
		<rect x="64.38" y="38.775" display="none" fill="#892781" width="3.41" height="4"/>
		<polygon display="none" fill="#892781" points="56.046,30.77 56.046,27.031 52.046,27.031 52.046,30.609 55.878,30.609 		"/>
		<path fill="#892781" d="M54.216,46.267l-11.429,11.43c-0.781,0.781-0.781,2.047,0,2.828c0.391,0.391,0.902,0.586,1.414,0.586
			c0.511,0,1.024-0.195,1.414-0.586l11.429-11.43c0.781-0.781,0.781-2.047,0-2.828C56.263,45.486,54.997,45.486,54.216,46.267z"/>
		<circle fill="#892781" cx="55.796" cy="58.539" r="2.572"/>
		<circle fill="#892781" cx="44.796" cy="47.85" r="2.572"/>
	</g>
</g>
</svg>
