<?xml version="1.0" encoding="utf-8"?>
<!-- Generator: Adobe Illustrator 16.0.0, SVG Export Plug-In . SVG Version: 6.00 Build 0)  -->
<!DOCTYPE svg PUBLIC "-//W3C//DTD SVG 1.1//EN" "http://www.w3.org/Graphics/SVG/1.1/DTD/svg11.dtd">
<svg version="1.1" id="Layer_1" xmlns="http://www.w3.org/2000/svg" xmlns:xlink="http://www.w3.org/1999/xlink" x="0px" y="0px"
	 width="100px" height="100px" viewBox="0 0 100 100" enable-background="new 0 0 100 100" xml:space="preserve">
<g>
	<g>
		<g>
			<path fill="#892781" d="M50,7c2.416,0,4.708,0.408,6.289,1.121c0.064,0.029,6.406,2.902,13.371,7.004
				c6.943,4.09,12.576,8.27,12.631,8.311c2.984,2.223,5.949,7.473,6.348,11.23c0.006,0.07,0.74,7.145,0.74,15.332
				c0,8.191-0.734,15.262-0.74,15.332c-0.398,3.76-3.363,9.008-6.348,11.232c-0.057,0.041-5.668,4.211-12.631,8.314
				c-6.943,4.086-13.309,6.973-13.369,7C54.709,92.59,52.416,93,50,93c-2.416,0-4.709-0.41-6.289-1.123
				c-0.063-0.027-6.406-2.9-13.371-7c-6.944-4.092-12.575-8.273-12.632-8.316c-2.984-2.223-5.949-7.471-6.346-11.23
				c-0.007-0.07-0.742-7.141-0.742-15.332c0-8.188,0.735-15.26,0.742-15.332c0.396-3.76,3.362-9.008,6.348-11.23
				c0.056-0.041,5.686-4.221,12.63-8.311S43.648,8.15,43.711,8.121C45.292,7.408,47.584,7,50,7 M50,3
				c-2.876,0-5.752,0.492-7.935,1.477c0,0-6.522,2.941-13.756,7.201c-7.232,4.26-12.99,8.551-12.99,8.551
				c-3.854,2.871-7.424,9.18-7.935,14.02c0,0-0.765,7.232-0.765,15.75c0,8.52,0.765,15.752,0.765,15.752
				c0.511,4.842,4.081,11.148,7.934,14.02c0,0,5.759,4.293,12.991,8.555c7.233,4.256,13.756,7.199,13.756,7.199
				C44.249,96.508,47.125,97,50,97c2.876,0,5.753-0.492,7.935-1.477c0,0,6.521-2.943,13.754-7.199
				c7.232-4.262,12.992-8.555,12.992-8.555c3.852-2.871,7.422-9.178,7.934-14.02c0,0,0.764-7.232,0.764-15.752
				c0-8.518-0.764-15.75-0.764-15.75c-0.512-4.84-4.082-11.148-7.934-14.02c0,0-5.76-4.291-12.99-8.551
				c-7.234-4.26-13.756-7.201-13.756-7.201C55.754,3.492,52.877,3,50,3L50,3z"/>
		</g>
	</g>
	<g>
		<g>
			<path fill="#892781" d="M55.877,30.609l8.502,8.166v28.834H36.211v-37H55.877 M55.877,26.609H36.211c-2.209,0-4,1.791-4,4v37
				c0,2.209,1.791,4,4,4h28.167c2.209,0,4-1.791,4-4V38.775c0-1.088-0.443-2.131-1.229-2.885l-8.502-8.166
				C57.904,27.01,56.91,26.609,55.877,26.609L55.877,26.609z"/>
		</g>
		<g>
			<path fill="#892781" d="M67.789,42.775H57.301c-2.898,0-5.256-2.357-5.256-5.254v-10.49h4v10.49c0,0.691,0.563,1.254,1.256,1.254
				h10.488V42.775z"/>
		</g>
		<g>
			<g>
				<path fill="#892781" d="M44.2,61.111c-0.512,0-1.023-0.195-1.414-0.586c-0.781-0.781-0.781-2.047,0-2.828l11.429-11.43
					c0.781-0.781,2.047-0.781,2.828,0c0.781,0.781,0.781,2.047,0,2.828l-11.429,11.43C45.224,60.916,44.711,61.111,44.2,61.111z"/>
			</g>
			<g>
				<circle fill="#892781" cx="55.795" cy="58.539" r="2.572"/>
			</g>
			<g>
				<circle fill="#892781" cx="44.795" cy="47.85" r="2.572"/>
			</g>
		</g>
	</g>
</g>
</svg>
