<?xml version="1.0" encoding="utf-8"?>
<!-- Generator: Adobe Illustrator 16.0.0, SVG Export Plug-In . SVG Version: 6.00 Build 0)  -->
<!DOCTYPE svg PUBLIC "-//W3C//DTD SVG 1.1//EN" "http://www.w3.org/Graphics/SVG/1.1/DTD/svg11.dtd">
<svg version="1.1" id="Layer_1" xmlns="http://www.w3.org/2000/svg" xmlns:xlink="http://www.w3.org/1999/xlink" x="0px" y="0px"
	 width="100px" height="100px" viewBox="0 0 100 100" enable-background="new 0 0 100 100" xml:space="preserve">
<g>
	<g>
		<g>
			<path fill="#892781" d="M49.554,7.391c2.416,0,4.707,0.408,6.289,1.121c0.062,0.029,6.428,2.914,13.371,7.004
				c6.945,4.09,12.576,8.27,12.631,8.311c2.984,2.223,5.949,7.473,6.348,11.23c0.006,0.07,0.74,7.145,0.74,15.332
				c0,8.191-0.734,15.262-0.74,15.332c-0.398,3.76-3.363,9.008-6.348,11.232c-0.055,0.041-5.666,4.211-12.631,8.314
				c-6.943,4.086-13.309,6.973-13.371,7c-1.58,0.713-3.873,1.123-6.289,1.123s-4.709-0.41-6.289-1.121
				c-0.062-0.029-6.426-2.916-13.371-7.002c-6.945-4.092-12.574-8.273-12.631-8.316c-2.984-2.223-5.949-7.471-6.346-11.23
				c-0.008-0.07-0.744-7.143-0.744-15.332c0-8.188,0.736-15.26,0.744-15.332c0.396-3.76,3.361-9.008,6.346-11.23
				c0.057-0.041,5.686-4.221,12.629-8.311c6.947-4.09,13.309-6.975,13.371-7.002C44.845,7.799,47.138,7.391,49.554,7.391
				 M49.554,3.391c-2.877,0-5.752,0.492-7.936,1.477c0,0-6.521,2.941-13.756,7.201c-7.232,4.26-12.988,8.551-12.988,8.551
				c-3.855,2.871-7.426,9.18-7.936,14.02c0,0-0.766,7.232-0.766,15.75c0,8.52,0.766,15.752,0.766,15.752
				c0.51,4.842,4.08,11.148,7.934,14.02c0,0,5.758,4.293,12.99,8.555c7.234,4.256,13.756,7.199,13.756,7.199
				c2.184,0.984,5.059,1.477,7.936,1.477s5.752-0.492,7.934-1.477c0,0,6.523-2.943,13.756-7.199
				c7.232-4.262,12.992-8.555,12.992-8.555c3.852-2.871,7.422-9.178,7.934-14.02c0,0,0.764-7.232,0.764-15.752
				c0-8.518-0.764-15.75-0.764-15.75c-0.512-4.84-4.082-11.148-7.934-14.02c0,0-5.76-4.291-12.992-8.551S57.487,4.867,57.487,4.867
				C55.306,3.883,52.431,3.391,49.554,3.391L49.554,3.391z"/>
		</g>
	</g>
	<g>
		<path fill="#892781" d="M49.554,69.299c-1.104,0-2-0.896-2-2v-42.5c0-1.104,0.896-2,2-2s2,0.896,2,2v42.5
			C51.554,68.403,50.658,69.299,49.554,69.299z"/>
	</g>
	<g>
		<path fill="#892781" d="M63.694,69.299H35.413c-1.104,0-2-0.896-2-2s0.896-2,2-2h28.281c1.104,0,2,0.896,2,2
			S64.799,69.299,63.694,69.299z"/>
	</g>
	<g>
		<g>
			<path fill="#892781" d="M28.513,39.048c-0.782,0-1.525-0.462-1.846-1.229c-0.426-1.019,0.054-2.19,1.073-2.617
				c16.718-6.994,26.911-6.995,43.628,0c1.019,0.427,1.499,1.598,1.072,2.617c-0.425,1.019-1.593,1.5-2.617,1.073
				c-15.721-6.579-24.815-6.579-40.539,0C29.032,38.999,28.771,39.048,28.513,39.048z"/>
		</g>
	</g>
	<g>
		<path fill="#892781" d="M33.665,42.514l5.422,11.123c0,0-1.672,1.855-5.5,1.855c-3.633,0-5.344-1.855-5.344-1.855L33.665,42.514
			 M33.665,38.514c-1.529,0-2.926,0.871-3.596,2.246l-5.422,11.125c-0.721,1.48-0.461,3.252,0.656,4.463
			c0.482,0.525,3.158,3.145,8.283,3.145c5.336,0,7.992-2.646,8.471-3.176c1.094-1.213,1.34-2.965,0.625-4.432L37.261,40.76
			C36.591,39.385,35.194,38.514,33.665,38.514L33.665,38.514z"/>
	</g>
	<g>
		<path fill="#892781" d="M65.665,42.514l5.422,11.123c0,0-1.672,1.855-5.5,1.855c-3.633,0-5.344-1.855-5.344-1.855L65.665,42.514
			 M65.665,38.514c-1.529,0-2.926,0.871-3.596,2.246l-5.422,11.125c-0.721,1.48-0.461,3.252,0.656,4.463
			c0.482,0.525,3.158,3.145,8.283,3.145c5.336,0,7.992-2.646,8.471-3.176c1.094-1.213,1.34-2.965,0.625-4.432L69.261,40.76
			C68.591,39.385,67.194,38.514,65.665,38.514L65.665,38.514z"/>
	</g>
</g>
</svg>
