<?xml version="1.0" encoding="utf-8"?>
<!-- Generator: Adobe Illustrator 16.0.0, SVG Export Plug-In . SVG Version: 6.00 Build 0)  -->
<!DOCTYPE svg PUBLIC "-//W3C//DTD SVG 1.1//EN" "http://www.w3.org/Graphics/SVG/1.1/DTD/svg11.dtd">
<svg version="1.1" id="Layer_1" xmlns="http://www.w3.org/2000/svg" xmlns:xlink="http://www.w3.org/1999/xlink" x="0px" y="0px"
	 width="100px" height="100px" viewBox="0 0 100 100" enable-background="new 0 0 100 100" xml:space="preserve">
<g>
	<g>
		<g>
			<path fill="#C51E52" d="M50,7c2.415,0,4.708,0.41,6.289,1.123c0.063,0.029,6.405,2.9,13.371,7.002
				c6.944,4.09,12.575,8.27,12.631,8.311c2.983,2.225,5.949,7.473,6.347,11.232c0.008,0.07,0.742,7.143,0.742,15.332
				s-0.734,15.262-0.742,15.33c-0.397,3.762-3.363,9.01-6.348,11.232c-0.055,0.041-5.666,4.211-12.63,8.314
				c-6.944,4.088-13.309,6.975-13.37,7.002C54.708,92.592,52.416,93,50,93s-4.709-0.408-6.29-1.121
				c-0.062-0.029-6.406-2.902-13.37-7c-6.944-4.092-12.575-8.275-12.632-8.316c-2.984-2.223-5.949-7.471-6.346-11.23
				C11.354,65.262,10.62,58.189,10.62,50s0.734-15.262,0.742-15.332c0.396-3.76,3.361-9.008,6.347-11.232
				c0.056-0.041,5.686-4.221,12.63-8.311c6.945-4.09,13.309-6.975,13.371-7.002C45.292,7.41,47.584,7,50,7 M50,3
				c-2.876,0-5.753,0.492-7.935,1.477c0,0-6.523,2.943-13.756,7.203c-7.232,4.258-12.99,8.549-12.99,8.549
				c-3.854,2.871-7.425,9.18-7.936,14.02c0,0-0.764,7.234-0.764,15.752c0,8.52,0.764,15.752,0.764,15.752
				c0.511,4.84,4.082,11.148,7.934,14.018c0,0,5.76,4.293,12.992,8.555c7.232,4.258,13.756,7.201,13.756,7.201
				C44.247,96.51,47.124,97,50,97s5.753-0.49,7.935-1.475c0,0,6.521-2.943,13.754-7.201c7.232-4.262,12.992-8.555,12.992-8.555
				c3.854-2.869,7.424-9.178,7.936-14.018c0,0,0.764-7.232,0.764-15.752c0-8.518-0.764-15.752-0.764-15.752
				c-0.512-4.84-4.082-11.148-7.936-14.02c0,0-5.76-4.291-12.99-8.549c-7.234-4.26-13.756-7.203-13.756-7.203
				C55.753,3.492,52.876,3,50,3L50,3z"/>
		</g>
	</g>
	<g>
		<path fill="#C51E52" d="M50.114,24.596l18.75,15.658v27.582c0,1.658-1.344,3-3,3h-31.5c-1.657,0-3-1.342-3-3V40.254L50.114,24.596
			 M50.114,20.596c-0.91,0-1.822,0.311-2.564,0.93L28.8,37.184c-0.91,0.76-1.436,1.885-1.436,3.07v27.582c0,3.859,3.141,7,7,7h31.5
			c3.859,0,7-3.141,7-7V40.254c0-1.186-0.525-2.311-1.436-3.07l-18.75-15.658C51.937,20.906,51.024,20.596,50.114,20.596
			L50.114,20.596z"/>
	</g>
	<g>
		<path fill="#C51E52" d="M76.293,45.287c-0.443,0-0.89-0.146-1.261-0.448L50.12,24.584l-24.685,20.25
			c-0.854,0.701-2.114,0.576-2.815-0.278c-0.701-0.854-0.576-2.114,0.278-2.815l25.947-21.285c0.736-0.602,1.794-0.604,2.53-0.005
			l26.18,21.285c0.857,0.697,0.987,1.957,0.29,2.813C77.45,45.035,76.874,45.287,76.293,45.287z"/>
	</g>
	<g>
		<path fill="#C51E52" d="M50.126,39.84c2.596,0,4.699,2.23,4.699,4.982s-2.104,4.982-4.699,4.982c-2.595,0-4.699-2.23-4.699-4.982
			S47.531,39.84,50.126,39.84 M50.126,35.84c-4.797,0-8.699,4.029-8.699,8.982s3.902,8.982,8.699,8.982s8.699-4.029,8.699-8.982
			S54.923,35.84,50.126,35.84L50.126,35.84z"/>
	</g>
	<g>
		<path fill="#C51E52" d="M50.19,54.096c4.224,0,7.855,2.217,9.473,5.396c0.293,0.578-4.561,2.893-9.549,2.918
			c-0.027,0-0.055,0-0.081,0c-4.77,0-9.649-2.221-9.394-2.752C42.214,56.391,45.897,54.096,50.19,54.096 M50.19,50.096
			c-5.701,0-10.865,3.072-13.154,7.826c-0.619,1.287-0.527,2.785,0.243,4.01c0.356,0.566,1.19,1.893,5.345,3.242
			c1.419,0.463,4.27,1.236,7.409,1.236h0.102c4.13-0.021,11.106-1.695,12.917-4.664c0.766-1.258,0.832-2.779,0.176-4.068
			C60.886,53.072,55.769,50.096,50.19,50.096L50.19,50.096z"/>
	</g>
</g>
</svg>
