<?xml version="1.0" encoding="utf-8"?>
<!-- Generator: Adobe Illustrator 18.0.0, SVG Export Plug-In . SVG Version: 6.00 Build 0)  -->
<!DOCTYPE svg PUBLIC "-//W3C//DTD SVG 1.1//EN" "http://www.w3.org/Graphics/SVG/1.1/DTD/svg11.dtd">
<svg version="1.1" id="Layer_1" xmlns="http://www.w3.org/2000/svg" xmlns:xlink="http://www.w3.org/1999/xlink" x="0px" y="0px"
	 viewBox="0 0 100 100" enable-background="new 0 0 100 100" xml:space="preserve">
<g>
	<path fill="#C51E52" d="M92.6,34.2c-0.5-4.8-4.1-11.1-7.9-14c0,0-5.8-4.3-13-8.5c-7.2-4.3-13.8-7.2-13.8-7.2C55.8,3.5,52.9,3,50,3
		c-2.9,0-5.8,0.5-7.9,1.5c0,0-6.5,2.9-13.8,7.2c-7.2,4.3-13,8.5-13,8.5c-3.9,2.9-7.4,9.2-7.9,14c0,0-0.8,7.2-0.8,15.8
		c0,8.5,0.8,15.8,0.8,15.8c0.5,4.8,4.1,11.1,7.9,14c0,0,5.8,4.3,13,8.6c7.2,4.3,13.8,7.2,13.8,7.2c2.2,1,5.1,1.5,7.9,1.5
		c2.9,0,5.8-0.5,7.9-1.5c0,0,6.5-2.9,13.8-7.2c7.2-4.3,13-8.6,13-8.6c3.9-2.9,7.4-9.2,7.9-14c0,0,0.8-7.2,0.8-15.8
		C93.4,41.5,92.6,34.2,92.6,34.2z M88.6,65.3c-0.4,3.8-3.4,9-6.3,11.2c-0.1,0-5.7,4.2-12.6,8.3c-6.9,4.1-13.3,7-13.4,7
		C54.7,92.6,52.4,93,50,93s-4.7-0.4-6.3-1.1c-0.1,0-6.4-2.9-13.4-7c-6.9-4.1-12.6-8.3-12.6-8.3c-3-2.2-5.9-7.5-6.3-11.2
		c0-0.1-0.7-7.1-0.7-15.3c0-8.2,0.7-15.3,0.7-15.3c0.4-3.8,3.4-9,6.3-11.2c0.1,0,5.7-4.2,12.6-8.3c6.9-4.1,13.3-7,13.4-7
		C45.3,7.4,47.6,7,50,7s4.7,0.4,6.3,1.1c0.1,0,6.4,2.9,13.4,7c6.9,4.1,12.6,8.3,12.6,8.3c3,2.2,5.9,7.5,6.3,11.2
		c0,0.1,0.7,7.1,0.7,15.3S88.6,65.3,88.6,65.3z"/>
	<path fill="#C51E52" d="M66.3,24.6c0,0,0-0.1,0-0.1v-4c0-1.4-0.6-2.7-1.6-3.5c-1-0.8-2.4-1-3.8-0.6l-29.1,8.2
		c-0.6,0.2-1,0.6-1.3,1.1c-0.7,0.7-1.2,1.7-1.2,2.9v45c0,2.2,1.8,4,4,4h32c2.2,0,4-1.8,4-4v-45C69.3,26.6,68,25,66.3,24.6z M62,20.2
		c0.2,0,0.3,0,0.3,0c0,0,0.1,0.1,0.1,0.3v4H46.8L62,20.2z M65.3,73.5h-32v-45h29h3V73.5z"/>
	<path fill="#C51E52" d="M41.3,33.5h-4v4v12c0,3.4,1.8,7,7,7h1.3l0.8,0.8l2.8,2.8l2.8-2.8l0.8-0.8h1.3c4.1,0,7-2.9,7-7v-12v-4h-4
		H41.3z M57.3,49.5c0,2-1.3,3-3,3h-3l-2,2l-2-2h-3c-1,0-3,0-3-3v-12h16V49.5z"/>
	<path fill="#C51E52" d="M59.3,63.5h-20c-1.1,0-2,0.9-2,2s0.9,2,2,2h20c1.1,0,2-0.9,2-2S60.4,63.5,59.3,63.5z"/>
</g>
</svg>
