<?xml version="1.0" encoding="utf-8"?>
<!-- Generator: Adobe Illustrator 16.0.0, SVG Export Plug-In . SVG Version: 6.00 Build 0)  -->
<!DOCTYPE svg PUBLIC "-//W3C//DTD SVG 1.1//EN" "http://www.w3.org/Graphics/SVG/1.1/DTD/svg11.dtd">
<svg version="1.1" id="Layer_1" xmlns="http://www.w3.org/2000/svg" xmlns:xlink="http://www.w3.org/1999/xlink" x="0px" y="0px"
	 width="100px" height="100px" viewBox="0 0 100 100" enable-background="new 0 0 100 100" xml:space="preserve">
<g>
	<g>
		<g>
			<path fill="#C51E52" d="M50,7c2.416,0,4.708,0.41,6.289,1.123c0.064,0.029,6.406,2.9,13.371,7.002
				c6.943,4.09,12.576,8.27,12.631,8.311c2.984,2.225,5.949,7.473,6.348,11.232c0.006,0.07,0.74,7.143,0.74,15.332
				s-0.734,15.262-0.74,15.33c-0.398,3.762-3.363,9.01-6.348,11.232c-0.057,0.041-5.668,4.211-12.631,8.314
				c-6.943,4.088-13.309,6.973-13.369,7.002C54.709,92.592,52.416,93,50,93c-2.416,0-4.709-0.408-6.289-1.121
				c-0.063-0.029-6.406-2.902-13.371-7c-6.944-4.092-12.575-8.275-12.632-8.316c-2.983-2.223-5.949-7.471-6.346-11.23
				c-0.007-0.07-0.742-7.143-0.742-15.332s0.735-15.262,0.742-15.332c0.396-3.76,3.363-9.008,6.348-11.23
				c0.057-0.043,5.686-4.223,12.63-8.312s13.308-6.973,13.371-7.002C45.292,7.41,47.584,7,50,7 M50,3
				c-2.876,0-5.752,0.492-7.935,1.477c0,0-6.522,2.943-13.756,7.203c-7.232,4.258-12.989,8.549-12.989,8.549
				c-3.854,2.871-7.425,9.18-7.936,14.02c0,0-0.765,7.234-0.765,15.752c0,8.52,0.765,15.752,0.765,15.752
				c0.511,4.84,4.081,11.148,7.934,14.018c0,0,5.759,4.293,12.991,8.555c7.233,4.258,13.756,7.201,13.756,7.201
				C44.249,96.508,47.125,97,50,97c2.876,0,5.753-0.492,7.935-1.475c0,0,6.521-2.943,13.754-7.201
				c7.232-4.262,12.992-8.555,12.992-8.555c3.852-2.869,7.422-9.178,7.934-14.018c0,0,0.764-7.232,0.764-15.752
				c0-8.518-0.764-15.752-0.764-15.752c-0.512-4.84-4.082-11.148-7.934-14.02c0,0-5.76-4.291-12.99-8.549
				c-7.234-4.26-13.756-7.203-13.756-7.203C55.754,3.492,52.877,3,50,3L50,3z"/>
		</g>
	</g>
	<g>
		<g>
			<path fill="#C51E52" d="M65.299,28.455v45h-32v-45h29H65.299 M65.299,24.455h-3h-29c-2.209,0-4,1.791-4,4v45c0,2.209,1.791,4,4,4
				h32c2.209,0,4-1.791,4-4v-45C69.299,26.246,67.508,24.455,65.299,24.455L65.299,24.455z"/>
		</g>
		<g>
			<path fill="#C51E52" d="M32.297,28.456c-0.874,0-1.676-0.577-1.924-1.459c-0.299-1.063,0.32-2.168,1.384-2.467l29.112-8.188
				c1.366-0.384,2.746-0.152,3.788,0.638c1.043,0.79,1.642,2.056,1.642,3.475v4c0,1.104-0.896,2-2,2s-2-0.896-2-2v-4
				c0-0.184-0.044-0.272-0.059-0.288c-0.015-0.006-0.109-0.024-0.288,0.026L32.84,28.38C32.659,28.431,32.477,28.456,32.297,28.456z
				"/>
		</g>
		<g>
			<path fill="#C51E52" d="M57.299,37.455v12c0,2-1.344,3-3,3h-3l-2,2l-2-2h-3c-1,0-2.956,0-2.956-3v-12H57.299 M61.299,33.455h-4
				H41.342h-4v4v12c0,3.385,1.827,7,6.956,7h1.343l0.828,0.828l2.829,2.83l2.829-2.83l0.828-0.828h1.344c4.055,0,7-2.943,7-7v-12
				V33.455L61.299,33.455z"/>
		</g>
		<g>
			<path fill="#C51E52" d="M59.299,67.455h-20c-1.104,0-2-0.896-2-2s0.896-2,2-2h20c1.104,0,2,0.896,2,2
				S60.403,67.455,59.299,67.455z"/>
		</g>
	</g>
</g>
</svg>
