<?xml version="1.0" encoding="utf-8"?>
<!-- Generator: Adobe Illustrator 16.0.0, SVG Export Plug-In . SVG Version: 6.00 Build 0)  -->
<!DOCTYPE svg PUBLIC "-//W3C//DTD SVG 1.1//EN" "http://www.w3.org/Graphics/SVG/1.1/DTD/svg11.dtd">
<svg version="1.1" id="Layer_1" xmlns="http://www.w3.org/2000/svg" xmlns:xlink="http://www.w3.org/1999/xlink" x="0px" y="0px"
	 width="100px" height="100px" viewBox="0 0 100 100" enable-background="new 0 0 100 100" xml:space="preserve">
<g>
	<g>
		<g>
			<path fill="#C51E52" d="M50.001,7c2.416,0,4.707,0.41,6.289,1.123c0.062,0.029,6.428,2.912,13.371,7.004
				c6.945,4.088,12.576,8.268,12.631,8.309c2.984,2.225,5.949,7.473,6.348,11.232c0.006,0.07,0.74,7.143,0.74,15.332
				s-0.734,15.262-0.74,15.33c-0.398,3.762-3.363,9.01-6.348,11.232c-0.055,0.041-5.666,4.211-12.631,8.314
				c-6.943,4.088-13.309,6.973-13.371,7.002C54.71,92.592,52.417,93,50.001,93s-4.709-0.408-6.289-1.121
				c-0.062-0.027-6.426-2.914-13.371-7c-6.945-4.092-12.574-8.273-12.631-8.316c-2.984-2.223-5.949-7.471-6.346-11.23
				C11.356,65.26,10.62,58.189,10.62,50s0.736-15.26,0.744-15.332c0.396-3.76,3.361-9.008,6.348-11.232
				c0.057-0.041,5.662-4.209,12.627-8.309c6.947-4.092,13.309-6.975,13.371-7.004C45.292,7.41,47.585,7,50.001,7 M50.001,3
				c-2.877,0-5.752,0.492-7.936,1.477c0,0-6.521,2.943-13.756,7.203c-7.232,4.258-12.988,8.549-12.988,8.549
				c-3.855,2.871-7.426,9.18-7.936,14.02c0,0-0.766,7.234-0.766,15.752c0,8.52,0.766,15.752,0.766,15.752
				c0.51,4.84,4.08,11.148,7.934,14.018c0,0,5.758,4.293,12.99,8.555c7.234,4.258,13.756,7.201,13.756,7.201
				C44.249,96.508,47.124,97,50.001,97s5.752-0.492,7.934-1.475c0,0,6.523-2.943,13.756-7.201
				c7.232-4.262,12.992-8.555,12.992-8.555c3.852-2.869,7.422-9.178,7.934-14.018c0,0,0.764-7.232,0.764-15.752
				c0-8.518-0.764-15.752-0.764-15.752c-0.512-4.84-4.082-11.148-7.934-14.02c0,0-5.76-4.291-12.992-8.549
				c-7.232-4.26-13.756-7.203-13.756-7.203C55.753,3.492,52.878,3,50.001,3L50.001,3z"/>
		</g>
	</g>
	<g>
		<g>
			<path fill="#C51E52" d="M48.394,39.885c2.596,0,4.699,2.23,4.699,4.984c0,2.752-2.104,4.982-4.699,4.982s-4.699-2.23-4.699-4.982
				C43.694,42.115,45.798,39.885,48.394,39.885 M48.394,35.885c-4.797,0-8.699,4.031-8.699,8.984s3.902,8.982,8.699,8.982
				s8.699-4.029,8.699-8.982S53.19,35.885,48.394,35.885L48.394,35.885z"/>
		</g>
		<g>
			<path fill="#C51E52" d="M48.458,54.143c4.223,0,7.855,2.215,9.473,5.396c0.293,0.576-4.561,2.891-9.549,2.916
				c-0.027,0-0.053,0-0.08,0c-4.77,0-9.65-2.219-9.395-2.75C40.481,56.436,44.165,54.143,48.458,54.143 M48.458,50.143
				c-5.701,0-10.863,3.072-13.154,7.826c-0.617,1.281-0.527,2.779,0.242,4.008c0.355,0.566,1.189,1.895,5.346,3.244
				c1.42,0.461,4.27,1.234,7.41,1.234h0.102c4.129-0.021,11.104-1.693,12.914-4.66c0.768-1.258,0.836-2.777,0.18-4.066
				C59.155,53.119,54.036,50.143,48.458,50.143L48.458,50.143z"/>
		</g>
		<g>
			<path fill="#C51E52" d="M64.62,29.455v45h-32v-45h29H64.62 M64.62,25.455h-3h-29c-2.209,0-4,1.791-4,4v45c0,2.209,1.791,4,4,4h32
				c2.209,0,4-1.791,4-4v-45C68.62,27.246,66.829,25.455,64.62,25.455L64.62,25.455z"/>
		</g>
		<g>
			<path fill="#C51E52" d="M31.619,29.456c-0.874,0-1.676-0.577-1.924-1.459c-0.299-1.063,0.32-2.168,1.384-2.467l29.114-8.188
				c1.362-0.384,2.744-0.153,3.787,0.638c1.042,0.79,1.641,2.056,1.641,3.475v4c0,1.104-0.896,2-2,2s-2-0.896-2-2v-4
				c0-0.184-0.044-0.272-0.059-0.289c-0.015-0.005-0.109-0.022-0.286,0.027L32.162,29.38C31.98,29.431,31.798,29.456,31.619,29.456z
				"/>
		</g>
	</g>
</g>
</svg>
