<?xml version="1.0" encoding="utf-8"?>
<!-- Generator: Adobe Illustrator 18.0.0, SVG Export Plug-In . SVG Version: 6.00 Build 0)  -->
<!DOCTYPE svg PUBLIC "-//W3C//DTD SVG 1.1//EN" "http://www.w3.org/Graphics/SVG/1.1/DTD/svg11.dtd">
<svg version="1.1" id="Layer_1" xmlns="http://www.w3.org/2000/svg" xmlns:xlink="http://www.w3.org/1999/xlink" x="0px" y="0px"
	 viewBox="0 0 100 100" enable-background="new 0 0 100 100" xml:space="preserve">
<g>
	<path fill="#C51E52" d="M92.6,34.2c-0.5-4.8-4.1-11.1-7.9-14c0,0-5.8-4.3-13-8.5c-7.2-4.3-13.8-7.2-13.8-7.2C55.8,3.5,52.9,3,50,3
		c-2.9,0-5.8,0.5-7.9,1.5c0,0-6.5,2.9-13.8,7.2c-7.2,4.3-13,8.5-13,8.5c-3.9,2.9-7.4,9.2-7.9,14c0,0-0.8,7.2-0.8,15.8
		c0,8.5,0.8,15.8,0.8,15.8c0.5,4.8,4.1,11.1,7.9,14c0,0,5.8,4.3,13,8.6c7.2,4.3,13.8,7.2,13.8,7.2c2.2,1,5.1,1.5,7.9,1.5
		c2.9,0,5.8-0.5,7.9-1.5c0,0,6.5-2.9,13.8-7.2c7.2-4.3,13-8.6,13-8.6c3.9-2.9,7.4-9.2,7.9-14c0,0,0.8-7.2,0.8-15.8
		C93.4,41.5,92.6,34.2,92.6,34.2z M88.6,65.3c-0.4,3.8-3.4,9-6.3,11.2c-0.1,0-5.7,4.2-12.6,8.3c-6.9,4.1-13.3,7-13.4,7
		C54.7,92.6,52.4,93,50,93c-2.4,0-4.7-0.4-6.3-1.1c-0.1,0-6.4-2.9-13.4-7c-6.9-4.1-12.6-8.3-12.6-8.3c-3-2.2-5.9-7.5-6.3-11.2
		c0-0.1-0.7-7.1-0.7-15.3s0.7-15.3,0.7-15.3c0.4-3.8,3.4-9,6.3-11.2c0.1,0,5.7-4.2,12.6-8.3c6.9-4.1,13.3-7,13.4-7
		C45.3,7.4,47.6,7,50,7c2.4,0,4.7,0.4,6.3,1.1c0.1,0,6.4,2.9,13.4,7c6.9,4.1,12.6,8.3,12.6,8.3c3,2.2,5.9,7.5,6.3,11.2
		c0,0.1,0.7,7.1,0.7,15.3S88.6,65.3,88.6,65.3z"/>
	<path fill="#C51E52" d="M54.4,51.3c1.6-1.6,2.7-3.9,2.7-6.5c0-5-3.9-9-8.7-9c-4.8,0-8.7,4-8.7,9c0,2.6,1,4.9,2.7,6.5
		c-3.1,1.3-5.7,3.6-7.1,6.6c-0.6,1.3-0.5,2.8,0.2,4c0.4,0.6,1.2,1.9,5.3,3.2c1.4,0.5,4.3,1.2,7.4,1.2h0.1c4.1,0,11.1-1.7,12.9-4.7
		c0.8-1.3,0.8-2.8,0.2-4.1C60,54.8,57.5,52.6,54.4,51.3z M48.4,39.9c2.6,0,4.7,2.2,4.7,5c0,2.8-2.1,5-4.7,5c-2.6,0-4.7-2.2-4.7-5
		C43.7,42.1,45.8,39.9,48.4,39.9z M48.4,62.5C48.4,62.5,48.3,62.5,48.4,62.5c-4.9,0-9.7-2.2-9.5-2.8c1.6-3.3,5.3-5.6,9.6-5.6
		c4.2,0,7.9,2.2,9.5,5.4C58.2,60.1,53.4,62.4,48.4,62.5z"/>
	<path fill="#C51E52" d="M65.6,25.6c0,0,0-0.1,0-0.1v-4c0-1.4-0.6-2.7-1.6-3.5c-1-0.8-2.4-1-3.8-0.6l-29.1,8.2
		c-0.6,0.2-1,0.6-1.3,1.1c-0.7,0.7-1.2,1.7-1.2,2.9v45c0,2.2,1.8,4,4,4h32c2.2,0,4-1.8,4-4v-45C68.6,27.6,67.3,26,65.6,25.6z
		 M61.3,21.2c0.2,0,0.3,0,0.3,0c0,0,0.1,0.1,0.1,0.3v4h0H46.1L61.3,21.2z M64.6,74.5h-32v-45h29h3V74.5z"/>
</g>
</svg>
