<?xml version="1.0" encoding="utf-8"?>
<!-- Generator: Adobe Illustrator 16.0.0, SVG Export Plug-In . SVG Version: 6.00 Build 0)  -->
<!DOCTYPE svg PUBLIC "-//W3C//DTD SVG 1.1//EN" "http://www.w3.org/Graphics/SVG/1.1/DTD/svg11.dtd">
<svg version="1.1" id="Layer_1" xmlns:sketch="http://www.bohemiancoding.com/sketch/ns"
	 xmlns="http://www.w3.org/2000/svg" xmlns:xlink="http://www.w3.org/1999/xlink" x="0px" y="0px" width="21px" height="21px"
	 viewBox="0 -4 21 21" enable-background="new 0 -4 21 21" xml:space="preserve">
<title>dd</title>
<desc>Created with Sketch.</desc>
<path fill="#565656" d="M20.303,1.197c-0.391-0.391-1.34-0.074-2.121,0.707l-7.778,7.778c-0.035,0.035-0.064,0.071-0.097,0.107
	L3.063,1.744C2.324,0.923,1.392,0.557,0.981,0.926c-0.41,0.37-0.144,1.334,0.595,2.156l7.36,8.174
	c0.739,0.821,1.48,1.098,1.891,0.729c0.123-0.111,0.266-0.188,0.516-0.438c0.297-0.328,0.29-0.267,0.475-0.451l7.777-7.778
	C20.377,2.537,20.693,1.587,20.303,1.197z"/>
</svg>
