<?xml version="1.0" encoding="utf-8"?>
<!-- Generator: Adobe Illustrator 16.0.0, SVG Export Plug-In . SVG Version: 6.00 Build 0)  -->
<!DOCTYPE svg PUBLIC "-//W3C//DTD SVG 1.1//EN" "http://www.w3.org/Graphics/SVG/1.1/DTD/svg11.dtd">
<svg version="1.1" id="Layer_1" xmlns:sketch="http://www.bohemiancoding.com/sketch/ns"
	 xmlns="http://www.w3.org/2000/svg" xmlns:xlink="http://www.w3.org/1999/xlink" x="0px" y="0px" width="21px" height="21px"
	 viewBox="0 -4 21 21" enable-background="new 0 -4 21 21" xml:space="preserve">
<title>dd</title>
<desc>Created with Sketch.</desc>
<path fill="#565656" d="M0.956,11.73c0.391,0.391,1.34,0.074,2.121-0.707l7.778-7.777c0.035-0.035,0.064-0.071,0.097-0.107
	l7.244,8.045c0.74,0.821,1.672,1.188,2.082,0.818c0.41-0.37,0.145-1.335-0.596-2.156l-7.359-8.174
	c-0.74-0.821-1.481-1.098-1.892-0.729c-0.123,0.111-0.266,0.188-0.516,0.438C9.618,1.709,9.625,1.647,9.44,1.832L1.663,9.609
	C0.882,10.391,0.565,11.34,0.956,11.73z"/>
</svg>
