<?xml version="1.0" encoding="utf-8"?>
<!-- Generator: Adobe Illustrator 16.0.0, SVG Export Plug-In . SVG Version: 6.00 Build 0)  -->
<!DOCTYPE svg PUBLIC "-//W3C//DTD SVG 1.1//EN" "http://www.w3.org/Graphics/SVG/1.1/DTD/svg11.dtd">
<svg version="1.1" id="Layer_1" xmlns:sketch="http://www.bohemiancoding.com/sketch/ns"
	 xmlns="http://www.w3.org/2000/svg" xmlns:xlink="http://www.w3.org/1999/xlink" x="0px" y="0px" width="18px" height="18px"
	 viewBox="-1 -1 18 18" enable-background="new -1 -1 18 18" xml:space="preserve">
<title>Stroke 3915 + Stroke 3916</title>
<desc>Created with Sketch.</desc>
<g id="Page-3" sketch:type="MSPage">
	<g id="desktop_gibdd-06" transform="translate(-886.000000, -2067.000000)" sketch:type="MSArtboardGroup">
		<g id="_x35_" transform="translate(195.000000, 2034.000000)" sketch:type="MSLayerGroup">
			<g id="оплачено-3" transform="translate(692.000000, 32.000000)" sketch:type="MSShapeGroup">
				<g id="Stroke-3915-_x2B_-Stroke-3916" transform="translate(0.000000, 2.000000)">
					<g id="Stroke-3915">
						<path fill="#797F83" d="M7,15c-4.411,0-8-3.589-8-8s3.589-8,8-8s8,3.589,8,8S11.411,15,7,15z M7,1C3.691,1,1,3.691,1,7
							s2.691,6,6,6s6-2.691,6-6S10.309,1,7,1z"/>
					</g>
					<g id="Stroke-3916">
						<path fill="#797F83" d="M9.302,10.389c-0.241,0-0.483-0.087-0.676-0.263L6.02,7.737C5.813,7.548,5.696,7.28,5.696,7V3.652
							c0-0.552,0.448-1,1-1s1,0.448,1,1V6.56l2.281,2.091c0.407,0.373,0.435,1.006,0.062,1.413
							C9.842,10.279,9.572,10.389,9.302,10.389z"/>
					</g>
				</g>
			</g>
		</g>
	</g>
</g>
</svg>
