<?xml version="1.0" encoding="utf-8"?>
<!-- Generator: Adobe Illustrator 18.0.0, SVG Export Plug-In . SVG Version: 6.00 Build 0)  -->
<!DOCTYPE svg PUBLIC "-//W3C//DTD SVG 1.1//EN" "http://www.w3.org/Graphics/SVG/1.1/DTD/svg11.dtd">
<svg version="1.1" id="Слой_1" xmlns:sketch="http://www.bohemiancoding.com/sketch/ns"
	 xmlns="http://www.w3.org/2000/svg" xmlns:xlink="http://www.w3.org/1999/xlink" x="0px" y="0px" viewBox="-2 -2 24 24"
	 enable-background="new -2 -2 24 24" xml:space="preserve">
<title>path-1 3</title>
<desc>Created with Sketch.</desc>
<path fill="#565656" d="M19.9,17.9l-5.7-5.7c0.9-1.3,1.4-2.8,1.4-4.4c0-4.3-3.5-7.7-7.7-7.7c-4.3,0-7.7,3.5-7.7,7.7
	c0,4.3,3.5,7.7,7.7,7.7c1.6,0,3.2-0.5,4.4-1.4l0,0l5.7,5.7c0.1,0.1,0.3,0.1,0.4,0l1.5-1.5C20,18.2,20,18,19.9,17.9z M7.8,13.7
	c-3.3,0-5.9-2.6-5.9-5.9c0-3.3,2.6-5.9,5.9-5.9c3.3,0,5.9,2.6,5.9,5.9C13.7,11,11.1,13.7,7.8,13.7z"/>
</svg>
