<?xml version="1.0" encoding="utf-8"?>
<!-- Generator: Adobe Illustrator 18.0.0, SVG Export Plug-In . SVG Version: 6.00 Build 0)  -->
<!DOCTYPE svg PUBLIC "-//W3C//DTD SVG 1.1//EN" "http://www.w3.org/Graphics/SVG/1.1/DTD/svg11.dtd">
<svg version="1.1" id="Слой_1" xmlns:sketch="http://www.bohemiancoding.com/sketch/ns"
	 xmlns="http://www.w3.org/2000/svg" xmlns:xlink="http://www.w3.org/1999/xlink" x="0px" y="0px" viewBox="0 -1.5 24 24"
	 enable-background="new 0 -1.5 24 24" xml:space="preserve">
<title>Imported Layers</title>
<desc>Created with Sketch.</desc>
<g id="Page-1" sketch:type="MSPage">
	<g id="Passport_unusable" transform="translate(-651.000000, -1064.000000)" sketch:type="MSArtboardGroup">
		<g id="Container-_x2B_-Counter-6" transform="translate(130.000000, 751.000000)" sketch:type="MSLayerGroup">
			<g id="Group" transform="translate(515.000000, 306.000000)" sketch:type="MSShapeGroup">
				<g id="Imported-Layers">
					<path fill="#565656" d="M16.2,27.5C16.1,27.5,16.1,27.5,16.2,27.5c-2.7-0.1-5.2-1.2-7-3.2s-2.8-4.5-2.7-7.2
						c0.1-2.7,1.2-5.1,3.2-7c2-1.8,4.5-2.8,7.2-2.7c2.7,0.1,5.2,1.3,7,3.3c1.6,1.8,2.5,4,2.6,6.5l2.1-3.1c0.2-0.2,0.5-0.3,0.7-0.1
						c0.2,0.2,0.3,0.5,0.1,0.7l-3,4.5c-0.1,0.1-0.2,0.2-0.4,0.2c0,0,0,0,0,0l0,0c0,0,0,0,0,0c-0.2,0-0.3-0.1-0.4-0.2l-3.5-3.9
						c-0.2-0.2-0.2-0.5,0-0.7c0.2-0.2,0.5-0.2,0.7,0l2.6,3c-0.1-2.4-0.9-4.6-2.4-6.2c-1.6-1.8-3.9-2.9-6.3-2.9
						c-2.4-0.1-4.7,0.8-6.5,2.4c-1.8,1.6-2.8,3.9-2.9,6.3c-0.1,2.4,0.8,4.7,2.4,6.5c1.6,1.8,3.9,2.8,6.3,2.9c0.3,0,0.5,0.2,0.5,0.5
						C16.6,27.3,16.4,27.5,16.2,27.5z"/>
				</g>
			</g>
		</g>
	</g>
</g>
</svg>
