<?xml version="1.0" encoding="utf-8"?>
<!-- Generator: Adobe Illustrator 16.0.0, SVG Export Plug-In . SVG Version: 6.00 Build 0)  -->
<!DOCTYPE svg PUBLIC "-//W3C//DTD SVG 1.1//EN" "http://www.w3.org/Graphics/SVG/1.1/DTD/svg11.dtd">
<svg version="1.1" id="Layer_1" xmlns:sketch="http://www.bohemiancoding.com/sketch/ns"
	 xmlns="http://www.w3.org/2000/svg" xmlns:xlink="http://www.w3.org/1999/xlink" x="0px" y="0px" width="100px" height="100px"
	 viewBox="-18.5 -24.5 100 100" enable-background="new -18.5 -24.5 100 100" xml:space="preserve">
<title>twitter</title>
<desc>Created with Sketch.</desc>
<g id="Page-3" sketch:type="MSPage">
	<g id="landscape_gibdd-10" transform="translate(-1388.000000, -1595.000000)" sketch:type="MSArtboardGroup">
		<g id="Group-10" transform="translate(312.000000, 1565.000000)" sketch:type="MSLayerGroup">
			<g id="Rectangle-88-_x2B_-1391004372" transform="translate(1052.000000, 0.000000)" sketch:type="MSShapeGroup">
				<path id="twitter" fill="#565656" d="M79.617,38.013c2.672-1.583,4.717-4.094,5.686-7.077c-2.501,1.465-5.271,2.53-8.219,3.108
					C74.729,31.552,71.369,30,67.648,30c-7.142,0-12.933,5.732-12.933,12.798c0,1.002,0.114,1.98,0.334,2.917
					c-10.748-0.534-20.278-5.63-26.656-13.375c-1.115,1.888-1.749,4.087-1.749,6.435c0,4.442,2.285,8.36,5.751,10.653
					c-2.12-0.07-4.113-0.648-5.858-1.606v0.16c0,6.201,4.46,11.375,10.374,12.553c-1.083,0.289-2.226,0.448-3.408,0.448
					c-0.835,0-1.643-0.082-2.435-0.234c1.646,5.085,6.422,8.786,12.08,8.892c-4.425,3.432-10.003,5.475-16.062,5.475
					c-1.045,0-2.073-0.062-3.085-0.176c5.725,3.635,12.521,5.756,19.825,5.756c23.789,0,36.798-19.506,36.798-36.422l-0.043-1.657
					c2.537-1.797,4.734-4.051,6.465-6.617C84.725,37.015,82.234,37.706,79.617,38.013z"/>
			</g>
		</g>
	</g>
</g>
</svg>
