<?xml version="1.0" encoding="utf-8"?>
<!-- Generator: Adobe Illustrator 18.0.0, SVG Export Plug-In . SVG Version: 6.00 Build 0)  -->
<!DOCTYPE svg PUBLIC "-//W3C//DTD SVG 1.1//EN" "http://www.w3.org/Graphics/SVG/1.1/DTD/svg11.dtd">
<svg version="1.1" id="Слой_1" xmlns:sketch="http://www.bohemiancoding.com/sketch/ns"
	 xmlns="http://www.w3.org/2000/svg" xmlns:xlink="http://www.w3.org/1999/xlink" x="0px" y="0px" viewBox="0 -1.5 24 24"
	 enable-background="new 0 -1.5 24 24" xml:space="preserve">
<title>Imported Layers</title>
<desc>Created with Sketch.</desc>
<g id="Page-1" sketch:type="MSPage">
	<g id="Passport_unusable" transform="translate(-650.000000, -1118.000000)" sketch:type="MSArtboardGroup">
		<g id="Container-_x2B_-Counter-6" transform="translate(130.000000, 751.000000)" sketch:type="MSLayerGroup">
			<g id="Group" transform="translate(515.000000, 306.000000)" sketch:type="MSShapeGroup">
				<g id="Imported-Layers">
					<path fill="#565656" d="M18.8,81.5c-0.3,0-0.5-0.2-0.5-0.5c0-0.3,0.2-0.5,0.5-0.5c2.4-0.1,4.6-1.1,6.3-2.9
						c1.6-1.8,2.5-4.1,2.4-6.5c-0.2-5-4.4-8.8-9.3-8.7c-2.5,0.1-4.7,1.1-6.3,2.9c-1.5,1.7-2.3,3.8-2.4,6.2l2.6-3
						c0.2-0.2,0.5-0.2,0.7,0c0.2,0.2,0.2,0.5,0,0.7l-3.5,3.9c-0.1,0.1-0.2,0.2-0.4,0.2c0,0,0,0,0,0c0,0,0,0,0,0
						c-0.2,0-0.3-0.1-0.4-0.2l-3-4.5c-0.2-0.2-0.1-0.5,0.1-0.7C6,67.9,6.3,68,6.4,68.2l2.1,3.1c0.1-2.5,1-4.8,2.6-6.5
						c1.8-2,4.3-3.2,7-3.3c5.5-0.2,10.2,4.1,10.4,9.6c0.1,2.7-0.8,5.2-2.7,7.2S21.5,81.4,18.8,81.5C18.9,81.5,18.9,81.5,18.8,81.5z"
						/>
				</g>
			</g>
		</g>
	</g>
</g>
</svg>
