<?xml version="1.0" encoding="utf-8"?>
<!-- Generator: Adobe Illustrator 18.0.0, SVG Export Plug-In . SVG Version: 6.00 Build 0)  -->
<!DOCTYPE svg PUBLIC "-//W3C//DTD SVG 1.1//EN" "http://www.w3.org/Graphics/SVG/1.1/DTD/svg11.dtd">
<svg version="1.1" id="Слой_1" xmlns:sketch="http://www.bohemiancoding.com/sketch/ns"
	 xmlns="http://www.w3.org/2000/svg" xmlns:xlink="http://www.w3.org/1999/xlink" x="0px" y="0px" viewBox="5.5 5.5 24 24"
	 enable-background="new 5.5 5.5 24 24" xml:space="preserve">
<title>Rectangle 88 + 1391004371 + Imported Layers + Path</title>
<desc>Created with Sketch.</desc>
<path d="M27.1,7.4c-0.2-0.2-0.5-0.2-0.7,0l-3.1,3.3h-9.5V9.2c0-0.3-0.2-0.5-0.5-0.5h-3C10,8.7,9.8,9,9.8,9.2v1.5H8.2
	c-0.3,0-0.5,0.2-0.5,0.5v3c0,0.3,0.2,0.5,0.5,0.5h1.5v10.5c0,0.3,0.2,0.5,0.5,0.5h10.5v1.5c0,0.3,0.2,0.5,0.5,0.5h3
	c0.3,0,0.5-0.2,0.5-0.5v-1.5h1.5c0.3,0,0.5-0.2,0.5-0.5v-3c0-0.3-0.2-0.5-0.5-0.5h-1.5V11.2c0-0.2-0.1-0.3-0.2-0.4l2.6-2.8
	C27.3,7.9,27.3,7.6,27.1,7.4z M10.8,9.7h2v1h-2V9.7z M8.8,13.7v-2h13.6l-1.9,2H8.8z M20.8,14.9v6.8h-6.3L20.8,14.9z M13.8,21v-6.2
	h5.8L13.8,21z M23.8,26.7h-2v-1h2V26.7z M25.8,22.7v2h-1.5H10.8v-10h2v7.3l-0.3,0.3c-0.2,0.2-0.2,0.5,0,0.7c0.1,0.1,0.2,0.1,0.3,0.1
	c0.1,0,0.3-0.1,0.4-0.2l0.3-0.3H25.8z M23.8,11.7v10h-2v-7.5c0-0.1,0-0.2-0.1-0.3L23.8,11.7L23.8,11.7z"/>
</svg>
