<?xml version="1.0" encoding="utf-8"?>
<!-- Generator: Adobe Illustrator 18.0.0, SVG Export Plug-In . SVG Version: 6.00 Build 0)  -->
<!DOCTYPE svg PUBLIC "-//W3C//DTD SVG 1.1//EN" "http://www.w3.org/Graphics/SVG/1.1/DTD/svg11.dtd">
<svg version="1.1" id="Слой_1" xmlns:sketch="http://www.bohemiancoding.com/sketch/ns"
	 xmlns="http://www.w3.org/2000/svg" xmlns:xlink="http://www.w3.org/1999/xlink" x="0px" y="0px" viewBox="-2.5 -3 24 24"
	 enable-background="new -2.5 -3 24 24" xml:space="preserve">
<title>Imported Layers</title>
<desc>Created with Sketch.</desc>
<g id="Page-1" sketch:type="MSPage">
	<g id="Passport_unusable" transform="translate(-653.000000, -1231.000000)" sketch:type="MSArtboardGroup">
		<g id="Container-_x2B_-Counter-6" transform="translate(130.000000, 751.000000)" sketch:type="MSLayerGroup">
			<g id="Group" transform="translate(515.000000, 306.000000)" sketch:type="MSShapeGroup">
				<g id="Imported-Layers">
					<path fill="#565656" d="M26,192c-0.1,0-0.3,0-0.4-0.1l-8.2-8.2l-8.2,8.2c-0.2,0.2-0.5,0.2-0.7,0s-0.2-0.5,0-0.7l8.2-8.2
						l-8.2-8.2c-0.2-0.2-0.2-0.5,0-0.7s0.5-0.2,0.7,0l8.2,8.2l8.2-8.2c0.2-0.2,0.5-0.2,0.7,0s0.2,0.5,0,0.7l-8.2,8.2l8.2,8.2
						c0.2,0.2,0.2,0.5,0,0.7C26.3,192,26.2,192,26,192z"/>
				</g>
			</g>
		</g>
	</g>
</g>
</svg>
