<?xml version="1.0" encoding="UTF-8" standalone="no"?>
<svg width="22px" height="19px" viewBox="0 0 22 19" version="1.1" xmlns="http://www.w3.org/2000/svg" xmlns:xlink="http://www.w3.org/1999/xlink" xmlns:sketch="http://www.bohemiancoding.com/sketch/ns">
    <!-- Generator: Sketch 3.0.4 (8054) - http://www.bohemiancoding.com/sketch -->
    <title>Fill 2385</title>
    <desc>Created with Sketch.</desc>
    <defs></defs>
    <g id="Page-1" stroke="none" stroke-width="1" fill="none" fill-rule="evenodd" sketch:type="MSPage">
        <g id="New-18-years" sketch:type="MSArtboardGroup" transform="translate(-194.000000, -4128.000000)" fill="#535B63">
            <g id="Group-4" sketch:type="MSLayerGroup" transform="translate(129.000000, 4007.000000)">
                <g id="Fill-2387" transform="translate(65.000000, 121.000000)" sketch:type="MSShapeGroup">
                    <path d="M21.5,4 L15.4705,4 C15.221,1.753 13.312,0 11,0 C8.688,0 6.7795,1.753 6.5295,4 L0.5,4 C0.224,4 0,4.2235 0,4.5 L0,18.5 C0,18.7765 0.224,19 0.5,19 L21.5,19 C21.776,19 22,18.7765 22,18.5 L22,4.5 C22,4.2235 21.776,4 21.5,4 L21.5,4 Z M11,1 C12.76,1 14.216,2.307 14.46,4 L7.54,4 C7.784,2.307 9.2405,1 11,1 L11,1 Z M21,5 L21,9 L13,9 L13,8.5 C13,8.2235 12.776,8 12.5,8 L9.5,8 C9.224,8 9,8.2235 9,8.5 L9,9 L1,9 L1,5 L21,5 L21,5 Z M10,9 L12,9 L12,12 L10,12 L10,9 Z M1,18 L1,10 L9,10 L9,12.5 C9,12.7765 9.224,13 9.5,13 L12.5,13 C12.776,13 13,12.7765 13,12.5 L13,10 L21,10 L21,18 L1,18 L1,18 Z" id="Fill-2385"></path>
                </g>
            </g>
        </g>
    </g>
</svg>