<?xml version="1.0" encoding="UTF-8" standalone="no"?>
<svg width="23px" height="22px" viewBox="0 0 23 22" version="1.1" xmlns="http://www.w3.org/2000/svg" xmlns:xlink="http://www.w3.org/1999/xlink" xmlns:sketch="http://www.bohemiancoding.com/sketch/ns">
    <!-- Generator: Sketch 3.0.4 (8054) - http://www.bohemiancoding.com/sketch -->
    <title>Fill 3998</title>
    <desc>Created with Sketch.</desc>
    <defs></defs>
    <g id="Page-1" stroke="none" stroke-width="1" fill="none" fill-rule="evenodd" sketch:type="MSPage">
        <g id="New-18-years" sketch:type="MSArtboardGroup" transform="translate(-193.000000, -4167.000000)" fill="#535B63">
            <g id="Group-4" sketch:type="MSLayerGroup" transform="translate(129.000000, 4007.000000)">
                <g id="Fill-4000" transform="translate(64.000000, 160.000000)" sketch:type="MSShapeGroup">
                    <path d="M22.5,2 L21,2 L21,0.5 C21,0.224 20.7765,0 20.5,0 L14.5,0 C13.066,0 12.055,0.4745 11.5,1.392 C10.945,0.4745 9.934,0 8.5,0 L2.5,0 C2.2235,0 2,0.224 2,0.5 L2,2 L0.5,2 C0.2235,2 0,2.2235 0,2.5 L0,18.5 C0,18.7765 0.2235,19 0.5,19 L6.5,19 C7.402,19 9.5,19.2435 9.5,21.5 C9.5,21.7765 9.7235,22 10,22 L13,22 C13.2765,22 13.5,21.7765 13.5,21.5 C13.5,19.2435 15.598,19 16.5,19 L22.5,19 C22.7765,19 23,18.7765 23,18.5 L23,2.5 C23,2.2235 22.7765,2 22.5,2 L22.5,2 Z M14.5,1 L20,1 L20,16 L14.5,16 C13.4235,16 12.586,16.2675 12,16.789 L12,3.5 C12,1.771 12.771,1 14.5,1 L14.5,1 Z M3,1 L8.5,1 C10.229,1 11,1.771 11,3.5 L11,16.789 C10.4145,16.2675 9.5765,16 8.5,16 L3,16 L3,1 L3,1 Z M22,18 L16.5,18 C14.266,18 12.7595,19.1605 12.5305,21 L10.47,21 C10.2405,19.1605 8.734,18 6.5,18 L1,18 L1,3 L2,3 L2,16.5 C2,16.776 2.2235,17 2.5,17 L8.5,17 C10.229,17 11,17.771 11,19.5 C11,19.776 11.2235,20 11.5,20 C11.7765,20 12,19.776 12,19.5 C12,17.771 12.771,17 14.5,17 L20.5,17 C20.7765,17 21,16.776 21,16.5 L21,3 L22,3 L22,18 L22,18 Z" id="Fill-3998"></path>
                </g>
            </g>
        </g>
    </g>
</svg>