<?xml version="1.0" encoding="UTF-8" standalone="no"?>
<svg width="24px" height="24px" viewBox="0 0 24 24" version="1.1" xmlns="http://www.w3.org/2000/svg" xmlns:xlink="http://www.w3.org/1999/xlink" xmlns:sketch="http://www.bohemiancoding.com/sketch/ns">
    <!-- Generator: Sketch 3.0.4 (8054) - http://www.bohemiancoding.com/sketch -->
    <title>Fill 278</title>
    <desc>Created with Sketch.</desc>
    <defs></defs>
    <g id="Page-1" stroke="none" stroke-width="1" fill="none" fill-rule="evenodd" sketch:type="MSPage">
        <g id="New-18-years" sketch:type="MSArtboardGroup" transform="translate(-193.000000, -4203.000000)" fill="#535B63">
            <g id="Group-4" sketch:type="MSLayerGroup" transform="translate(129.000000, 4007.000000)">
                <g id="Fill-278" transform="translate(64.000000, 196.000000)" sketch:type="MSShapeGroup">
                    <path d="M23.9725,8.837 C23.903,8.635 23.713,8.5 23.5,8.5 L15.354,8.5 L12.4715,0.3335 C12.401,0.134 12.212,0 12,0 C11.788,0 11.599,0.134 11.5285,0.3335 L8.6465,8.5 L0.5,8.5 C0.287,8.5 0.097,8.635 0.0275,8.837 C-0.042,9.038 0.0235,9.2615 0.191,9.393 L6.9145,14.676 L4.0255,23.342 C3.957,23.5485 4.0295,23.776 4.2055,23.9045 C4.381,24.032 4.62,24.032 4.7955,23.9035 L12,18.62 L19.2045,23.9035 C19.2925,23.968 19.3965,24 19.5,24 C19.603,24 19.707,23.968 19.7945,23.9045 C19.9705,23.776 20.043,23.5485 19.9745,23.342 L17.0855,14.676 L23.809,9.393 C23.9765,9.2615 24.0425,9.038 23.9725,8.837 L23.9725,8.837 Z M16.191,14.107 C16.025,14.2375 15.959,14.458 16.0255,14.658 L18.529,22.168 L12.2955,17.5965 C12.208,17.532 12.104,17.5 12,17.5 C11.8965,17.5 11.7925,17.532 11.7045,17.5965 L5.471,22.168 L7.9745,14.658 C8.041,14.458 7.975,14.2375 7.809,14.107 L1.9455,9.5 L9,9.5 C9.212,9.5 9.401,9.366 9.4715,9.1665 L12,2.002 L14.5285,9.1665 C14.599,9.366 14.788,9.5 15,9.5 L22.0545,9.5 L16.191,14.107 L16.191,14.107 Z" id="Fill-276"></path>
                </g>
            </g>
        </g>
    </g>
</svg>