<?xml version="1.0" encoding="UTF-8" standalone="no"?>
<svg width="24px" height="20px" viewBox="0 0 24 20" version="1.1" xmlns="http://www.w3.org/2000/svg" xmlns:xlink="http://www.w3.org/1999/xlink" xmlns:sketch="http://www.bohemiancoding.com/sketch/ns">
    <!-- Generator: Sketch 3.0.4 (8054) - http://www.bohemiancoding.com/sketch -->
    <title>Group 4</title>
    <desc>Created with Sketch.</desc>
    <defs></defs>
    <g id="Page-1" stroke="none" stroke-width="1" fill="none" fill-rule="evenodd" sketch:type="MSPage">
        <g id="New-18-years" sketch:type="MSArtboardGroup" transform="translate(-193.000000, -4246.000000)" fill="#535B63">
            <g id="Group-4" sketch:type="MSLayerGroup" transform="translate(129.000000, 4007.000000)">
                <g transform="translate(64.000000, 239.000000)" sketch:type="MSShapeGroup">
                    <path d="M0.301,8.9585 L11.801,13.9585 C11.8645,13.9865 11.9325,14 12,14 C12.068,14 12.1355,13.9865 12.1995,13.9585 L23.699,8.9585 C23.953,8.8485 24.069,8.5535 23.9585,8.301 C23.848,8.048 23.5545,7.9305 23.301,8.0415 L12,12.955 L0.699,8.0415 C0.445,7.9305 0.1515,8.0475 0.0415,8.301 C-0.069,8.5535 0.0475,8.8485 0.301,8.9585" id="Fill-3656"></path>
                    <path d="M23.301,11.0415 L12,15.955 L0.699,11.0415 C0.445,10.9305 0.1515,11.0475 0.0415,11.301 C-0.069,11.5535 0.0475,11.8485 0.301,11.9585 L11.801,16.9585 C11.8645,16.9865 11.9325,17 12,17 C12.068,17 12.1355,16.9865 12.1995,16.9585 L23.699,11.9585 C23.953,11.8485 24.069,11.5535 23.9585,11.301 C23.848,11.048 23.5545,10.9305 23.301,11.0415" id="Fill-3657"></path>
                    <path d="M23.301,14.0415 L12,18.955 L0.699,14.0415 C0.445,13.9295 0.1515,14.048 0.0415,14.301 C-0.069,14.5535 0.0475,14.8485 0.301,14.9585 L11.801,19.9585 C11.8645,19.9865 11.9325,20 12,20 C12.068,20 12.1355,19.9865 12.1995,19.9585 L23.699,14.9585 C23.953,14.8485 24.069,14.5535 23.9585,14.301 C23.848,14.048 23.5545,13.9305 23.301,14.0415" id="Fill-3658"></path>
                    <path d="M0.301,5.9585 L11.801,10.9585 C11.8645,10.9865 11.9325,11 12,11 C12.068,11 12.1355,10.9865 12.1995,10.9585 L23.699,5.9585 C23.882,5.879 24,5.699 24,5.5 C24,5.301 23.882,5.121 23.699,5.0415 L12.1995,0.0415 C12.0725,-0.0135 11.9275,-0.0135 11.801,0.0415 L0.301,5.0415 C0.118,5.121 0,5.301 0,5.5 C0,5.699 0.118,5.879 0.301,5.9585 L0.301,5.9585 Z M12,1.045 L22.246,5.5 L12,9.955 L1.754,5.5 L12,1.045 L12,1.045 Z" id="Fill-3659"></path>
                </g>
            </g>
        </g>
    </g>
</svg>