<?xml version="1.0" encoding="utf-8"?>
<!-- Generator: Adobe Illustrator 18.0.0, SVG Export Plug-In . SVG Version: 6.00 Build 0)  -->
<!DOCTYPE svg PUBLIC "-//W3C//DTD SVG 1.1//EN" "http://www.w3.org/Graphics/SVG/1.1/DTD/svg11.dtd">
<svg version="1.1" id="Слой_1" xmlns="http://www.w3.org/2000/svg" xmlns:xlink="http://www.w3.org/1999/xlink" x="0px" y="0px"
	 viewBox="0 0 86.6 94" enable-background="new 0 0 86.6 94" xml:space="preserve">
<g>
	<g>
		<path fill="#83C4C9" d="M43.2,4c2.4,0,4.7,0.4,6.3,1.1c0.1,0,6.4,2.9,13.4,7c6.9,4.1,12.6,8.3,12.6,8.3c3,2.2,5.9,7.5,6.3,11.2
			c0,0.1,0.7,7.1,0.7,15.3c0,8.2-0.7,15.3-0.7,15.3c-0.4,3.8-3.4,9-6.3,11.2c-0.1,0-5.7,4.2-12.6,8.3c-6.9,4.1-13.3,7-13.4,7
			c-1.6,0.7-3.9,1.1-6.3,1.1c-2.4,0-4.7-0.4-6.3-1.1c-0.1,0-6.4-2.9-13.4-7c-6.9-4.1-12.6-8.3-12.6-8.3c-3-2.2-5.9-7.5-6.3-11.2
			c0-0.1-0.7-7.1-0.7-15.3c0-8.2,0.7-15.3,0.7-15.3c0.4-3.8,3.4-9,6.3-11.2c0.1,0,5.7-4.2,12.6-8.3c6.9-4.1,13.3-7,13.4-7
			C38.5,4.4,40.8,4,43.2,4 M43.2,0c-2.9,0-5.8,0.5-7.9,1.5c0,0-6.5,2.9-13.8,7.2c-7.2,4.3-13,8.5-13,8.5c-3.9,2.9-7.4,9.2-7.9,14
			c0,0-0.8,7.2-0.8,15.8c0,8.5,0.8,15.8,0.8,15.8c0.5,4.8,4.1,11.1,7.9,14c0,0,5.8,4.3,13,8.6c7.2,4.3,13.8,7.2,13.8,7.2
			c2.2,1,5.1,1.5,7.9,1.5c2.9,0,5.8-0.5,7.9-1.5c0,0,6.5-2.9,13.8-7.2c7.2-4.3,13-8.6,13-8.6c3.9-2.9,7.4-9.2,7.9-14
			c0,0,0.8-7.2,0.8-15.8c0-8.5-0.8-15.8-0.8-15.8c-0.5-4.8-4.1-11.1-7.9-14c0,0-5.8-4.3-13-8.5c-7.2-4.3-13.8-7.2-13.8-7.2
			C49,0.5,46.1,0,43.2,0L43.2,0z"/>
	</g>
</g>
<circle fill-rule="evenodd" clip-rule="evenodd" fill="#83C4C9" cx="35.8" cy="47.5" r="3.5"/>
<circle fill-rule="evenodd" clip-rule="evenodd" fill="#83C4C9" cx="50.8" cy="47.5" r="3.5"/>
<g>
	<path fill="#83C4C9" d="M43.2,65c-4.5,0-8.6-2.5-10.7-6.5c-0.5-1-0.1-2.2,0.8-2.7c1-0.5,2.2-0.1,2.7,0.8c1.4,2.7,4.2,4.4,7.2,4.4
		c3,0,5.8-1.7,7.2-4.4c0.5-1,1.7-1.4,2.7-0.8c1,0.5,1.4,1.7,0.8,2.7C51.8,62.5,47.7,65,43.2,65z"/>
</g>
<path fill="#83C4C9" d="M45.4,29.4c-0.3-0.2-0.7-0.4-1.1-0.4c-1,0-6-0.4-6-6c0-2.9,3.1-6,6-6c2.9,0,5,2.1,5,4c0,1.9-1.2,3-2,3
	c-0.9,0-1.6-0.2-1.9-0.5c-0.2-0.3-0.2-0.9-0.2-1c0.3-1.1-0.4-2.2-1.5-2.4c-1.1-0.3-2.2,0.4-2.4,1.5c-0.1,0.3-0.6,2.6,0.9,4.4
	c1.1,1.4,2.8,2,5.1,2c3.3,0,6-3.1,6-7c0-4.3-4.1-8-9-8c-5.1,0-10,4.9-10,10c0,3.3,1.1,5.6,2.7,7.1c-9.4,2.7-16.3,11.4-16.3,21.6
	c0,12.4,10.1,22.5,22.5,22.5s22.5-10.1,22.5-22.5C65.7,40.1,56.8,30.5,45.4,29.4z M43.2,70.3C33,70.3,24.7,62,24.7,51.8
	S33,33.3,43.2,33.3c10.2,0,18.5,8.3,18.5,18.5S53.4,70.3,43.2,70.3z"/>
</svg>
