<?xml version="1.0" encoding="utf-8"?>
<!-- Generator: Adobe Illustrator 16.0.0, SVG Export Plug-In . SVG Version: 6.00 Build 0)  -->
<!DOCTYPE svg PUBLIC "-//W3C//DTD SVG 1.1//EN" "http://www.w3.org/Graphics/SVG/1.1/DTD/svg11.dtd">
<svg version="1.1" id="Layer_1" xmlns:sketch="http://www.bohemiancoding.com/sketch/ns"
	 xmlns="http://www.w3.org/2000/svg" xmlns:xlink="http://www.w3.org/1999/xlink" x="0px" y="0px" width="100px" height="100px"
	 viewBox="-32.5 -21 100 100" enable-background="new -32.5 -21 100 100" xml:space="preserve">
<title>Imported Layers</title>
<desc>Created with Sketch.</desc>
<g id="Page-3" sketch:type="MSPage">
	<g id="landscape_gibdd-10" transform="translate(-1572.000000, -1591.000000)" sketch:type="MSArtboardGroup">
		<g id="Group-10" transform="translate(312.000000, 1565.000000)" sketch:type="MSLayerGroup">
			<g id="Rectangle-88-_x2B_-1391004373" transform="translate(1222.000000, 0.000000)" sketch:type="MSShapeGroup">
				<path id="Imported-Layers" fill="#565656" d="M55.157,26c-8.431,0-15.289,6.715-15.289,14.969s6.858,14.966,15.289,14.966
					c8.431,0,15.285-6.712,15.285-14.966S63.588,26,55.157,26L55.157,26z M55.157,34.771c3.49,0,6.327,2.782,6.327,6.199
					c0,3.416-2.837,6.195-6.327,6.195c-3.49,0-6.331-2.779-6.331-6.195C48.826,37.553,51.667,34.771,55.157,34.771L55.157,34.771z
					 M42.552,56.445c-1.513-0.023-3,0.706-3.863,2.053c-1.318,2.052-0.687,4.758,1.403,6.049c2.764,1.698,5.764,2.902,8.875,3.598
					l-8.544,8.37c-1.749,1.714-1.748,4.489,0.002,6.202C41.302,83.572,42.445,84,43.592,84c1.145,0,2.293-0.429,3.167-1.285
					l8.394-8.223l8.401,8.223c1.748,1.713,4.582,1.713,6.332,0s1.75-4.49,0-6.2l-8.547-8.368c3.111-0.695,6.111-1.9,8.875-3.6
					c2.094-1.291,2.727-4.001,1.408-6.049c-1.319-2.052-4.082-2.67-6.178-1.377c-6.26,3.854-14.324,3.852-20.582,0
					C44.144,56.677,43.345,56.457,42.552,56.445L42.552,56.445z"/>
			</g>
		</g>
	</g>
</g>
</svg>
