<?xml version="1.0" encoding="utf-8"?>
<!-- Generator: Adobe Illustrator 18.0.0, SVG Export Plug-In . SVG Version: 6.00 Build 0)  -->
<!DOCTYPE svg PUBLIC "-//W3C//DTD SVG 1.1//EN" "http://www.w3.org/Graphics/SVG/1.1/DTD/svg11.dtd">
<svg version="1.1" id="Слой_1" xmlns="http://www.w3.org/2000/svg" xmlns:xlink="http://www.w3.org/1999/xlink" x="0px" y="0px"
	 viewBox="247.6 370.9 100 100" enable-background="new 247.6 370.9 100 100" xml:space="preserve">
<g>
	<path fill="#787F87" d="M340.3,405.2c-0.5-4.8-4.1-11.1-7.9-14c0,0-5.8-4.3-13-8.5c-7.2-4.3-13.8-7.2-13.8-7.2
		c-2.2-1-5.1-1.5-7.9-1.5c-2.9,0-5.8,0.5-7.9,1.5c0,0-6.5,2.9-13.8,7.2c-7.2,4.3-13,8.5-13,8.5c-3.9,2.9-7.4,9.2-7.9,14
		c0,0-0.8,7.2-0.8,15.8c0,8.5,0.8,15.8,0.8,15.8c0.5,4.8,4.1,11.1,7.9,14c0,0,5.8,4.3,13,8.6c7.2,4.3,13.8,7.2,13.8,7.2
		c2.2,1,5.1,1.5,7.9,1.5c2.9,0,5.8-0.5,7.9-1.5c0,0,6.5-2.9,13.8-7.2c7.2-4.3,13-8.6,13-8.6c3.9-2.9,7.4-9.2,7.9-14
		c0,0,0.8-7.2,0.8-15.8C341,412.4,340.3,405.2,340.3,405.2z M336.3,436.3c-0.4,3.8-3.4,9-6.3,11.2c-0.1,0-5.7,4.2-12.6,8.3
		c-6.9,4.1-13.3,7-13.4,7c-1.6,0.7-3.9,1.1-6.3,1.1c-2.4,0-4.7-0.4-6.3-1.1c-0.1,0-6.4-2.9-13.4-7c-6.9-4.1-12.6-8.3-12.6-8.3
		c-3-2.2-5.9-7.5-6.3-11.2c0-0.1-0.7-7.1-0.7-15.3c0-8.2,0.7-15.3,0.7-15.3c0.4-3.8,3.4-9,6.3-11.2c0.1,0,5.7-4.2,12.6-8.3
		c6.9-4.1,13.3-7,13.4-7c1.6-0.7,3.9-1.1,6.3-1.1s4.7,0.4,6.3,1.1c0.1,0,6.4,2.9,13.4,7c6.9,4.1,12.6,8.3,12.6,8.3
		c3,2.2,6,7.5,6.3,11.2c0,0.1,0.7,7.1,0.7,15.3C337,429.1,336.3,436.2,336.3,436.3z"/>
	<path fill="#787F87" d="M287.7,409.9h19c1.1,0,2-0.9,2-2c0-1.1-0.9-2-2-2h-19c-1.1,0-2,0.9-2,2C285.7,409,286.6,409.9,287.7,409.9z
		"/>
	<path fill="#787F87" d="M308.7,416.9c0-1.1-0.9-2-2-2h-19c-1.1,0-2,0.9-2,2c0,1.1,0.9,2,2,2h19C307.8,418.9,308.7,418,308.7,416.9z
		"/>
	<path fill="#787F87" d="M316.8,421.7c0,0,0-0.1,0-0.1v-22.6c0-1.1-0.9-2-2-2H280c-1.1,0-2,0.9-2,2v42c0,1.1,0.9,2,2,2h26
		c0,0,0,0,0,0c1.9,1.3,4.2,2,6.6,2c6.6,0,12-5.4,12-12C324.7,427.7,321.4,423.3,316.8,421.7z M302.3,438.9H282v-38h30.7v20
		c0,0,0,0-0.1,0c-6.6,0-12,5.4-12,12C300.7,435.1,301.3,437.2,302.3,438.9z M312.7,440.9c-4.4,0-8-3.6-8-8c0-4.4,3.6-8,8-8
		c4.4,0,8,3.6,8,8C320.7,437.4,317.1,440.9,312.7,440.9z"/>
	<path fill="#787F87" d="M316.3,429l-4.6,4.2l-1.6-1.6c-0.8-0.8-2-0.8-2.8,0c-0.8,0.8-0.8,2,0,2.8l3,3c0.4,0.4,0.9,0.6,1.4,0.6
		c0.5,0,1-0.2,1.4-0.5l6-5.5c0.8-0.7,0.9-2,0.1-2.8C318.4,428.3,317.2,428.2,316.3,429z"/>
</g>
</svg>
