<?xml version="1.0" encoding="utf-8"?>
<!-- Generator: Adobe Illustrator 18.0.0, SVG Export Plug-In . SVG Version: 6.00 Build 0)  -->
<!DOCTYPE svg PUBLIC "-//W3C//DTD SVG 1.1//EN" "http://www.w3.org/Graphics/SVG/1.1/DTD/svg11.dtd">
<svg version="1.1" id="Layer_1" xmlns="http://www.w3.org/2000/svg" xmlns:xlink="http://www.w3.org/1999/xlink" x="0px" y="0px"
	 viewBox="0 0 100 100" enable-background="new 0 0 100 100" xml:space="preserve">
<g>
	<path fill="#82C4CA" d="M92.6,34.2c-0.5-4.8-4.1-11.1-7.9-14c0,0-5.8-4.3-13-8.5c-7.2-4.3-13.8-7.2-13.8-7.2C55.8,3.5,52.9,3,50,3
		s-5.8,0.5-7.9,1.5c0,0-6.5,2.9-13.8,7.2c-7.2,4.3-13,8.5-13,8.5c-3.9,2.9-7.4,9.2-7.9,14c0,0-0.8,7.2-0.8,15.8
		c0,8.5,0.8,15.8,0.8,15.8c0.5,4.8,4.1,11.1,7.9,14c0,0,5.8,4.3,13,8.6c7.2,4.3,13.8,7.2,13.8,7.2c2.2,1,5.1,1.5,7.9,1.5
		s5.8-0.5,7.9-1.5c0,0,6.5-2.9,13.8-7.2c7.2-4.3,13-8.6,13-8.6c3.9-2.9,7.4-9.2,7.9-14c0,0,0.8-7.2,0.8-15.8
		C93.4,41.5,92.6,34.2,92.6,34.2z M88.6,65.3c-0.4,3.8-3.4,9-6.3,11.2c-0.1,0-5.7,4.2-12.6,8.3c-6.9,4.1-13.3,7-13.4,7
		C54.7,92.6,52.4,93,50,93s-4.7-0.4-6.3-1.1c-0.1,0-6.4-2.9-13.4-7c-6.9-4.1-12.6-8.3-12.6-8.3c-3-2.2-5.9-7.5-6.3-11.2
		c0-0.1-0.7-7.1-0.7-15.3c0-8.2,0.7-15.3,0.7-15.3c0.4-3.8,3.4-9,6.3-11.2c0.1,0,5.7-4.2,12.6-8.3c6.9-4.1,13.3-7,13.4-7
		C45.3,7.4,47.6,7,50,7s4.7,0.4,6.3,1.1c0.1,0,6.4,2.9,13.4,7c6.9,4.1,12.6,8.3,12.6,8.3c3,2.2,5.9,7.5,6.3,11.2
		c0,0.1,0.7,7.1,0.7,15.3C89.4,58.2,88.6,65.3,88.6,65.3z"/>
	<path fill="#82C4CA" d="M75.9,32.8c-4.4-1.6-8,1.2-11,4.2c-0.5,0.5-1.4,1.4-2.5,2.6c-3.9,0-10.2,0-13.4,0l0-15.1c0,0,0-0.1,0-0.1
		c0-0.9-0.6-1.7-1.5-1.9c-1.4-0.4-2.9-0.5-4.2-0.5c-9.6,0-17.4,7.8-17.4,17.4c0,5.5,2.7,10.7,7,13.9c4.2,3.4,9,3.5,12.4,3.5
		c-0.8,0.8-1.5,1.5-2.2,2.3c-1.4-0.9-3.1-1.4-4.8-1.4c-5,0-9.1,4.1-9.1,9.1c0,5,4.1,9.1,9.1,9.1c5,0,9.1-4.1,9.1-9.1
		c0-1.8-0.5-3.5-1.4-4.9c1.1-1.1,2.3-2.3,3.5-3.5c0.1,0.1,0.1,0.1,0.2,0.2l3.2,3.2c-0.9,1.4-1.5,3.1-1.5,5c0,5,4.1,9.1,9.1,9.1
		c5,0,9.1-4.1,9.1-9.1c0-5-4.1-9.1-9.1-9.1c-1.7,0-3.4,0.5-4.7,1.3l-2.2-2.2h4.4c6.1,0,11.1-5,11.1-11.1c0-1.6,0-2.7-0.2-3.6
		c-0.2-0.9-0.6-1.5-1.2-2c0.1-0.1,0.2-0.2,0.2-0.2c3.7-3.7,5.5-3.8,6.8-3.3c0.8,0.3,1.2,1.2,1.2,1.8c0,0.5-0.3,0.6-0.4,0.7
		c-0.3,0.1-0.5,0.1-0.6,0.2c-0.3-0.9-1.3-1.5-2.3-1.3c-1.1,0.2-1.7,1.3-1.5,2.4c0.1,0.3,0.4,1.7,1.9,2.4c0.8,0.4,2.1,0.8,4,0
		c1.8-0.7,3-2.4,3-4.4C79.7,36,78.1,33.7,75.9,32.8z M45.6,52.7c-3.1,0-7,0-10.4-2.7c-3.4-2.5-5.5-6.5-5.5-10.8
		c0-7.4,6-13.4,13.4-13.4c0.6,0,1.2,0,1.8,0.1v15.6c0,0.5,0.2,1,0.6,1.4c0.4,0.4,0.9,0.6,1.4,0.6c0,0,0,0,0,0c0,0,6.1,0,11.4,0
		c-2.7,2.8-6,6-9.1,9.1H45.6z M43.3,66.7c0,2.8-2.3,5.1-5.1,5.1c-2.8,0-5.1-2.3-5.1-5.1c0-2.8,2.3-5.1,5.1-5.1
		c0.7,0,1.3,0.1,1.9,0.4c-2,2-3.3,3.3-3.3,3.3l2.8,2.8c0,0,1.3-1.3,3.3-3.3C43.1,65.4,43.3,66,43.3,66.7z M60.3,61.6
		c2.8,0,5.1,2.3,5.1,5.1c0,2.8-2.3,5.1-5.1,5.1c-2.8,0-5.1-2.3-5.1-5.1c0-0.7,0.2-1.4,0.4-2l3.4,3.4c0.4,0.4,0.9,0.6,1.4,0.6
		s1-0.2,1.4-0.6c0.8-0.8,0.8-2,0-2.8l-3.4-3.4C59.1,61.7,59.7,61.6,60.3,61.6z M64.8,43.6c0,0.5,0,1.3,0,2.1c0,3.9-3.2,7.1-7.1,7.1
		h-2.9c3.3-3.4,6.6-6.6,9.1-9.1C64.3,43.6,64.6,43.6,64.8,43.6z"/>
</g>
</svg>
