<?xml version="1.0" encoding="utf-8"?>
<!-- Generator: Adobe Illustrator 18.0.0, SVG Export Plug-In . SVG Version: 6.00 Build 0)  -->
<!DOCTYPE svg PUBLIC "-//W3C//DTD SVG 1.1//EN" "http://www.w3.org/Graphics/SVG/1.1/DTD/svg11.dtd">
<svg version="1.1" id="Слой_1" xmlns="http://www.w3.org/2000/svg" xmlns:xlink="http://www.w3.org/1999/xlink" x="0px" y="0px"
	 viewBox="-25.5 123.3 646.3 646.3" enable-background="new -25.5 123.3 646.3 646.3" xml:space="preserve">
<g id="Распоржение-мат.-капиталос" sketch:type="MSPage">
	<g id="rasp_mother_capital-2" transform="translate(-130.000000, -165.000000)" sketch:type="MSArtboardGroup">
		<g id="Imported-Layers-3" transform="translate(130.000000, 165.000000)" sketch:type="MSLayerGroup">
			<g id="Imported-Layers" sketch:type="MSShapeGroup">
				<path id="Fill-1" fill="#5BBEBD" d="M590.6,338.2c-3.5-33.3-28.1-76.6-54.6-96.4c0,0-39.6-29.5-89.3-58.8
					c-49.7-29.3-94.6-49.5-94.6-49.5c-15-6.8-34.8-10.2-54.6-10.2c-19.8,0-39.6,3.4-54.5,10.2c0,0-44.9,20.3-94.6,49.5
					c-49.7,29.3-89.3,58.8-89.3,58.8c-26.5,19.7-51.1,63.1-54.6,96.4c0,0-5.2,49.7-5.2,108.3c0,58.6,5.2,108.3,5.2,108.3
					c3.5,33.3,28.1,76.6,54.5,96.4c0,0,39.6,29.5,89.3,58.8c49.7,29.3,94.6,49.5,94.6,49.5c15,6.8,34.8,10.1,54.5,10.1
					c19.8,0,39.6-3.4,54.6-10.1c0,0,44.8-20.2,94.6-49.5c49.7-29.3,89.3-58.8,89.3-58.8c26.5-19.7,51-63.1,54.6-96.4
					c0,0,5.3-49.7,5.3-108.3C595.9,387.9,590.6,338.2,590.6,338.2L590.6,338.2z M563.3,551.9c-2.7,25.9-23.1,61.9-43.6,77.2
					c-0.4,0.3-39.1,29.1-86.8,57.2c-47.7,28.1-91.5,47.9-91.9,48.1c-10.9,4.9-26.6,7.7-43.3,7.7s-32.4-2.8-43.2-7.7
					c-0.4-0.2-44.1-20-91.9-48.1c-47.7-28.1-86.5-56.9-86.9-57.2c-20.5-15.3-40.9-51.3-43.6-77.2c-0.1-0.5-5.1-49.1-5.1-105.4
					c0-56.3,5-104.9,5.1-105.4c2.7-25.8,23.1-61.9,43.6-77.2c0.4-0.3,38.9-28.9,86.8-57.1c47.7-28.1,91.5-48,91.9-48.2
					c10.9-4.9,26.6-7.7,43.2-7.7s32.4,2.8,43.2,7.7c0.4,0.2,44.2,20.1,91.9,48.2c47.7,28.1,86.5,56.8,86.8,57.1
					c20.5,15.3,40.9,51.4,43.6,77.2c0.1,0.5,5.1,49,5.1,105.4C568.4,502.8,563.3,551.4,563.3,551.9L563.3,551.9z"/>
				<path id="Fill-2" fill="#5BBEBD" d="M475.5,328.4c-30-11.3-55.2,8.3-75.8,29c-3.6,3.6-9.7,9.7-17.5,17.6c-27,0-70,0.1-91.9,0.1
					V271c0-0.2,0-0.5,0-0.7c0-6.3-4.3-11.8-10.4-13.3c-9.8-2.5-19.6-3.7-29.2-3.7c-65.8,0-119.3,53.5-119.3,119.3
					c0,37.8,18.3,73.7,48.4,95.8c29,23.4,62.2,24.3,85.2,24.3c-5.4,5.4-10.5,10.6-15.5,15.5c-9.6-6.1-21-9.7-33.2-9.7
					c-34.5,0-62.5,28-62.5,62.5s28.1,62.5,62.5,62.5c34.5,0,62.5-28,62.5-62.5c0-12.3-3.6-23.8-9.8-33.5
					c7.5-7.5,15.6-15.7,24.1-24.2c0.4,0.5,0.7,1,1.2,1.5l22.1,22.1c-6.4,9.8-10.2,21.6-10.2,34.1c0,34.5,28,62.5,62.5,62.5
					c34.5,0,62.5-28,62.5-62.5s-28.1-62.5-62.5-62.5c-11.9,0-23.1,3.4-32.6,9.3l-15.1-15.1h30.1c41.9,0,76-34.1,76-76
					c0-11.3,0-18.8-1.3-24.6c-1.3-6-4.3-10.6-8.5-13.5c0.6-0.6,1.2-1.2,1.7-1.7c25.7-25.7,37.6-26.1,46.7-22.7
					c5.4,2.1,8.4,7.9,8.4,12.4c0,3.7-1.8,4.4-2.8,4.8c-2,0.8-3.4,1-4.2,1.1c-2.3-6.5-9.1-10.4-16-8.8c-7.4,1.7-12,9.1-10.3,16.5
					c0.4,1.9,3.1,11.4,12.9,16.7c5.3,2.8,14.4,5.2,27.4,0.2c12.7-4.8,20.6-16.5,20.5-30.6C501.7,349.9,490.9,334.2,475.5,328.4
					L475.5,328.4z M267.7,465.1c-21.4,0-48.1,0-71.2-18.6c-23.6-17.3-37.7-45-37.7-74c0-50.6,41.2-91.8,91.8-91.8
					c3.9,0,8,0.3,12,0.9v107.3c0,3.6,1.5,7.2,4,9.7c2.6,2.6,6.1,4,9.7,4h0c0,0,42.1,0,78.2-0.1c-18.9,18.9-41,41.2-62.4,62.6H267.7
					L267.7,465.1z M251.3,561c0,19.3-15.7,35-35,35c-19.3,0-35-15.7-35-35s15.7-35,35-35c4.6,0,8.9,0.9,12.9,2.5
					c-13.8,13.9-22.7,22.8-22.7,22.8l19.5,19.4c0,0,8.8-8.9,22.7-22.8C250.4,552,251.3,556.4,251.3,561L251.3,561z M368.8,526
					c19.3,0,35,15.7,35,35s-15.7,35-35,35c-19.3,0-35-15.7-35-35c0-5,1.1-9.7,2.9-13.9l23.7,23.6c2.7,2.7,6.2,4,9.7,4
					c3.5,0,7-1.3,9.7-4c5.4-5.4,5.4-14.1,0-19.4l-23-23C360.5,526.9,364.5,526,368.8,526L368.8,526z M399.5,402.5
					c0.2,3.8,0.2,9,0.2,14.2c0,26.7-21.7,48.5-48.5,48.5h-20c23-23.1,45.4-45.6,62.4-62.7H399.5L399.5,402.5z"/>
			</g>
		</g>
	</g>
</g>
</svg>
