<?xml version="1.0" encoding="utf-8"?>
<!-- Generator: Adobe Illustrator 18.0.0, SVG Export Plug-In . SVG Version: 6.00 Build 0)  -->
<!DOCTYPE svg PUBLIC "-//W3C//DTD SVG 1.1//EN" "http://www.w3.org/Graphics/SVG/1.1/DTD/svg11.dtd">
<svg version="1.1" id="Layer_1" xmlns="http://www.w3.org/2000/svg" xmlns:xlink="http://www.w3.org/1999/xlink" x="0px" y="0px"
	 viewBox="0 0 100 100" enable-background="new 0 0 100 100" xml:space="preserve">
<g>
	<path fill="#4D7BAF" d="M92.6,34.2c-0.5-4.8-4.1-11.1-7.9-14c0,0-5.8-4.3-13-8.5c-7.2-4.3-13.8-7.2-13.8-7.2C55.8,3.5,52.9,3,50,3
		c-2.9,0-5.8,0.5-7.9,1.5c0,0-6.5,2.9-13.8,7.2c-7.2,4.3-13,8.5-13,8.5c-3.9,2.9-7.4,9.2-7.9,14c0,0-0.8,7.2-0.8,15.8
		c0,8.5,0.8,15.8,0.8,15.8c0.5,4.8,4.1,11.1,7.9,14c0,0,5.8,4.3,13,8.6c7.2,4.3,13.8,7.2,13.8,7.2c2.2,1,5.1,1.5,7.9,1.5
		c2.9,0,5.8-0.5,7.9-1.5c0,0,6.5-2.9,13.8-7.2c7.2-4.3,13-8.6,13-8.6c3.9-2.9,7.4-9.2,7.9-14c0,0,0.8-7.2,0.8-15.8
		C93.4,41.5,92.6,34.2,92.6,34.2z M88.6,65.3c-0.4,3.8-3.4,9-6.3,11.2c-0.1,0-5.7,4.2-12.6,8.3c-6.9,4.1-13.3,7-13.4,7
		C54.7,92.6,52.4,93,50,93s-4.7-0.4-6.3-1.1c-0.1,0-6.4-2.9-13.4-7c-6.9-4.1-12.6-8.3-12.6-8.3c-3-2.2-5.9-7.5-6.3-11.2
		c0-0.1-0.7-7.1-0.7-15.3c0-8.2,0.7-15.3,0.7-15.3c0.4-3.8,3.4-9,6.3-11.2c0.1,0,5.7-4.2,12.6-8.3c6.9-4.1,13.3-7,13.4-7
		C45.3,7.4,47.6,7,50,7s4.7,0.4,6.3,1.1c0.1,0,6.4,2.9,13.4,7c6.9,4.1,12.6,8.3,12.6,8.3c3,2.2,6,7.5,6.3,11.2
		c0,0.1,0.7,7.1,0.7,15.3C89.4,58.2,88.6,65.3,88.6,65.3z"/>
	<path fill="#4D7BAF" d="M66.2,29.6c-3.3-2-16.5-2-16.6-2c-0.1,0-13.3,0-16.6,2c-2.7,1.6-5.9,8.5-7.4,14.2c-1.6,6-0.4,14.6,0,17
		c0.1,0.7,0.4,1.2,1.1,1.7v6.9c0,1.1,0.9,2,2,2h8.1c1.1,0,2-0.9,2-2v-4.6c3.7,0.3,7.7,0.5,10.9,0.5c3.2,0,7.2-0.2,10.9-0.5v4.6
		c0,1.1,0.9,2,2,2h8.1c1.1,0,2-0.9,2-2v-6.9c0.7-0.5,1-1,1.1-1.7c0.4-2.5,1.6-11,0-17C72.1,38.1,68.9,31.2,66.2,29.6z M35,33
		c1.1-0.7,7.6-1.4,14.6-1.4c7,0,13.5,0.8,14.6,1.4c0.8,0.5,2.9,3.9,4.6,8.5c-3.9-0.8-11.3-2.2-19.2-2.2c-7.8,0-15.3,1.4-19.2,2.2
		C32.1,36.9,34.2,33.5,35,33z M34.8,67.4h-4.1v-3.6c1.1,0.2,2.5,0.4,4.1,0.6V67.4z M68.6,67.4h-4.1v-3c1.7-0.2,3-0.4,4.1-0.6V67.4z
		 M69.9,59.4c-2.6,0.9-12.7,1.9-20.3,1.9c-7.5,0-17.7-1-20.3-1.9c-0.6-4.2-0.9-9.6-0.2-13.5c1.9-0.5,11-2.6,20.4-2.6
		c9.4,0,18.5,2.2,20.4,2.6C70.8,49.8,70.5,55.2,69.9,59.4z"/>
	<circle fill="#4D7BAF" cx="64.6" cy="51.6" r="3"/>
	<circle fill="#4D7BAF" cx="34.6" cy="51.6" r="3"/>
</g>
</svg>
