<?xml version="1.0" encoding="utf-8"?>
<!-- Generator: Adobe Illustrator 18.0.0, SVG Export Plug-In . SVG Version: 6.00 Build 0)  -->
<!DOCTYPE svg PUBLIC "-//W3C//DTD SVG 1.1//EN" "http://www.w3.org/Graphics/SVG/1.1/DTD/svg11.dtd">
<svg version="1.1" id="Layer_1" xmlns="http://www.w3.org/2000/svg" xmlns:xlink="http://www.w3.org/1999/xlink" x="0px" y="0px"
	 viewBox="0 0 100 100" enable-background="new 0 0 100 100" xml:space="preserve">
<g>
	<path fill="#82C4CA" d="M92.6,34.2c-0.5-4.8-4.1-11.1-7.9-14c0,0-5.8-4.3-13-8.5c-7.2-4.3-13.8-7.2-13.8-7.2C55.8,3.5,52.9,3,50,3
		s-5.8,0.5-7.9,1.5c0,0-6.5,2.9-13.8,7.2c-7.2,4.3-13,8.5-13,8.5c-3.9,2.9-7.4,9.2-7.9,14c0,0-0.8,7.2-0.8,15.8
		c0,8.5,0.8,15.8,0.8,15.8c0.5,4.8,4.1,11.1,7.9,14c0,0,5.8,4.3,13,8.6c7.2,4.3,13.8,7.2,13.8,7.2c2.2,1,5.1,1.5,7.9,1.5
		s5.8-0.5,7.9-1.5c0,0,6.5-2.9,13.8-7.2c7.2-4.3,13-8.6,13-8.6c3.9-2.9,7.4-9.2,7.9-14c0,0,0.8-7.2,0.8-15.8
		C93.4,41.5,92.6,34.2,92.6,34.2z M88.6,65.3c-0.4,3.8-3.4,9-6.3,11.2c-0.1,0-5.7,4.2-12.6,8.3c-6.9,4.1-13.3,7-13.4,7
		C54.7,92.6,52.4,93,50,93s-4.7-0.4-6.3-1.1c-0.1,0-6.4-2.9-13.4-7c-6.9-4.1-12.6-8.3-12.6-8.3c-3-2.2-5.9-7.5-6.3-11.2
		c0-0.1-0.7-7.1-0.7-15.3c0-8.2,0.7-15.3,0.7-15.3c0.4-3.8,3.4-9,6.3-11.2c0.1,0,5.7-4.2,12.6-8.3c6.9-4.1,13.3-7,13.4-7
		C45.3,7.4,47.6,7,50,7s4.7,0.4,6.3,1.1c0.1,0,6.4,2.9,13.4,7c6.9,4.1,12.6,8.3,12.6,8.3c3,2.2,5.9,7.5,6.3,11.2
		c0,0.1,0.7,7.1,0.7,15.3C89.4,58.2,88.6,65.3,88.6,65.3z"/>
	<path fill="#82C4CA" d="M61.6,36.4c-3,0-5.7,0.8-8.1,2.3c-3.2-3.8-8-6.3-13.3-6.3c-9.5,0-17.3,7.8-17.3,17.3S30.6,67,40.1,67
		c4,0,7.7-1.4,10.6-3.7c2.8,2.7,6.6,4.3,10.8,4.3c8.6,0,15.6-7,15.6-15.6S70.2,36.4,61.6,36.4z M51.2,57.2c-0.8-1.6-1.2-3.3-1.2-5.1
		c0-2.7,1-5.3,2.6-7.3c0.6,1.5,1,3.2,1,4.9C53.5,52.5,52.6,55,51.2,57.2z M26.8,49.7c0-7.3,6-13.3,13.3-13.3c4.1,0,7.8,1.9,10.2,4.8
		c-2.7,2.8-4.4,6.6-4.4,10.9c0,3,0.9,5.8,2.3,8.2C46,61.9,43.2,63,40.1,63C32.8,63,26.8,57,26.8,49.7z M61.6,63.6
		c-3.1,0-5.8-1.2-7.9-3.1c2.4-3,3.8-6.7,3.8-10.8c0-2.8-0.7-5.3-1.8-7.7c1.7-1,3.7-1.6,5.9-1.6c6.4,0,11.6,5.2,11.6,11.6
		S68,63.6,61.6,63.6z"/>
</g>
</svg>
