<?xml version="1.0" encoding="utf-8"?>
<!-- Generator: Adobe Illustrator 18.0.0, SVG Export Plug-In . SVG Version: 6.00 Build 0)  -->
<!DOCTYPE svg PUBLIC "-//W3C//DTD SVG 1.1//EN" "http://www.w3.org/Graphics/SVG/1.1/DTD/svg11.dtd">
<svg version="1.1" id="Layer_1" xmlns="http://www.w3.org/2000/svg" xmlns:xlink="http://www.w3.org/1999/xlink" x="0px" y="0px"
	 viewBox="0 0 100 100" enable-background="new 0 0 100 100" xml:space="preserve">
<g>
	<path fill="#82C4CA" d="M92.6,34.2c-0.5-4.8-4.1-11.1-7.9-14c0,0-5.8-4.3-13-8.5c-7.2-4.3-13.8-7.2-13.8-7.2C55.8,3.5,52.9,3,50,3
		c-2.9,0-5.8,0.5-7.9,1.5c0,0-6.5,2.9-13.8,7.2c-7.2,4.3-13,8.5-13,8.5c-3.9,2.9-7.4,9.2-7.9,14c0,0-0.8,7.2-0.8,15.8
		c0,8.5,0.8,15.8,0.8,15.8c0.5,4.8,4.1,11.1,7.9,14c0,0,5.8,4.3,13,8.6c7.2,4.3,13.8,7.2,13.8,7.2c2.2,1,5.1,1.5,7.9,1.5
		c2.9,0,5.8-0.5,7.9-1.5c0,0,6.5-2.9,13.8-7.2c7.2-4.3,13-8.6,13-8.6c3.9-2.9,7.4-9.2,7.9-14c0,0,0.8-7.2,0.8-15.8
		C93.4,41.5,92.6,34.2,92.6,34.2z M88.6,65.3c-0.4,3.8-3.4,9-6.3,11.2c-0.1,0-5.7,4.2-12.6,8.3c-6.9,4.1-13.3,7-13.4,7
		C54.7,92.6,52.4,93,50,93s-4.7-0.4-6.3-1.1c-0.1,0-6.4-2.9-13.4-7c-6.9-4.1-12.6-8.3-12.6-8.3c-3-2.2-5.9-7.5-6.3-11.2
		c0-0.1-0.7-7.1-0.7-15.3c0-8.2,0.7-15.3,0.7-15.3c0.4-3.8,3.4-9,6.3-11.2c0.1,0,5.7-4.2,12.6-8.3c6.9-4.1,13.3-7,13.4-7
		C45.3,7.4,47.6,7,50,7s4.7,0.4,6.3,1.1c0.1,0,6.4,2.9,13.4,7c6.9,4.1,12.6,8.3,12.6,8.3c3,2.2,5.9,7.5,6.3,11.2
		c0,0.1,0.7,7.1,0.7,15.3C89.4,58.2,88.6,65.3,88.6,65.3z"/>
	<path fill="#82C4CA" d="M83.2,35.6c-1-0.7-3.5-1.3-6.3,1.3c-1.8,1.7-7.1,8.4-10.2,12.3c-1.8-3.6-5.5-6-9.7-6
		c-5.3,0-9.8,3.9-10.7,8.9c-0.1,0-0.1,0-0.2,0h-4.6c-0.9-5.1-5.4-8.9-10.7-8.9c0,0,0,0,0,0c1.2-1.5,2.2-2.7,2.9-3.3
		c0.9-0.8,1.4-0.8,1.5-0.9c0.9,0.5,2,0.3,2.6-0.6c0.6-0.9,0.4-2.1-0.5-2.8c-1-0.7-3.5-1.3-6.3,1.3c-1.6,1.5-5,6-7.3,9
		c-2.3,2-3.7,4.9-3.7,8.2c0,6,4.9,10.9,10.9,10.9c5.3,0,9.8-3.8,10.7-8.9h4.6c0.1,0,0.1,0,0.2,0C47.2,61.1,51.6,65,57,65
		c6,0,10.8-4.8,10.9-10.8c2.8-3.6,10-12.7,11.8-14.3c0.9-0.8,1.3-0.8,1.5-0.9c0.9,0.5,2,0.3,2.6-0.6C84.4,37.5,84.1,36.3,83.2,35.6z
		 M30.8,61c-3.8,0-6.9-3.1-6.9-6.9c0-0.9,0.2-1.8,0.5-2.6c0.1-0.1,0.2-0.2,0.3-0.3c0.5-0.6,1.1-1.5,1.9-2.5c1.2-0.9,2.6-1.5,4.2-1.5
		c3.8,0,6.9,3.1,6.9,6.9C37.7,57.9,34.6,61,30.8,61z M57,61c-3.8,0-6.9-3.1-6.9-6.9c0-3.8,3.1-6.9,6.9-6.9c3.8,0,6.9,3.1,6.9,6.9
		C63.9,57.9,60.8,61,57,61z"/>
</g>
</svg>
