<?xml version="1.0" encoding="utf-8"?>
<!-- Generator: Adobe Illustrator 18.0.0, SVG Export Plug-In . SVG Version: 6.00 Build 0)  -->
<!DOCTYPE svg PUBLIC "-//W3C//DTD SVG 1.1//EN" "http://www.w3.org/Graphics/SVG/1.1/DTD/svg11.dtd">
<svg version="1.1" id="Layer_1" xmlns="http://www.w3.org/2000/svg" xmlns:xlink="http://www.w3.org/1999/xlink" x="0px" y="0px"
	 viewBox="0 0 100 100" enable-background="new 0 0 100 100" xml:space="preserve">
<g>
	<path fill="#82C4CA" d="M92.6,34.2c-0.5-4.8-4.1-11.1-7.9-14c0,0-5.8-4.3-13-8.5c-7.2-4.3-13.8-7.2-13.8-7.2C55.8,3.5,52.9,3,50,3
		c-2.9,0-5.8,0.5-7.9,1.5c0,0-6.5,2.9-13.8,7.2c-7.2,4.3-13,8.5-13,8.5c-3.9,2.9-7.4,9.2-7.9,14c0,0-0.8,7.2-0.8,15.8
		s0.8,15.8,0.8,15.8c0.5,4.8,4.1,11.1,7.9,14c0,0,5.8,4.3,13,8.6c7.2,4.3,13.8,7.2,13.8,7.2c2.2,1,5.1,1.5,7.9,1.5
		c2.9,0,5.8-0.5,7.9-1.5c0,0,6.5-2.9,13.8-7.2c7.2-4.3,13-8.6,13-8.6c3.9-2.9,7.4-9.2,7.9-14c0,0,0.8-7.2,0.8-15.8
		S92.6,34.2,92.6,34.2z M88.6,65.3c-0.4,3.8-3.4,9-6.3,11.2c-0.1,0-5.7,4.2-12.6,8.3c-6.9,4.1-13.3,7-13.4,7
		C54.7,92.6,52.4,93,50,93c-2.4,0-4.7-0.4-6.3-1.1c-0.1,0-6.4-2.9-13.4-7c-6.9-4.1-12.6-8.3-12.6-8.3c-3-2.2-5.9-7.5-6.3-11.2
		c0-0.1-0.7-7.1-0.7-15.3s0.7-15.3,0.7-15.3c0.4-3.8,3.4-9,6.3-11.2c0.1,0,5.7-4.2,12.6-8.3c6.9-4.1,13.3-7,13.4-7
		C45.3,7.4,47.6,7,50,7c2.4,0,4.7,0.4,6.3,1.1c0.1,0,6.4,2.9,13.4,7c6.9,4.1,12.6,8.3,12.6,8.3c3,2.2,5.9,7.5,6.3,11.2
		c0,0.1,0.7,7.1,0.7,15.3C89.4,58.2,88.6,65.3,88.6,65.3z"/>
	<path fill="#82C4CA" d="M61.9,24.6c-5.2-0.4-10.5,1.2-14.3,4.4c-1.4-0.3-2.5-0.1-4.3,1.4c-2.5,2.2-3.2,4.7-2.6,6.3
		c0.3,0.8,1.4,1.6,2.2,1.6c1.4,0,2.7-0.2,4.3-1.5c1.4-1.1,3.3-3.4,3.2-5c3-2.3,7.1-3.6,11.2-3.2c2.9,0.2,7,1.4,10,5.5
		c2.3,3.1,3.1,7.5,2.1,12.1c-1,4.9-3.8,9-7.5,11.1c-6,3.4-12.6,3.5-17.5,3.4v-1.2c9.7-0.5,18.1-7.3,20.5-16.9c0.2-0.6,0-1.2-0.4-1.7
		c-0.4-0.5-1-0.8-1.6-0.8h-41c-0.6,0-1.2,0.3-1.6,0.8c-0.4,0.5-0.5,1.1-0.4,1.7c2.4,9.6,10.7,16.3,20.5,16.9v1.2
		c-4.4,0.1-8.2,0.6-8.2,4.4c0,4.6,3.2,4.9,8.2,5v0.7h-4.2c-1.1,0-2,0.9-2,2s0.9,2,2,2H53c1.1,0,2-0.9,2-2s-0.9-2-2-2h-4.3v-6
		c5.1,0,12.6,0,19.5-3.9c4.7-2.6,8.2-7.8,9.4-13.8c1.2-5.7,0.2-11.3-2.8-15.3C71.7,27.6,67.1,25.1,61.9,24.6z M28.9,44.3h35.5
		c-2.8,6.8-9.4,11.4-17,11.4h-1.6C38.3,55.7,31.7,51.1,28.9,44.3z M40.5,65.8c0-0.1-0.2-0.3-0.1-0.6c0.3-0.5,2-0.4,4.2-0.4v1.3
		C42.8,66.1,40.9,66.2,40.5,65.8z"/>
</g>
</svg>
