<?xml version="1.0" encoding="utf-8"?>
<!-- Generator: Adobe Illustrator 18.0.0, SVG Export Plug-In . SVG Version: 6.00 Build 0)  -->
<!DOCTYPE svg PUBLIC "-//W3C//DTD SVG 1.1//EN" "http://www.w3.org/Graphics/SVG/1.1/DTD/svg11.dtd">
<svg version="1.1" id="Layer_1" xmlns="http://www.w3.org/2000/svg" xmlns:xlink="http://www.w3.org/1999/xlink" x="0px" y="0px"
	 viewBox="0 0 100 100" enable-background="new 0 0 100 100" xml:space="preserve">
<g>
	<path fill="#82C4CA" d="M92.6,34.2c-0.5-4.8-4.1-11.1-7.9-14c0,0-5.8-4.3-13-8.5c-7.2-4.3-13.8-7.2-13.8-7.2C55.8,3.5,52.9,3,50,3
		c-2.9,0-5.8,0.5-7.9,1.5c0,0-6.5,2.9-13.8,7.2c-7.2,4.3-13,8.5-13,8.5c-3.9,2.9-7.4,9.2-7.9,14c0,0-0.8,7.2-0.8,15.8
		c0,8.5,0.8,15.8,0.8,15.8c0.5,4.8,4.1,11.1,7.9,14c0,0,5.8,4.3,13,8.6c7.2,4.3,13.8,7.2,13.8,7.2c2.2,1,5.1,1.5,7.9,1.5
		c2.9,0,5.8-0.5,7.9-1.5c0,0,6.5-2.9,13.8-7.2c7.2-4.3,13-8.6,13-8.6c3.9-2.9,7.4-9.2,7.9-14c0,0,0.8-7.2,0.8-15.8
		C93.4,41.5,92.6,34.2,92.6,34.2z M88.6,65.3c-0.4,3.8-3.4,9-6.3,11.2c-0.1,0-5.7,4.2-12.6,8.3c-6.9,4.1-13.3,7-13.4,7
		C54.7,92.6,52.4,93,50,93s-4.7-0.4-6.3-1.1c-0.1,0-6.4-2.9-13.4-7c-6.9-4.1-12.6-8.3-12.6-8.3c-3-2.2-5.9-7.5-6.3-11.2
		c0-0.1-0.7-7.1-0.7-15.3c0-8.2,0.7-15.3,0.7-15.3c0.4-3.8,3.4-9,6.3-11.2c0.1,0,5.7-4.2,12.6-8.3c6.9-4.1,13.3-7,13.4-7
		C45.3,7.4,47.6,7,50,7s4.7,0.4,6.3,1.1c0.1,0,6.4,2.9,13.4,7c6.9,4.1,12.6,8.3,12.6,8.3c3,2.2,5.9,7.5,6.3,11.2
		c0,0.1,0.7,7.1,0.7,15.3C89.4,58.2,88.6,65.3,88.6,65.3z"/>
	<path fill="#82C4CA" d="M59.1,56.5c-2.2,1.6-4.7,2.6-7.4,2.9v-4.2c2.5-0.4,4.3-1.6,4.3-3c0-1.7-2.8-3.2-6.2-3.2
		c-3.4,0-6.2,1.4-6.2,3.2c0,1.4,1.7,2.6,4.2,3v4.2c-2.5-0.4-4.8-1.3-6.9-2.8c-0.9-0.6-2.1-0.4-2.8,0.5c-0.6,0.9-0.4,2.1,0.5,2.8
		c3.3,2.4,7.1,3.6,11.1,3.7c0,0,0.1,0,0.1,0c0,0,0,0,0,0c0,0,0.1,0,0.1,0c4.2,0,8.2-1.3,11.6-3.8c0.9-0.7,1.1-1.9,0.4-2.8
		C61.3,56.1,60,55.9,59.1,56.5z"/>
	<path fill="#82C4CA" d="M68.5,26.2c-4.1,0-7.8,2.5-9.3,6.2c-2.9-1-6.1-1.6-9.5-1.6c-3.4,0-6.6,0.6-9.5,1.6
		c-1.5-3.7-5.2-6.2-9.3-6.2c-5.5,0-10.1,4.5-10.1,10.1c0,3.6,2,7,5.2,8.8c0,0,0,0,0.1,0c-0.9,2.3-1.5,4.7-1.5,7.2
		c0,11.8,11.3,21.5,25.1,21.5c13.8,0,25.1-9.6,25.1-21.5c0-2.5-0.5-5-1.5-7.2c0,0,0,0,0.1,0c3.2-1.8,5.2-5.1,5.2-8.8
		C78.5,30.7,74,26.2,68.5,26.2z M27.9,41.6c-1.9-1.1-3.1-3.1-3.1-5.3c0-3.3,2.7-6.1,6.1-6.1c2.5,0,4.7,1.6,5.6,3.8
		c-1.1,0.6-2.2,1.3-3.2,2l-1.5-1.5c-0.8-0.8-2-0.8-2.8,0c-0.8,0.8-0.8,2,0,2.8l1.3,1.3C29.4,39.6,28.7,40.6,27.9,41.6
		C28,41.6,27.9,41.6,27.9,41.6z M49.7,69.8C38,69.8,28.6,62,28.6,52.3c0-9.6,9.5-17.4,21.1-17.4s21.1,7.8,21.1,17.4
		C70.7,62,61.3,69.8,49.7,69.8z M71.4,41.6C71.4,41.6,71.4,41.6,71.4,41.6c-0.7-1-1.6-2-2.5-3l1.2-1.2c0.8-0.8,0.8-2,0-2.8
		c-0.8-0.8-2-0.8-2.8,0L65.9,36c-1-0.7-2-1.3-3.1-1.9c0.9-2.3,3.1-3.8,5.6-3.8c3.3,0,6.1,2.7,6.1,6.1C74.5,38.5,73.3,40.5,71.4,41.6
		z"/>
	<circle fill="#82C4CA" cx="40.1" cy="46.9" r="2.7"/>
	<circle fill="#82C4CA" cx="59.5" cy="46.9" r="2.7"/>
</g>
</svg>
