<?xml version="1.0" encoding="utf-8"?>
<!-- Generator: Adobe Illustrator 18.0.0, SVG Export Plug-In . SVG Version: 6.00 Build 0)  -->
<!DOCTYPE svg PUBLIC "-//W3C//DTD SVG 1.1//EN" "http://www.w3.org/Graphics/SVG/1.1/DTD/svg11.dtd">
<svg version="1.1" id="Layer_1" xmlns="http://www.w3.org/2000/svg" xmlns:xlink="http://www.w3.org/1999/xlink" x="0px" y="0px"
	 viewBox="0 0 100 100" enable-background="new 0 0 100 100" xml:space="preserve">
<g>
	<path fill="#82C4CA" d="M92.6,34.2c-0.5-4.8-4.1-11.1-7.9-14c0,0-5.8-4.3-13-8.5c-7.2-4.3-13.8-7.2-13.8-7.2C55.8,3.5,52.9,3,50,3
		s-5.8,0.5-7.9,1.5c0,0-6.5,2.9-13.8,7.2c-7.2,4.3-13,8.5-13,8.5c-3.9,2.9-7.4,9.2-7.9,14c0,0-0.8,7.2-0.8,15.8s0.8,15.8,0.8,15.8
		c0.5,4.8,4.1,11.1,7.9,14c0,0,5.8,4.3,13,8.6c7.2,4.3,13.8,7.2,13.8,7.2c2.2,1,5.1,1.5,7.9,1.5s5.8-0.5,7.9-1.5
		c0,0,6.5-2.9,13.8-7.2c7.2-4.3,13-8.6,13-8.6c3.9-2.9,7.4-9.2,7.9-14c0,0,0.8-7.2,0.8-15.8S92.6,34.2,92.6,34.2z M88.6,65.3
		c-0.4,3.8-3.4,9-6.3,11.2c-0.1,0-5.7,4.2-12.6,8.3c-6.9,4.1-13.3,7-13.4,7C54.7,92.6,52.4,93,50,93s-4.7-0.4-6.3-1.1
		c-0.1,0-6.4-2.9-13.4-7c-6.9-4.1-12.6-8.3-12.6-8.3c-3-2.2-5.9-7.5-6.3-11.2c0-0.1-0.7-7.1-0.7-15.3s0.7-15.3,0.7-15.3
		c0.4-3.8,3.4-9,6.3-11.2c0.1,0,5.7-4.2,12.6-8.3c6.9-4.1,13.3-7,13.4-7C45.3,7.4,47.6,7,50,7s4.7,0.4,6.3,1.1c0.1,0,6.4,2.9,13.4,7
		c6.9,4.1,12.6,8.3,12.6,8.3c3,2.2,5.9,7.5,6.3,11.2c0,0.1,0.7,7.1,0.7,15.3C89.4,58.2,88.6,65.3,88.6,65.3z"/>
	<path fill="#82C4CA" d="M71.4,40c-0.1-1.6-0.8-3.1-2-4c-1-0.8-2.2-1.2-3.6-1.2c-2,0-4,0.9-5.5,2.4c-2.1,2.1-4,3.9-5.9,5.3
		c-0.6-1.5-1.2-3.4-1.1-4.4c0.1-0.9,0.3-1.8,0.6-2.8c0.7-3.1,1.5-6.5,0.2-9.3c-1.2-2.9-3.7-5.4-6.9-6.8c-3.3-1.5-6.9-1.6-9.9-0.3
		c-3.2,1.4-5.6,3.8-6.8,6.9c-1.2,3.2-1.1,6.8,0.3,10.1c1.1,2.6,3.9,4.5,6.3,6.3c0.7,0.5,1.3,0.9,1.9,1.4c0.9,0.7,1.9,2.6,2.6,4.2
		c-2.1,0.3-4.3,0.4-6.9,0.4c-3.7,0-6.8,2.5-7.2,5.7c-0.2,1.5,0.4,3,1.5,4.2c1.4,1.5,3.5,2.4,5.8,2.4c0,0,0.1,0,0.1,0
		c3.7,0,7.3-0.5,10.9-1.4c-0.1,0.1-0.1,0.1-0.1,0.2c-2.2,4.1-2.2,9.1,0.2,13.1c1.8,3.1,4.7,5.2,8.1,6.1c1.1,0.3,2.2,0.4,3.4,0.4
		c2.3,0,4.6-0.6,6.7-1.8c3.1-1.8,5.2-4.7,6.1-8.1c0.9-3.4,0.4-7-1.4-10.1c-1.8-3.1-4.8-5.3-8.3-6.2c3.1-2,6-4.3,8.6-6.9
		C70.7,44.2,71.6,42.1,71.4,40z M41.5,40.4c-0.6-0.5-1.3-1-2-1.5c-1.9-1.3-4.3-3-4.9-4.6c-1-2.4-1.1-4.9-0.3-7.1
		c0.8-2.1,2.5-3.8,4.7-4.7c2-0.9,4.4-0.8,6.7,0.3c2.2,1,4,2.8,4.8,4.7c0.7,1.7,0.1,4.4-0.5,6.9c-0.2,1-0.5,2.1-0.6,3.1
		c-0.4,2.5,1,5.9,1.6,7.2c-1.7,0.9-3.5,1.7-5.4,2.2C45.1,45.5,43.5,42,41.5,40.4z M55,55.8l1.4,3.3c0.8,1.8,0.4,3.1,0.2,3.3L55.1,63
		c-0.3,0-1.5-0.6-2.2-2.4l-1.4-3.3C52.7,56.9,53.9,56.4,55,55.8z M65.3,61c1.3,2.1,1.6,4.6,1,7c-0.6,2.4-2.1,4.4-4.3,5.7
		c-2.1,1.3-4.6,1.6-7,1c-2.4-0.6-4.4-2.1-5.7-4.3c-1.6-2.7-1.7-5.9-0.3-8.7l0.2,0.5c0.7,1.6,1.7,2.9,2.9,3.8c1,0.7,2,1,3,1
		c0.5,0,1.1-0.1,1.6-0.3l1.5-0.6c1.4-0.6,2.4-2,2.6-3.8c0.2-1.5,0-3.2-0.7-4.7l-0.3-0.8C62.1,57.4,64.1,58.9,65.3,61z M66.2,43.1
		c-8.2,8.4-19.6,13.2-31.3,13.4l0,2v-2c-1.1,0-2.2-0.4-2.8-1.1c-0.2-0.2-0.5-0.6-0.4-1.1c0.1-1.1,1.5-2.1,3.2-2.1
		C47.5,52,54.4,49.1,63.2,40c0.8-0.8,1.7-1.2,2.6-1.2c0.4,0,0.8,0.1,1.1,0.3c0.4,0.3,0.5,0.8,0.5,1.1C67.5,41.2,67,42.2,66.2,43.1z"
		/>
	<path fill="#82C4CA" d="M38.5,24.9c-0.4,0.2-1.6,0.9-2.5,3c-0.7,1.8-0.4,3.6-0.3,3.8c0.2,0.9,1,1.5,1.9,1.5c0.1,0,0.3,0,0.4,0
		c1.1-0.2,1.8-1.3,1.5-2.4c0-0.2-0.1-0.9,0.1-1.4c0.3-0.6,0.5-0.9,0.6-0.9c0.9-0.5,1.2-1.6,0.8-2.5C40.7,24.9,39.6,24.5,38.5,24.9z"
		/>
</g>
</svg>
