<?xml version="1.0" encoding="utf-8"?>
<!-- Generator: Adobe Illustrator 16.0.0, SVG Export Plug-In . SVG Version: 6.00 Build 0)  -->
<!DOCTYPE svg PUBLIC "-//W3C//DTD SVG 1.1//EN" "http://www.w3.org/Graphics/SVG/1.1/DTD/svg11.dtd">
<svg version="1.1" id="Layer_1" xmlns:sketch="http://www.bohemiancoding.com/sketch/ns"
	 xmlns="http://www.w3.org/2000/svg" xmlns:xlink="http://www.w3.org/1999/xlink" x="0px" y="0px" width="50px" height="50px"
	 viewBox="-16 -15.5 50 50" enable-background="new -16 -15.5 50 50" xml:space="preserve">
<title>Imported Layers 2</title>
<desc>Created with Sketch.</desc>
<g id="Page-1" sketch:type="MSPage">
	<g id="feed-3" transform="translate(-213.000000, -564.000000)" sketch:type="MSArtboardGroup">
		
			<g id="Rectangle-6-_x2B_-Imported-Layers-2-_x2B_-Перетащите-файлы-сюд-2" transform="translate(194.000000, 547.000000)" sketch:type="MSLayerGroup">
			<g id="Imported-Layers-2" transform="translate(20.000000, 18.000000)" sketch:type="MSShapeGroup">
				<path id="Fill-1" d="M10.513,12.873c-0.208,0-0.414-0.076-0.573-0.227c-0.314-0.303-0.314-0.791,0-1.093l4.009-3.825
					c1.538-1.469,1.538-3.859,0-5.328c-1.538-1.467-4.043-1.467-5.581,0L1.284,9.163c-0.316,0.302-0.829,0.302-1.145,0
					c-0.316-0.302-0.316-0.792,0-1.093l7.083-6.761c2.17-2.072,5.699-2.071,7.87-0.001c2.169,2.072,2.169,5.442,0,7.513
					l-4.008,3.826C10.927,12.797,10.72,12.873,10.513,12.873"/>
				<path id="Fill-2" d="M4.766,17.051c-1.053,0-2.106-0.383-2.909-1.148c-0.778-0.741-1.205-1.729-1.205-2.777
					c0-1.05,0.426-2.035,1.205-2.777l3.243-3.096c0.316-0.302,0.828-0.302,1.145,0c0.316,0.301,0.316,0.791,0,1.092L3.001,11.44
					c-0.471,0.45-0.73,1.048-0.73,1.685s0.259,1.234,0.73,1.685c0.972,0.929,2.557,0.929,3.529,0l3.245-3.097
					c0.316-0.302,0.829-0.302,1.145,0c0.316,0.301,0.316,0.791,0,1.093l-3.244,3.097C6.873,16.668,5.82,17.051,4.766,17.051"/>
				<path id="Fill-3" d="M6.868,12.801c-0.207,0-0.414-0.076-0.572-0.227c-0.316-0.302-0.316-0.791,0-1.093l5.414-5.167
					c0.46-0.44,0.46-1.154,0-1.594c-0.446-0.425-1.224-0.424-1.671,0L5.962,8.613c-0.315,0.302-0.828,0.302-1.145,0
					c-0.316-0.301-0.316-0.791,0-1.093l4.077-3.893c0.529-0.504,1.232-0.782,1.98-0.782c0.749,0,1.451,0.277,1.979,0.783
					c1.091,1.041,1.091,2.736,0.001,3.779L7.44,12.574C7.283,12.725,7.075,12.801,6.868,12.801"/>
			</g>
		</g>
	</g>
</g>
</svg>
