<?xml version="1.0" encoding="utf-8"?>
<!-- Generator: Adobe Illustrator 18.0.0, SVG Export Plug-In . SVG Version: 6.00 Build 0)  -->
<!DOCTYPE svg PUBLIC "-//W3C//DTD SVG 1.1//EN" "http://www.w3.org/Graphics/SVG/1.1/DTD/svg11.dtd">
<svg version="1.1" id="Layer_1" xmlns="http://www.w3.org/2000/svg" xmlns:xlink="http://www.w3.org/1999/xlink" x="0px" y="0px"
	 viewBox="0 0 100 100" enable-background="new 0 0 100 100" xml:space="preserve">
<g>
	<path fill="#82C4CA" d="M92.6,34.2c-0.5-4.8-4.1-11.1-7.9-14c0,0-5.8-4.3-13-8.5c-7.2-4.3-13.8-7.2-13.8-7.2C55.8,3.5,52.9,3,50,3
		s-5.8,0.5-7.9,1.5c0,0-6.5,2.9-13.8,7.2c-7.2,4.3-13,8.5-13,8.5c-3.9,2.9-7.4,9.2-7.9,14c0,0-0.8,7.2-0.8,15.8
		c0,8.5,0.8,15.8,0.8,15.8c0.5,4.8,4.1,11.1,7.9,14c0,0,5.8,4.3,13,8.6c7.2,4.3,13.8,7.2,13.8,7.2c2.2,1,5.1,1.5,7.9,1.5
		s5.8-0.5,7.9-1.5c0,0,6.5-2.9,13.8-7.2c7.2-4.3,13-8.6,13-8.6c3.9-2.9,7.4-9.2,7.9-14c0,0,0.8-7.2,0.8-15.8
		C93.4,41.5,92.6,34.2,92.6,34.2z M88.6,65.3c-0.4,3.8-3.4,9-6.3,11.2c-0.1,0-5.7,4.2-12.6,8.3c-6.9,4.1-13.3,7-13.4,7
		C54.7,92.6,52.4,93,50,93s-4.7-0.4-6.3-1.1c-0.1,0-6.4-2.9-13.4-7c-6.9-4.1-12.6-8.3-12.6-8.3c-3-2.2-5.9-7.5-6.3-11.2
		c0-0.1-0.7-7.1-0.7-15.3c0-8.2,0.7-15.3,0.7-15.3c0.4-3.8,3.4-9,6.3-11.2c0.1,0,5.7-4.2,12.6-8.3c6.9-4.1,13.3-7,13.4-7
		C45.3,7.4,47.6,7,50,7c2.4,0,4.7,0.4,6.3,1.1c0.1,0,6.4,2.9,13.4,7c6.9,4.1,12.6,8.3,12.6,8.3c3,2.2,5.9,7.5,6.3,11.2
		c0,0.1,0.7,7.1,0.7,15.3C89.4,58.2,88.6,65.3,88.6,65.3z"/>
	<path fill="#82C4CA" d="M69.5,39.6h-8.6V31c0-2.2-1.8-4-4-4H44.2c-2.2,0-4,1.8-4,4v8.6h-8.6c-2.2,0-4,1.8-4,4v12.6c0,2.2,1.8,4,4,4
		h8.6v8.6c0,2.2,1.8,4,4,4h12.6c2.2,0,4-1.8,4-4v-8.6h8.6c2.2,0,4-1.8,4-4V43.6C73.5,41.4,71.7,39.6,69.5,39.6z M69.5,56.2H56.9
		v12.6H44.2V56.2H31.6V43.6h12.6V31h12.6v12.6h12.6V56.2z"/>
</g>
</svg>
