<?xml version="1.0" encoding="utf-8"?>
<!-- Generator: Adobe Illustrator 18.0.0, SVG Export Plug-In . SVG Version: 6.00 Build 0)  -->
<!DOCTYPE svg PUBLIC "-//W3C//DTD SVG 1.1//EN" "http://www.w3.org/Graphics/SVG/1.1/DTD/svg11.dtd">
<svg version="1.1" xmlns="http://www.w3.org/2000/svg" xmlns:xlink="http://www.w3.org/1999/xlink" x="0px" y="0px"
	 viewBox="0 0 100 100" enable-background="new 0 0 100 100" xml:space="preserve">
<g id="Layer_1">
	<g>
		<path fill="#AB5061" d="M92.6,34.2c-0.5-4.8-4.1-11.1-7.9-14c0,0-5.8-4.3-13-8.5c-7.2-4.3-13.8-7.2-13.8-7.2C55.8,3.5,52.9,3,50,3
			c-2.9,0-5.8,0.5-7.9,1.5c0,0-6.5,2.9-13.8,7.2c-7.2,4.3-13,8.5-13,8.5c-3.9,2.9-7.4,9.2-7.9,14c0,0-0.8,7.2-0.8,15.8
			c0,8.5,0.8,15.8,0.8,15.8c0.5,4.8,4.1,11.1,7.9,14c0,0,5.8,4.3,13,8.6c7.2,4.3,13.8,7.2,13.8,7.2c2.2,1,5.1,1.5,7.9,1.5
			c2.9,0,5.8-0.5,7.9-1.5c0,0,6.5-2.9,13.8-7.2c7.2-4.3,13-8.6,13-8.6c3.9-2.9,7.4-9.2,7.9-14c0,0,0.8-7.2,0.8-15.8
			C93.4,41.5,92.6,34.2,92.6,34.2z M88.6,65.3c-0.4,3.8-3.4,9-6.3,11.2c-0.1,0-5.7,4.2-12.6,8.3c-6.9,4.1-13.3,7-13.4,7
			C54.7,92.6,52.4,93,50,93s-4.7-0.4-6.3-1.1c-0.1,0-6.4-2.9-13.4-7c-6.9-4.1-12.6-8.3-12.6-8.3c-3-2.2-5.9-7.5-6.3-11.2
			c0-0.1-0.7-7.1-0.7-15.3c0-8.2,0.7-15.3,0.7-15.3c0.4-3.8,3.4-9,6.3-11.2c0.1,0,5.7-4.2,12.6-8.3c6.9-4.1,13.3-7,13.4-7
			C45.3,7.4,47.6,7,50,7s4.7,0.4,6.3,1.1c0.1,0,6.4,2.9,13.4,7c6.9,4.1,12.6,8.3,12.6,8.3c3,2.2,6,7.5,6.3,11.2
			c0,0.1,0.7,7.1,0.7,15.3C89.4,58.2,88.6,65.3,88.6,65.3z"/>
		<circle fill="#AB5061" cx="49.7" cy="67" r="4"/>
		<circle fill="#AB5061" cx="42.9" cy="56.2" r="2.5"/>
		<path fill="#AB5061" d="M56.2,53.7c-1.4,0-2.5,1.1-2.5,2.5c0,1.4,1.1,2.5,2.5,2.5c1.4,0,2.5-1.1,2.5-2.5
			C58.7,54.8,57.6,53.7,56.2,53.7z"/>
		<path fill="#AB5061" d="M70.1,42.4c-3.7,0-7.2,1.5-9.8,4.2c-1.2-0.6-2.5-1-3.8-1.3c2.8-1.5,5.1-3.9,6.4-6.9
			c0.3-0.1,0.5-0.2,0.7-0.5l7-7c0.8-0.8,0.8-2,0-2.8c-0.8-0.8-2-0.8-2.8,0l-3.6,3.6v-11c0-1.1-0.9-2-2-2s-2,0.9-2,2v10.8L56.6,28
			c-0.8-0.8-2-0.8-2.8,0c-0.8,0.8-0.8,2,0,2.8l5.6,5.7c-1.5,3.8-5.3,6.5-9.6,6.5c-4.2,0-7.9-2.5-9.5-6.2l5.8-5.8
			c0.8-0.8,0.8-2,0-2.8c-0.8-0.8-2-0.8-2.8,0l-3.9,3.9V20.8c0-1.1-0.9-2-2-2c-1.1,0-2,0.9-2,2v10.5L32.1,28c-0.8-0.8-2-0.8-2.8,0
			c-0.8,0.8-0.8,2,0,2.8l6.8,6.8c0.1,0.1,0.2,0.2,0.3,0.4c0.1,0.1,0.1,0.1,0.2,0.1c1.3,3.1,3.6,5.6,6.5,7.2
			c-1.2,0.2-2.4,0.6-3.5,1.1c-2.5-2.6-6-4-9.6-4c-4.2,0-8,1.9-10.6,5.1c-0.6,0.7-0.6,1.8,0,2.5c2.6,3.3,6.5,5.1,10.6,5.1
			c1.5,0,3.1-0.3,4.5-0.8c0,0.3,0,0.6,0,0.9v9.2c0,8.4,6.9,15.3,15.3,15.3c8.4,0,15.3-6.9,15.3-15.3v-9.2c0-0.4,0-0.8,0-1.1
			c1.6,0.7,3.3,1,5.1,1c4.2,0,8-1.9,10.6-5.1c0.6-0.7,0.6-1.8,0-2.5C78.1,44.3,74.2,42.4,70.1,42.4z M23.6,48.8
			c1.7-1.5,4-2.4,6.3-2.4c2.4,0,4.6,0.9,6.3,2.4c-1.7,1.5-4,2.4-6.3,2.4C27.6,51.2,25.4,50.3,23.6,48.8z M61,64.4
			c0,6.2-5.1,11.3-11.3,11.3c-6.2,0-11.3-5.1-11.3-11.3v-9.2c0-4.8,2.9-6.5,11.3-6.5c8.5,0,11.3,1.6,11.3,6.5V64.4z M70.1,51.2
			c-2.4,0-4.6-0.9-6.3-2.4c1.7-1.5,4-2.4,6.3-2.4c2.4,0,4.6,0.9,6.3,2.4C74.6,50.3,72.4,51.2,70.1,51.2z"/>
	</g>
</g>
<g id="Layer_2">
</g>
</svg>
