<?xml version="1.0" encoding="utf-8"?>
<!-- Generator: Adobe Illustrator 18.0.0, SVG Export Plug-In . SVG Version: 6.00 Build 0)  -->
<!DOCTYPE svg PUBLIC "-//W3C//DTD SVG 1.1//EN" "http://www.w3.org/Graphics/SVG/1.1/DTD/svg11.dtd">
<svg version="1.1" xmlns="http://www.w3.org/2000/svg" xmlns:xlink="http://www.w3.org/1999/xlink" x="0px" y="0px"
	 viewBox="0 0 60 60" enable-background="new 0 0 60 60" xml:space="preserve">
<g id="Layer_2">
</g>
<g id="Layer_1">
	<path fill-rule="evenodd" clip-rule="evenodd" fill="#D3D3D3" d="M46.5,28.8c-1,0-2,0.2-2.9,0.5l-0.7-1.7l1.7-0.6
		c1.2-0.4,1.8-1.7,1.4-2.9L45.3,22c-0.4-1.2-1.7-1.8-2.9-1.4l-2,0.7l-2.2-5.6c-0.4-0.9-1.2-1.6-2.2-1.8c-1-0.2-2,0.1-2.7,0.8
		l-2.7,2.7c-0.6,0.6-0.6,1.5,0,2.1c0.6,0.6,1.5,0.6,2.1,0l2.7-2.7l1.7,4.3H28c-1.2,0-2.3,0.7-2.8,1.9L24,26h-1.7l-3.1-3.1
		C18.6,22.3,17.8,22,17,22H8c-0.8,0-1.5,0.7-1.5,1.5C6.5,24.3,7.2,25,8,25h9l3.7,3.7l-2,1.8c-1.5-1.1-3.3-1.7-5.2-1.7
		c-4.9,0-8.8,3.9-8.8,8.8c0,4.8,4,8.8,8.8,8.8c3.6,0,6.8-2.2,8.1-5.3h11.9c1,0,1.8-0.6,2.2-1.3l2.2-4.1c-0.1,0.6-0.2,1.2-0.2,1.9
		c0,4.8,4,8.8,8.8,8.8c4.9,0,8.8-3.9,8.8-8.8C55.3,32.7,51.4,28.8,46.5,28.8z M19.3,37.6c0,0.2,0,0.3,0,0.4h-4.5l3.7-3.3
		C19,35.5,19.3,36.5,19.3,37.6z M13.5,43.3c-3.2,0-5.8-2.6-5.8-5.8c0-3.2,2.6-5.8,5.8-5.8c1.1,0,2.1,0.3,2.9,0.8l-3.6,3.2
		c-0.9,0.8-1.2,2.1-0.8,3.3c0.4,1.2,1.6,1.9,2.8,1.9h3.3C17.1,42.4,15.4,43.3,13.5,43.3z M22.3,38c0-0.1,0-0.3,0-0.4
		c0-1.8-0.6-3.5-1.5-4.9l1.2-1.1l1.8,6.4H22.3z M46.5,43.3c-3.2,0-5.8-2.6-5.8-5.8c0-1,0.2-1.9,0.7-2.7l4.3,5.1
		c0.5,0.6,1.5,0.7,2.1,0.2c0.6-0.5,0.7-1.5,0.2-2.1L44,33.3c0.4-0.3,0.6-0.7,0.6-1.2c0.6-0.2,1.2-0.3,1.9-0.3c3.2,0,5.8,2.6,5.8,5.8
		C52.3,40.7,49.7,43.3,46.5,43.3z"/>
</g>
</svg>
