<?xml version="1.0" encoding="utf-8"?>
<!-- Generator: Adobe Illustrator 18.0.0, SVG Export Plug-In . SVG Version: 6.00 Build 0)  -->
<!DOCTYPE svg PUBLIC "-//W3C//DTD SVG 1.1//EN" "http://www.w3.org/Graphics/SVG/1.1/DTD/svg11.dtd">
<svg version="1.1" xmlns="http://www.w3.org/2000/svg" xmlns:xlink="http://www.w3.org/1999/xlink" x="0px" y="0px"
	 viewBox="0 0 60 60" enable-background="new 0 0 60 60" xml:space="preserve">
<g id="Layer_2">
</g>
<g id="Layer_1">
	<g>
		<path fill="#D3D3D3" d="M13,31c-3.2,0-5.9,2.6-5.9,5.9c0,3.2,2.6,5.9,5.9,5.9c3.2,0,5.9-2.6,5.9-5.9C18.9,33.7,16.2,31,13,31z
			 M13,40c-1.7,0-3.1-1.4-3.1-3.1c0-1.7,1.4-3.1,3.1-3.1c1.7,0,3.1,1.4,3.1,3.1C16.1,38.6,14.7,40,13,40z"/>
		<path fill="#D3D3D3" d="M47.1,31c-3.2,0-5.9,2.6-5.9,5.9c0,3.2,2.6,5.9,5.9,5.9c3.2,0,5.9-2.6,5.9-5.9C52.9,33.7,50.3,31,47.1,31z
			 M47.1,40c-1.7,0-3.1-1.4-3.1-3.1c0-1.7,1.4-3.1,3.1-3.1c1.7,0,3.1,1.4,3.1,3.1C50.2,38.6,48.8,40,47.1,40z"/>
		<path fill="#D3D3D3" d="M51.4,26.3c-1.2-0.3-5-0.9-5-0.9c-2.5-2.3-5.3-4.6-7.1-5.8c-2.9-1.9-5.3-2.3-10.7-2.3
			c-5.3,0-12.4,0-14.5,0c-5.5,0-12.1,7.3-12.1,11.8c0,0.3,0.1,3.7,0.4,5c0.4,2,1.5,2.6,3.2,3.1c0-0.1,0-0.2,0-0.2
			c0-4,3.3-7.3,7.3-7.3c4.1,0,7.3,3.3,7.3,7.3c0,0.2,0,0.4,0,0.6h19.5c0-0.2,0-0.4,0-0.6c0-4,3.3-7.3,7.3-7.3c4.1,0,7.3,3.3,7.3,7.3
			c0,0.2,0,0.4,0,0.6c2,0,3.5-1.6,3.5-3.6c0,0,0-2.4,0-3.3C57.9,27.7,54,26.8,51.4,26.3z M17.8,25.8c-2.4,0-3.4,0-4.2,0
			c-1.7,0-2.1-0.9-3-3.2c-0.6-1.4,0.7-2.9,3-3.1c0.7-0.1,1.7-0.1,4.2-0.1V25.8z M28.4,25.9c-2.8,0-5.7,0-8.3,0v-6.4
			c2.8,0,5.9,0,8.3,0V25.9z M41.1,25.8c-0.2,0-4.9,0-10.4,0v-6.3c0.7,0,1.3,0,1.5,0c2.9,0,5.8,1.5,7.4,3.1
			C42.5,25.6,41.1,25.8,41.1,25.8z"/>
	</g>
</g>
</svg>
