<?xml version="1.0" encoding="utf-8"?>
<!-- Generator: Adobe Illustrator 18.0.0, SVG Export Plug-In . SVG Version: 6.00 Build 0)  -->
<!DOCTYPE svg PUBLIC "-//W3C//DTD SVG 1.1//EN" "http://www.w3.org/Graphics/SVG/1.1/DTD/svg11.dtd">
<svg version="1.1" xmlns="http://www.w3.org/2000/svg" xmlns:xlink="http://www.w3.org/1999/xlink" x="0px" y="0px"
	 viewBox="0 0 60 60" enable-background="new 0 0 60 60" xml:space="preserve">
<g id="Layer_2">
</g>
<g id="Layer_1">
	<g>
		<path fill="#D3D3D3" d="M48.2,33.9c-3.2,0-5.9,2.6-5.9,5.9c0,3.2,2.6,5.9,5.9,5.9c3.2,0,5.9-2.6,5.9-5.9
			C54.1,36.6,51.5,33.9,48.2,33.9z M48.2,42.9c-1.7,0-3.1-1.4-3.1-3.1c0-1.7,1.4-3.1,3.1-3.1c1.7,0,3.1,1.4,3.1,3.1
			C51.3,41.5,49.9,42.9,48.2,42.9z"/>
		<path fill="#D3D3D3" d="M15.7,33.9c-3.2,0-5.9,2.6-5.9,5.9c0,3.2,2.6,5.9,5.9,5.9c3.2,0,5.9-2.6,5.9-5.9
			C21.5,36.6,18.9,33.9,15.7,33.9z M15.7,42.9c-1.7,0-3.1-1.4-3.1-3.1c0-1.7,1.4-3.1,3.1-3.1c1.7,0,3.1,1.4,3.1,3.1
			C18.8,41.5,17.4,42.9,15.7,42.9z"/>
		<path fill="#D3D3D3" d="M58.4,31.3c0-1.2-0.7-1.7-7.7-10.9c-0.8-1.1-2.3-2.6-3.6-2.6h-9.8c-1.3,0-2.4,1.1-2.4,2.4v13.6h-1.1V15.2
			c0-0.4-0.4-0.8-0.8-0.8H2.4c-0.4,0-0.8,0.4-0.8,0.8v22C1.6,37.6,2,38,2.4,38h6.3c0.8-3.1,3.6-5.4,6.9-5.4c3.3,0,6.1,2.3,6.9,5.4
			h2.1h8.2h4.4h1.4h2.2c0.8-3.3,3.8-5.8,7.4-5.8c3.5,0,6.5,2.4,7.4,5.7c2.2,0,2.8-1.2,2.8-2.3C58.4,35.5,58.4,34.3,58.4,31.3z
			 M52,26.7c0,0.3-0.5,0.6-1,0.6H37.9c-0.6,0-1-0.5-1-1V21c0-0.6,0.5-1,1-1h9.4c0.6,0,1.2,0.6,1.5,1.1c2.9,3.9,3.3,4.5,3.3,5
			C52.1,26.5,52,26.7,52,26.7z"/>
	</g>
</g>
</svg>
