<?xml version="1.0" encoding="utf-8"?>
<!-- Generator: Adobe Illustrator 18.0.0, SVG Export Plug-In . SVG Version: 6.00 Build 0)  -->
<!DOCTYPE svg PUBLIC "-//W3C//DTD SVG 1.1//EN" "http://www.w3.org/Graphics/SVG/1.1/DTD/svg11.dtd">
<svg version="1.1" xmlns="http://www.w3.org/2000/svg" xmlns:xlink="http://www.w3.org/1999/xlink" x="0px" y="0px"
	 viewBox="0 0 80 80" enable-background="new 0 0 80 80" xml:space="preserve">
<g id="Layer_2">
</g>
<g id="Layer_1">
	<g>
		<path fill="#D3D3D3" d="M22,43.9c-3.5,0-6.4,2.9-6.4,6.4c0,3.5,2.9,6.4,6.4,6.4s6.4-2.9,6.4-6.4C28.4,46.8,25.5,43.9,22,43.9z
			 M22,53.7c-1.9,0-3.4-1.5-3.4-3.4c0-1.9,1.5-3.4,3.4-3.4s3.4,1.5,3.4,3.4C25.4,52.2,23.9,53.7,22,53.7z"/>
		<path fill="#D3D3D3" d="M55,43.9c-3.5,0-6.4,2.9-6.4,6.4c0,3.5,2.9,6.4,6.4,6.4s6.4-2.9,6.4-6.4C61.4,46.8,58.5,43.9,55,43.9z
			 M55,53.7c-1.9,0-3.4-1.5-3.4-3.4c0-1.9,1.5-3.4,3.4-3.4s3.4,1.5,3.4,3.4C58.4,52.2,56.9,53.7,55,53.7z"/>
		<path fill="#D3D3D3" d="M70.8,45.4L70.8,45.4l-5.9-17.7c-0.6-3.3-5.3-4.3-6.9-4.3H14c-2.8,0-5,2.2-5,5v18h0.1
			c0.2,1.1,1.1,2.1,2.3,2.3c0.2,0,0.4,0.1,0.6,0.1c1.2,0,2.2-0.7,2.7-1.7c1.3-2.8,4.2-4.7,7.3-4.7c3.9,0,7.2,2.8,7.9,6.5
			c0.3,1.4,1.5,2.5,3,2.5h11.4c1.4,0,2.7-1,3-2.5c0.7-3.8,4-6.5,7.9-6.5s7.2,2.8,7.9,6.5c0.3,1.4,1.5,2.5,3,2.5H66c2.8,0,5-2.2,5-5
			C71,46,70.9,45.7,70.8,45.4z M12,36.3v-8c0-1.1,0.9-2,2-2h2.2l2.3,10H12z M22,36.3h-0.4l-2.3-10h7.9l2.3,10H22z M32.6,36.3
			l-2.3-10h6.9l2.3,10H32.6z M42.6,36.3l-2.3-10h6.9l2.3,10H42.6z M55,36.3h-2.4l-2.3-10H58c1.1,0,4,0.9,4,2l2.7,8H55z"/>
	</g>
</g>
</svg>
