<?xml version="1.0" encoding="utf-8"?>
<!-- Generator: Adobe Illustrator 18.0.0, SVG Export Plug-In . SVG Version: 6.00 Build 0)  -->
<!DOCTYPE svg PUBLIC "-//W3C//DTD SVG 1.1//EN" "http://www.w3.org/Graphics/SVG/1.1/DTD/svg11.dtd">
<svg version="1.1" id="Слой_1" xmlns="http://www.w3.org/2000/svg" xmlns:xlink="http://www.w3.org/1999/xlink" x="0px" y="0px"
	 viewBox="0 0 95 95" enable-background="new 0 0 95 95" xml:space="preserve">
<g id="Layer_2">
</g>
<g>
	<path fill="#D3D3D3" d="M26.1,52.1c-4.2,0-7.6,3.4-7.6,7.6s3.4,7.6,7.6,7.6s7.6-3.4,7.6-7.6S30.3,52.1,26.1,52.1z M26.1,63.7
		c-2.3,0-4-1.8-4-4c0-2.3,1.8-4,4-4s4,1.8,4,4C30.2,61.9,28.4,63.7,26.1,63.7z"/>
	<path fill="#D3D3D3" d="M65.3,52.1c-4.2,0-7.6,3.4-7.6,7.6s3.4,7.6,7.6,7.6s7.6-3.4,7.6-7.6S69.5,52.1,65.3,52.1z M65.3,63.7
		c-2.3,0-4-1.8-4-4c0-2.3,1.8-4,4-4s4,1.8,4,4C69.3,61.9,67.6,63.7,65.3,63.7z"/>
	<path fill="#D3D3D3" d="M84.3,55c0-0.5-0.1-0.8-0.2-1.2l-7-21c-0.7-3.9-6.3-5.1-8.2-5.1H16.6c-3.3,0-5.9,2.6-5.9,5.9V55h0.1
		c0.2,1.3,1.3,2.5,2.7,2.7c0.2,0,0.5,0.1,0.7,0.1c1.4,0,2.6-0.8,3.2-2c1.5-3.3,5-5.6,8.7-5.6c4.6,0,8.5,3.3,9.4,7.7
		c0.4,1.7,1.8,3,3.6,3h13.5c1.7,0,3.2-1.2,3.6-3c0.8-4.5,4.8-7.7,9.4-7.7c4.6,0,8.6,3.3,9.4,7.7c0.4,1.6,1.8,2.9,3.5,3
		C81.7,60.9,84.3,58.3,84.3,55z M14.2,43v-9.5c0-1.3,1.1-2.4,2.4-2.4h2.6L22,43H14.2z M26.1,43h-0.5l-2.7-11.9h9.4L35,43H26.1z
		 M38.7,43L36,31.2h8.2L46.9,43H38.7z M50.6,43l-2.7-11.9H56L58.8,43H50.6z M65.3,43h-2.8l-2.7-11.9h9.1c1.3,0,4.8,1.1,4.8,2.4
		l3.2,9.5H65.3z"/>
	<path fill="#D3D3D3" d="M78.5,61C78.5,61,78.5,61,78.5,61c-0.1,0-0.1,0-0.1,0H78.5z"/>
</g>
</svg>
