<?xml version="1.0" encoding="utf-8"?>
<!-- Generator: Adobe Illustrator 18.0.0, SVG Export Plug-In . SVG Version: 6.00 Build 0)  -->
<!DOCTYPE svg PUBLIC "-//W3C//DTD SVG 1.1//EN" "http://www.w3.org/Graphics/SVG/1.1/DTD/svg11.dtd">
<svg version="1.1" xmlns="http://www.w3.org/2000/svg" xmlns:xlink="http://www.w3.org/1999/xlink" x="0px" y="0px"
	 viewBox="0 0 85 85" enable-background="new 0 0 85 85" xml:space="preserve">
<g id="Layer_2">
</g>
<g id="Layer_1">
	<g>
		<path fill="#D3D3D3" d="M73.2,46.4c-3.2,0-5.9,2.6-5.9,5.9c0,3.2,2.6,5.9,5.9,5.9c3.2,0,5.9-2.6,5.9-5.9
			C79.1,49.1,76.5,46.4,73.2,46.4z M73.2,55.4c-1.7,0-3.1-1.4-3.1-3.1c0-1.7,1.4-3.1,3.1-3.1c1.7,0,3.1,1.4,3.1,3.1
			C76.3,54,74.9,55.4,73.2,55.4z"/>
		<path fill="#D3D3D3" d="M24.7,46.4c-3.2,0-5.9,2.6-5.9,5.9c0,3.2,2.6,5.9,5.9,5.9c3.2,0,5.9-2.6,5.9-5.9
			C30.5,49.1,27.9,46.4,24.7,46.4z M24.7,55.4c-1.7,0-3.1-1.4-3.1-3.1c0-1.7,1.4-3.1,3.1-3.1c1.7,0,3.1,1.4,3.1,3.1
			C27.8,54,26.4,55.4,24.7,55.4z"/>
		<path fill="#D3D3D3" d="M49.4,46.4c-3.2,0-5.9,2.6-5.9,5.9c0,3.2,2.6,5.9,5.9,5.9c3.2,0,5.9-2.6,5.9-5.9
			C55.3,49.1,52.6,46.4,49.4,46.4z M49.4,55.4c-1.7,0-3.1-1.4-3.1-3.1c0-1.7,1.4-3.1,3.1-3.1c1.7,0,3.1,1.4,3.1,3.1
			C52.5,54,51.1,55.4,49.4,55.4z"/>
		<path fill="#D3D3D3" d="M9.6,46.4c-3.2,0-5.9,2.6-5.9,5.9c0,3.2,2.6,5.9,5.9,5.9c3.2,0,5.9-2.6,5.9-5.9
			C15.5,49.1,12.9,46.4,9.6,46.4z M9.6,55.4c-1.7,0-3.1-1.4-3.1-3.1c0-1.7,1.4-3.1,3.1-3.1c1.7,0,3.1,1.4,3.1,3.1
			C12.7,54,11.3,55.4,9.6,55.4z"/>
		<path fill="#D3D3D3" d="M73.2,44.7c3.5,0,6.5,2.4,7.4,5.7c2.2,0,2.8-1.2,2.8-2.3c0,0,0-1.2,0-4.2c0-1.2-0.7-1.7-7.7-10.9
			c-0.8-1.1-2.3-2.6-3.6-2.6h-9.8c-1.3,0-2.4,1.1-2.4,2.4v13.6h-1.1V27.7c0-0.4-0.4-0.8-0.8-0.8H2.4c-0.4,0-0.8,0.4-0.8,0.8v22
			c0,0.4,0.4,0.8,0.8,0.8h0.3c0.8-3.1,3.6-5.4,6.9-5.4c3.3,0,6.1,2.3,7,5.4h1.2c0.8-3.1,3.6-5.4,6.9-5.4c3.3,0,6.1,2.3,6.9,5.4h10.8
			c0.8-3.1,3.6-5.4,6.9-5.4c3.3,0,6,2.4,6.9,5.4c0,0,0.7,0,1.4,0h1h3.6h0.4h3.2C66.7,47.2,69.7,44.7,73.2,44.7z M71.9,32.5h0.3
			c0.6,0,1.2,0.6,1.5,1.1c2.9,3.9,3.3,4.5,3.3,5c0,0.4,0,0.5,0,0.5c0,0.3-0.5,0.6-1,0.6h-4.1V32.5z M62.9,39.8c-0.6,0-1-0.5-1-1
			v-5.2c0-0.6,0.5-1,1-1h6.9v7.3H62.9z"/>
	</g>
</g>
</svg>
