<?xml version="1.0" encoding="utf-8"?>
<!-- Generator: Adobe Illustrator 18.0.0, SVG Export Plug-In . SVG Version: 6.00 Build 0)  -->
<!DOCTYPE svg PUBLIC "-//W3C//DTD SVG 1.1//EN" "http://www.w3.org/Graphics/SVG/1.1/DTD/svg11.dtd">
<svg version="1.1" xmlns="http://www.w3.org/2000/svg" xmlns:xlink="http://www.w3.org/1999/xlink" x="0px" y="0px"
	 viewBox="0 0 85 85" enable-background="new 0 0 85 85" xml:space="preserve">
<g id="Layer_2">
</g>
<g id="Layer_1">
	<g>
		<path fill="#D3D3D3" d="M11.4,43.8c-3.2,0-5.9,2.6-5.9,5.9c0,3.2,2.6,5.9,5.9,5.9c3.2,0,5.9-2.6,5.9-5.9
			C17.3,46.5,14.7,43.8,11.4,43.8z M11.4,52.8c-1.7,0-3.1-1.4-3.1-3.1c0-1.7,1.4-3.1,3.1-3.1c1.7,0,3.1,1.4,3.1,3.1
			C14.5,51.4,13.1,52.8,11.4,52.8z"/>
		<path fill="#D3D3D3" d="M39.8,43.3c-3.2,0-5.9,2.6-5.9,5.9c0,3.2,2.6,5.9,5.9,5.9c3.2,0,5.9-2.6,5.9-5.9
			C45.7,45.9,43,43.3,39.8,43.3z M39.8,52.2c-1.7,0-3.1-1.4-3.1-3.1c0-1.7,1.4-3.1,3.1-3.1c1.7,0,3.1,1.4,3.1,3.1
			C42.9,50.8,41.5,52.2,39.8,52.2z"/>
		<path fill="#D3D3D3" d="M73.9,43.3c-3.2,0-5.9,2.6-5.9,5.9c0,3.2,2.6,5.9,5.9,5.9c3.2,0,5.9-2.6,5.9-5.9
			C79.8,45.9,77.1,43.3,73.9,43.3z M73.9,52.2c-1.7,0-3.1-1.4-3.1-3.1c0-1.7,1.4-3.1,3.1-3.1c1.7,0,3.1,1.4,3.1,3.1
			C77,50.8,75.6,52.2,73.9,52.2z"/>
		<path fill="#D3D3D3" d="M78.2,38.5c-1.2-0.3-5-0.9-5-0.9c-2.5-2.3-5.3-4.6-7.1-5.8c-2.9-1.9-5.3-2.3-10.7-2.3
			c-5.3,0-12.4,0-14.5,0c-5.5,0-12.1,7.3-12.1,11.8c0,0.3,0.1,3.7,0.4,5h-6.7V31.5c0-0.6-0.4-1-1-1H1.3c-0.6,0-1,0.4-1,1v10.6h1.3
			c0.6,0,1.1,0.5,1.1,1.1v0.5c0,0.6-0.5,1.1-1.1,1.1H0.3v3.5c0,0.6,0.4,1,1,1h3c0-0.1,0-0.1,0-0.2c0-4,3.2-7.2,7.2-7.2
			s7.2,3.2,7.2,7.2c0,0.1,0,0.1,0,0.2h2h1h10.6c0.1,0,0.2,0.1,0.3,0.1c0-0.1,0-0.2,0-0.2c0-4,3.3-7.3,7.3-7.3c4.1,0,7.3,3.3,7.3,7.3
			c0,0.2,0,0.4,0,0.6h19.5c0-0.2,0-0.4,0-0.6c0-4,3.3-7.3,7.3-7.3c4.1,0,7.3,3.3,7.3,7.3c0,0.2,0,0.4,0,0.6c2,0,3.5-1.6,3.5-3.6
			c0,0,0-2.4,0-3.3C84.7,39.9,80.8,39.1,78.2,38.5z M44.6,38c-2.4,0-3.4,0-4.2,0c-1.7,0-2.1-0.9-3-3.2c-0.6-1.4,0.7-2.9,3-3.1
			c0.7-0.1,1.7-0.1,4.2-0.1V38z M55.2,38.1c-2.8,0-5.7,0-8.3,0v-6.4c2.8,0,5.9,0,8.3,0V38.1z M67.9,38c-0.2,0-4.9,0-10.4,0v-6.3
			c0.7,0,1.3,0,1.5,0c2.9,0,5.8,1.5,7.4,3.1C69.3,37.8,67.9,38,67.9,38z"/>
	</g>
</g>
</svg>
