<?xml version="1.0" encoding="UTF-8" standalone="no"?>
<svg width="10px" height="10px" viewBox="0 0 10 10" version="1.1" xmlns="http://www.w3.org/2000/svg" xmlns:xlink="http://www.w3.org/1999/xlink" xmlns:sketch="http://www.bohemiancoding.com/sketch/ns">
    <!-- Generator: Sketch 3.0.4 (8054) - http://www.bohemiancoding.com/sketch -->
    <title>Imported Layers 5</title>
    <desc>Created with Sketch.</desc>
    <defs></defs>
    <g id="Page-1" stroke="none" stroke-width="1" fill="none" fill-rule="evenodd" sketch:type="MSPage">
        <g id="feed-3" sketch:type="MSArtboardGroup" transform="translate(-241.000000, -610.000000)" fill="#D0011B">
            <g id="Group" sketch:type="MSLayerGroup" transform="translate(241.000000, 605.000000)">
                <path d="M9.70725,6.70725 C10.09825,6.31625 10.09825,5.68425 9.70725,5.29325 C9.31625,4.90225 8.68425,4.90225 8.29325,5.29325 L5.00025,8.58625 L1.70725,5.29325 C1.31625,4.90225 0.68425,4.90225 0.29325,5.29325 C-0.09775,5.68425 -0.09775,6.31625 0.29325,6.70725 L3.58625,10.00025 L0.29325,13.29325 C-0.09775,13.68425 -0.09775,14.31625 0.29325,14.70725 C0.48825,14.90225 0.74425,15.00025 1.00025,15.00025 C1.25625,15.00025 1.51225,14.90225 1.70725,14.70725 L5.00025,11.41425 L8.29325,14.70725 C8.48825,14.90225 8.74425,15.00025 9.00025,15.00025 C9.25625,15.00025 9.51225,14.90225 9.70725,14.70725 C10.09825,14.31625 10.09825,13.68425 9.70725,13.29325 L6.41425,10.00025 L9.70725,6.70725 Z" id="Imported-Layers-5" sketch:type="MSShapeGroup"></path>
            </g>
        </g>
    </g>
</svg>