<?xml version="1.0" encoding="utf-8"?>
<!-- Generator: Adobe Illustrator 18.0.0, SVG Export Plug-In . SVG Version: 6.00 Build 0)  -->
<!DOCTYPE svg PUBLIC "-//W3C//DTD SVG 1.1//EN" "http://www.w3.org/Graphics/SVG/1.1/DTD/svg11.dtd">
<svg version="1.1" xmlns="http://www.w3.org/2000/svg" xmlns:xlink="http://www.w3.org/1999/xlink" x="0px" y="0px"
	 viewBox="0 0 85 85" enable-background="new 0 0 85 85" xml:space="preserve">
<g id="Layer_2">
</g>
<g id="Layer_1">
	<g>
		<path fill="#D3D3D3" d="M75.3,46.4c-3.2,0-5.9,2.6-5.9,5.9c0,3.2,2.6,5.9,5.9,5.9c3.2,0,5.9-2.6,5.9-5.9
			C81.1,49.1,78.5,46.4,75.3,46.4z M75.3,55.4c-1.7,0-3.1-1.4-3.1-3.1c0-1.7,1.4-3.1,3.1-3.1c1.7,0,3.1,1.4,3.1,3.1
			C78.4,54,77,55.4,75.3,55.4z"/>
		<path fill="#D3D3D3" d="M42.7,46.4c-3.2,0-5.9,2.6-5.9,5.9c0,3.2,2.6,5.9,5.9,5.9c3.2,0,5.9-2.6,5.9-5.9
			C48.6,49.1,46,46.4,42.7,46.4z M42.7,55.4c-1.7,0-3.1-1.4-3.1-3.1c0-1.7,1.4-3.1,3.1-3.1c1.7,0,3.1,1.4,3.1,3.1
			C45.8,54,44.4,55.4,42.7,55.4z"/>
		<path fill="#D3D3D3" d="M85.4,43.8c0-1.2-0.7-1.7-7.7-10.9c-0.8-1.1-2.3-2.6-3.6-2.6h-9.8c-1.3,0-2.4,1.1-2.4,2.4v13.6h-1.1V27.7
			c0-0.4-0.4-0.8-0.8-0.8H29.5c-0.4,0-0.8,0.4-0.8,0.8v20.2h-6.8V33c0-0.6-0.4-1-1-1H0.6c-0.6,0-1,0.4-1,1v10.6h1.3
			c0.6,0,1.1,0.5,1.1,1.1v0.5c0,0.6-0.5,1.1-1.1,1.1h-1.3v3.5c0,0.6,0.4,1,1,1h3c0-0.1,0-0.1,0-0.2c0-4,3.2-7.2,7.2-7.2
			s7.2,3.2,7.2,7.2c0,0.1,0,0.1,0,0.2h2h1h10.7l-0.3-0.4h4.5c0.8-3.1,3.6-5.4,6.9-5.4c3.3,0,6.1,2.3,6.9,5.4h2.1h8.2h4.4h1.4h2.2
			c0.8-3.3,3.8-5.8,7.4-5.8c3.5,0,6.5,2.4,7.4,5.7c2.2,0,2.8-1.2,2.8-2.3C85.4,48,85.4,46.8,85.4,43.8z M79.1,39.2
			c0,0.3-0.5,0.6-1,0.6H64.9c-0.6,0-1-0.5-1-1v-5.2c0-0.6,0.5-1,1-1h9.4c0.6,0,1.2,0.6,1.5,1.1c2.9,3.9,3.3,4.5,3.3,5
			C79.1,39,79.1,39.2,79.1,39.2z"/>
		<path fill="#D3D3D3" d="M10.7,45.4c-3.2,0-5.9,2.6-5.9,5.9c0,3.2,2.6,5.9,5.9,5.9c3.2,0,5.9-2.6,5.9-5.9
			C16.6,48.1,13.9,45.4,10.7,45.4z M10.7,54.4c-1.7,0-3.1-1.4-3.1-3.1c0-1.7,1.4-3.1,3.1-3.1c1.7,0,3.1,1.4,3.1,3.1
			C13.8,53,12.4,54.4,10.7,54.4z"/>
	</g>
</g>
</svg>
