<?xml version="1.0" encoding="utf-8"?>
<!-- Generator: Adobe Illustrator 18.0.0, SVG Export Plug-In . SVG Version: 6.00 Build 0)  -->
<!DOCTYPE svg PUBLIC "-//W3C//DTD SVG 1.1//EN" "http://www.w3.org/Graphics/SVG/1.1/DTD/svg11.dtd">
<svg version="1.1" xmlns="http://www.w3.org/2000/svg" xmlns:xlink="http://www.w3.org/1999/xlink" x="0px" y="0px"
	 viewBox="0 0 95 85" enable-background="new 0 0 95 85" xml:space="preserve">
<g id="Layer_2">
</g>
<g id="Layer_1">
	<g>
		<path fill="#D3D3D3" d="M50.2,52.8c0-3.5-2.9-6.4-6.4-6.4c-3.5,0-6.4,2.9-6.4,6.4c0,3.5,2.9,6.4,6.4,6.4
			C47.3,59.2,50.2,56.3,50.2,52.8z M43.8,56.2c-1.9,0-3.4-1.5-3.4-3.4c0-1.9,1.5-3.4,3.4-3.4s3.4,1.5,3.4,3.4
			C47.2,54.7,45.7,56.2,43.8,56.2z"/>
		<path fill="#D3D3D3" d="M83.2,52.8c0-3.5-2.9-6.4-6.4-6.4c-3.5,0-6.4,2.9-6.4,6.4c0,3.5,2.9,6.4,6.4,6.4
			C80.3,59.2,83.2,56.3,83.2,52.8z M76.8,56.2c-1.9,0-3.4-1.5-3.4-3.4c0-1.9,1.5-3.4,3.4-3.4s3.4,1.5,3.4,3.4
			C80.2,54.7,78.7,56.2,76.8,56.2z"/>
		<path fill="#D3D3D3" d="M92.8,48.8c0-0.3-0.1-0.6-0.2-0.9v0l-5.9-17.7c-0.6-3.3-5.3-4.3-6.9-4.3h-44c-2.8,0-5,2.2-5,5v15.8
			l0.1,2.2c0,0.3,0,0.7,0.1,1.1h-6.5V35.1c0-0.6-0.4-1-1-1H3.2c-0.6,0-1,0.4-1,1v10.6h1.3c0.6,0,1.1,0.5,1.1,1.1v0.5
			c0,0.6-0.5,1.1-1.1,1.1H2.2v3.5c0,0.6,0.4,1,1,1h3c0-0.1,0-0.1,0-0.2c0-4,3.2-7.2,7.2-7.2c4,0,7.2,3.2,7.2,7.2c0,0.1,0,0.1,0,0.2
			h2h1h9.2c0.2,0,3.3,0,3.3,0s-0.2-1.9,0.6-3.4c1.4-2.8,4.2-4.7,7.3-4.7c3.9,0,7.2,2.8,7.9,6.5c0.3,1.4,1.5,2.5,3,2.5H66
			c1.4,0,2.7-1,3-2.5c0.7-3.8,4-6.5,7.9-6.5c3.9,0,7.2,2.8,7.9,6.5c0.3,1.4,1.5,2.5,3,2.5h0.2C90.6,53.8,92.8,51.6,92.8,48.8z
			 M33.8,38.8v-8c0-1.1,0.9-2,2-2H38l2.3,10H33.8z M43.8,38.8h-0.4l-2.3-10H49l2.3,10H43.8z M52.1,28.8H59l2.3,10h-6.9L52.1,28.8z
			 M64.4,38.8l-2.3-10H69l2.3,10H64.4z M76.8,38.8h-2.4l-2.3-10h7.7c1.1,0,4,0.9,4,2l2.7,8H76.8z"/>
		<path fill="#D3D3D3" d="M13.3,47.5c-3.2,0-5.9,2.6-5.9,5.9c0,3.2,2.6,5.9,5.9,5.9c3.2,0,5.9-2.6,5.9-5.9
			C19.2,50.1,16.6,47.5,13.3,47.5z M13.3,56.4c-1.7,0-3.1-1.4-3.1-3.1c0-1.7,1.4-3.1,3.1-3.1c1.7,0,3.1,1.4,3.1,3.1
			C16.4,55.1,15.1,56.4,13.3,56.4z"/>
	</g>
</g>
</svg>
