<?xml version="1.0" encoding="utf-8"?>
<!-- Generator: Adobe Illustrator 18.0.0, SVG Export Plug-In . SVG Version: 6.00 Build 0)  -->
<!DOCTYPE svg PUBLIC "-//W3C//DTD SVG 1.1//EN" "http://www.w3.org/Graphics/SVG/1.1/DTD/svg11.dtd">
<svg version="1.1" xmlns="http://www.w3.org/2000/svg" xmlns:xlink="http://www.w3.org/1999/xlink" x="0px" y="0px"
	 viewBox="0 0 50 50" enable-background="new 0 0 50 50" xml:space="preserve">
<g id="Layer_2">
</g>
<g id="Layer_1">
	<g>
		<circle fill="#D3D3D3" cx="25" cy="10" r="5"/>
		<path fill="#D3D3D3" d="M37,25.7l-8-9c-0.5-0.5-1.2-0.7-1.8-0.6c-0.1,0-4.3,0-4.4,0c-0.7-0.1-1.3,0.1-1.8,0.6l-8,9
			c-0.7,0.8-0.7,2.1,0.2,2.8c0.8,0.7,2.1,0.7,2.8-0.2l4-4.5V43c0,1.1,0.9,2,2,2c1.1,0,2-0.9,2-2V32h2v11c0,1.1,0.9,2,2,2
			c1.1,0,2-0.9,2-2V23.8l4,4.5c0.7,0.8,2,0.9,2.8,0.2C37.7,27.8,37.7,26.5,37,25.7z"/>
	</g>
</g>
</svg>
