<?xml version="1.0" encoding="utf-8"?>
<!-- Generator: Adobe Illustrator 18.0.0, SVG Export Plug-In . SVG Version: 6.00 Build 0)  -->
<!DOCTYPE svg PUBLIC "-//W3C//DTD SVG 1.1//EN" "http://www.w3.org/Graphics/SVG/1.1/DTD/svg11.dtd">
<svg version="1.1" xmlns="http://www.w3.org/2000/svg" xmlns:xlink="http://www.w3.org/1999/xlink" x="0px" y="0px"
	 viewBox="0 0 50 50" enable-background="new 0 0 50 50" xml:space="preserve">
<g id="Layer_2">
</g>
<g id="Layer_1">
	<g>
		<path fill-rule="evenodd" clip-rule="evenodd" fill="#D3D3D3" d="M41.8,23.7l-13-13.3C27.9,9.4,26.7,9,25.5,9s-2.3,0.5-3.2,1.4
			l-14,13.3c-0.6,0.6-0.6,1.5-0.1,2.1c0.6,0.6,1.5,0.6,2.1,0.1l14-13.3l0,0l0,0c0.4-0.4,0.8-0.5,1.1-0.5c0.2,0,0.7,0.1,1.1,0.5
			l13,13.3c0.6,0.6,1.5,0.6,2.1,0C42.4,25.2,42.4,24.3,41.8,23.7z"/>
		<path fill-rule="evenodd" clip-rule="evenodd" fill="#D3D3D3" d="M26.9,15.4c-1.8-1.8-0.9-1.8-2.7,0l-13,12.3h0.3
			c-0.3,0.4-0.5,0.8-0.5,1.3v10c0,1.1,0.9,2,2,2h8v-6c0-1.1,0.9-2,2-2h4c1.1,0,2,0.9,2,2v6h8c1,0,2-0.9,2-2V29c0-0.5-0.1-1-0.4-1.3
			H39L26.9,15.4z M25.1,26c-1.4,0-2.5-1.1-2.5-2.5c0-1.4,1.1-2.5,2.5-2.5c1.4,0,2.5,1.1,2.5,2.5C27.6,24.9,26.4,26,25.1,26z"/>
	</g>
</g>
</svg>
