<?xml version="1.0" encoding="utf-8"?>
<!-- Generator: Adobe Illustrator 18.0.0, SVG Export Plug-In . SVG Version: 6.00 Build 0)  -->
<!DOCTYPE svg PUBLIC "-//W3C//DTD SVG 1.1//EN" "http://www.w3.org/Graphics/SVG/1.1/DTD/svg11.dtd">
<svg version="1.1" xmlns="http://www.w3.org/2000/svg" xmlns:xlink="http://www.w3.org/1999/xlink" x="0px" y="0px"
	 viewBox="0 0 50 50" enable-background="new 0 0 50 50" xml:space="preserve">
<g id="Layer_2">
</g>
<g id="Layer_1">
	<g>
		<path fill-rule="evenodd" clip-rule="evenodd" fill="#D3D3D3" d="M29.9,12.9c-0.2-3.1-2.8-5.6-6-5.6c-3.2,0-5.9,2.6-6,5.8
			c2-0.5,4.2-0.8,6.5-0.8C26.4,12.4,28.2,12.6,29.9,12.9z"/>
		<path fill-rule="evenodd" clip-rule="evenodd" fill="#D3D3D3" d="M42.9,24.4h-2.1c-0.6-1.2-1.5-2.2-2.5-3
			c-0.1-0.2-0.2-0.3-0.3-0.5c0.5-1.4,1.6-4,2.5-6.3c0.7-1.7-1.6-1.4-5.4-0.6c-1.4,0.3-2.7,1-3.8,1.8c-2.2-0.9-4.7-1.4-7.4-1.4
			c-5.3,0-10,2-12.9,5.2c-0.2,0-0.4-0.1-0.5-0.1c-1-0.3-1.9-1.1-2.5-2.5c-0.3-0.8-1.2-1.1-2-0.8c-0.8,0.3-1.1,1.2-0.8,2
			c1.1,2.4,2.7,3.5,3.9,4c-0.8,1.5-1.2,3.1-1.2,4.8c0,3.3,1.6,6.3,4.3,8.5l-1.1,4c-0.3,1.1,0.3,2.2,1.4,2.4l2.9,0.8
			c1.1,0.3,2.2-0.3,2.4-1.4l0.7-2.5c1.7,0.5,3.5,0.7,5.3,0.7c2.2,0,4.4-0.4,6.3-1l0.7,2.8c0.3,1.1,1.4,1.7,2.4,1.4l2.9-0.8
			c1.1-0.3,1.7-1.4,1.4-2.4L36.8,36c2.2-1,3.9-2.5,4.7-4.7h1.4c1.1,0,2-0.9,2-2v-3C44.9,25.3,44,24.4,42.9,24.4z"/>
	</g>
</g>
</svg>
