<?xml version="1.0" encoding="utf-8"?>
<!-- Generator: Adobe Illustrator 18.0.0, SVG Export Plug-In . SVG Version: 6.00 Build 0)  -->
<!DOCTYPE svg PUBLIC "-//W3C//DTD SVG 1.1//EN" "http://www.w3.org/Graphics/SVG/1.1/DTD/svg11.dtd">
<svg version="1.1" xmlns="http://www.w3.org/2000/svg" xmlns:xlink="http://www.w3.org/1999/xlink" x="0px" y="0px"
	 viewBox="0 0 50 50" enable-background="new 0 0 50 50" xml:space="preserve">
<g id="Layer_2">
</g>
<g id="Layer_1">
	<g>
		<path fill="#D3D3D3" d="M17.3,21.7c-3.5,0-6.4,2.9-6.4,6.4c0,3.5,2.9,6.4,6.4,6.4c3.5,0,6.4-2.9,6.4-6.4
			C23.6,24.6,20.8,21.7,17.3,21.7z M17.3,31.5c-1.9,0-3.4-1.5-3.4-3.4c0-1.9,1.5-3.4,3.4-3.4c1.9,0,3.4,1.5,3.4,3.4
			C20.6,30,19.1,31.5,17.3,31.5z"/>
		<path fill="#D3D3D3" d="M45.3,25.1h-11v-9.2v-0.4h-31v11c0,0.9,0.7,1.6,1.6,1.6h4.4h0c0-4.4,3.6-8,8-8c1.6,0,3,0.5,4.3,1.2
			c2.2,1.4,3.7,3.9,3.7,6.8h0c0,0,7.4,0,7.4,0h12.6c0.8,0,1.5-0.7,1.5-1.5C46.8,25.8,46.1,25.1,45.3,25.1z"/>
	</g>
</g>
</svg>
